<?xml version="1.0" encoding="utf-8"?>
<!-- Generator: Adobe Illustrator 16.0.0, SVG Export Plug-In . SVG Version: 6.00 Build 0)  -->
<!DOCTYPE svg PUBLIC "-//W3C//DTD SVG 1.1//EN" "http://www.w3.org/Graphics/SVG/1.1/DTD/svg11.dtd">
<svg version="1.1" id="Layer_1" xmlns="http://www.w3.org/2000/svg" xmlns:xlink="http://www.w3.org/1999/xlink" x="0px" y="0px"
	 width="150px" height="150px" viewBox="0 0 150 150" style="enable-background:new 0 0 150 150;" xml:space="preserve">
<g id="art">
	<path d="M124.9902344,70.1357422c-0.0576172-4.3769531-0.6191406-8.4160156-1.4980469-12.0209961
		c-0.890625-3.6054688-2.0664062-6.7836914-3.3291016-9.5268555c-1.2753906-2.7412109-2.6425781-5.0390625-3.8935547-6.9726562
		c-0.3300781-0.4726562-0.6455078-0.9267578-0.9482422-1.3618164c-0.1513672-0.2172852-0.3007812-0.4301758-0.4433594-0.6381836
		c-0.1513672-0.2041016-0.3066406-0.3974609-0.453125-0.5898438c-0.2958984-0.3828125-0.578125-0.746582-0.8457031-1.0927734
		c-0.1337891-0.171875-0.2617188-0.3422852-0.3935547-0.503418c-0.1347656-0.1586914-0.2666016-0.3120117-0.3964844-0.4633789
		c-0.5136719-0.5966797-0.9648438-1.1230469-1.3535156-1.5742188c-0.3974609-0.4189453-0.7333984-0.7661133-1.0009766-1.046875
		C109.8994141,33.78125,109.6259766,33.5,109.6259766,33.5l-1.3359375-1.3369141l-6.6757812,7.5185547
		c-0.1748047-0.1669922-0.3486328-0.3349609-0.5234375-0.5019531c-0.4794922-0.4233398-0.96875-0.8378906-1.453125-1.2553711
		c-1.96875-1.6323242-4.0615234-3.097168-6.2529297-4.3745117c-2.1865234-1.2841797-4.4902344-2.34375-6.8427734-3.2197266
		c-2.3554688-0.8740234-4.7714844-1.5498047-7.2148438-2.0258789c-2.4453125-0.4692383-4.9169922-0.7192383-7.3798828-0.7836914
		l-0.9238281-0.0234375c-0.1533203-0.0058594-0.3076172-0.0029297-0.4619141,0.0019531l-0.4609375,0.0102539L69.1806641,27.53125
		l-0.4609375,0.0097656c-0.1542969,0.0068359-0.3066406,0.0214844-0.4589844,0.0302734
		c-0.6123047,0.0449219-1.2236328,0.0830078-1.8320312,0.1347656c-0.609375,0.0722656-1.2148438,0.1445312-1.8203125,0.2167969
		c-2.4169922,0.3413086-4.7949219,0.8706055-7.1054688,1.5751953c-2.3144531,0.6933594-4.546875,1.6088867-6.6894531,2.6665039
		c-2.1425781,1.0620117-4.203125,2.2675781-6.1191406,3.6557617l-0.3632812,0.2524414
		c-0.1240234,0.0834961-0.2421875,0.1704102-0.3583984,0.2626953c-0.2333984,0.1801758-0.4658203,0.3613281-0.7001953,0.5419922
		c-0.4648438,0.362793-0.9375,0.7089844-1.3837891,1.1079102c-0.4492188,0.3876953-0.9052734,0.7729492-1.3466797,1.1611328
		c-0.4160156,0.3945312-0.8330078,0.7895508-1.2470703,1.1831055l-0.3115234,0.2958984
		c-0.1386719,0.1333008-0.2119141,0.2192383-0.3203125,0.3310547c-0.2011719,0.2104492-0.4023438,0.4213867-0.6035156,0.6328125
		c-0.3984375,0.425293-0.8134766,0.8330078-1.1826172,1.2822266c-0.3789062,0.4399414-0.7568359,0.8803711-1.1337891,1.3193359
		c-0.3652344,0.449707-0.7128906,0.9125977-1.0693359,1.3676758c-0.1757812,0.2290039-0.3564453,0.4536133-0.5273438,0.6870117
		c-0.1650391,0.2358398-0.3310547,0.4726562-0.4951172,0.7084961c-0.1640625,0.2363281-0.3300781,0.4716797-0.4941406,0.7080078
		c-0.1640625,0.2368164-0.3339844,0.4682617-0.4824219,0.7158203c-0.3037109,0.4863281-0.609375,0.9726562-0.9121094,1.4580078
		c-0.0742188,0.1225586-0.1552734,0.2412109-0.2246094,0.3662109l-0.2089844,0.375
		c-0.1396484,0.2495117-0.2792969,0.4990234-0.4179688,0.7485352c-0.1386719,0.2485352-0.2783203,0.4975586-0.4169922,0.7475586
		c-0.1376953,0.25-0.2568359,0.5087891-0.3847656,0.7631836c-0.2509766,0.5107422-0.5107422,1.0170898-0.7519531,1.53125
		c-0.2265625,0.5195312-0.453125,1.0400391-0.6796875,1.559082l-0.1669922,0.3886719
		c-0.0585938,0.1298828-0.1025391,0.2636719-0.1542969,0.3959961c-0.1015625,0.2641602-0.1992188,0.527832-0.3007812,0.7924805
		c-0.4208984,1.0473633-0.7382812,2.1279297-1.0878906,3.1933594c-0.1484375,0.5410156-0.2949219,1.0825195-0.4414062,1.6225586
		l-0.109375,0.4042969c-0.0380859,0.1347656-0.0732422,0.2695312-0.1005859,0.4067383l-0.1806641,0.8164062l-0.1777344,0.8168945
		l-0.0898438,0.4067383l-0.0703125,0.4111328c-0.0917969,0.5478516-0.1855469,1.0947266-0.2773438,1.640625
		c-0.0253906,0.1357422-0.0458984,0.2734375-0.0605469,0.4111328l-0.0498047,0.4116211l-0.0986328,0.8227539l-0.0996094,0.8222656
		l-0.0595703,0.8227539c-0.1982422,2.1958008-0.1826172,4.3881836-0.0712891,6.5571289
		c0.0390625,0.5429688,0.078125,1.0839844,0.1162109,1.6230469c0.0537109,0.5390625,0.125,1.0742188,0.1865234,1.6103516
		c0.0332031,0.2675781,0.0625,0.5361328,0.0976562,0.8037109l0.1337891,0.7958984L25.75,82.6982422l0.0654297,0.3964844
		c0.0214844,0.1347656,0.0449219,0.2646484,0.0751953,0.3964844c0.2324219,1.046875,0.4355469,2.0957031,0.7333984,3.1191406
		c0.0703125,0.2578125,0.1386719,0.515625,0.2080078,0.7714844l0.1025391,0.3847656l0.1230469,0.3789062
		c0.1621094,0.5048828,0.3251953,1.0097656,0.4863281,1.5126953c0.7070312,1.9951172,1.4804688,3.9521484,2.4345703,5.8095703
		c0.1152344,0.2333984,0.2304688,0.4677734,0.3466797,0.7001953c0.0556641,0.1181641,0.1162109,0.2324219,0.1816406,0.3447266
		l0.1894531,0.3427734c0.2519531,0.4541016,0.5048828,0.9072266,0.7558594,1.3603516
		c0.0625,0.1132812,0.1279297,0.2236328,0.1982422,0.3330078l0.2050781,0.3300781
		c0.1357422,0.2177734,0.2734375,0.4375,0.4091797,0.65625c0.2753906,0.4375,0.5380859,0.8798828,0.8417969,1.2958984
		c0.2929688,0.4228516,0.5859375,0.84375,0.8789062,1.2636719c0.1425781,0.2138672,0.3007812,0.4140625,0.4570312,0.6162109
		s0.3134766,0.4042969,0.46875,0.6064453c0.15625,0.2021484,0.3125,0.4033203,0.46875,0.6054688l0.2324219,0.3007812
		l0.2509766,0.2929688c0.3349609,0.3896484,0.6689453,0.7792969,1.0019531,1.1679688
		c0.3300781,0.4003906,0.6738281,0.7460938,1.0126953,1.1054688c0.1699219,0.1806641,0.3398438,0.3574219,0.5097656,0.5371094
		l0.2539062,0.2666016c0.09375,0.0986328,0.1484375,0.1611328,0.2753906,0.2861328
		c0.3623047,0.3466797,0.7255859,0.6914062,1.0878906,1.0371094c0.3642578,0.3417969,0.7148438,0.6972656,1.1005859,1.0146484
		c0.3779297,0.3242188,0.7548828,0.6484375,1.1318359,0.9716797l0.2822266,0.2431641
		c0.0917969,0.0810547,0.1875,0.1601562,0.2861328,0.234375c0.1953125,0.1523438,0.390625,0.3037109,0.5859375,0.4560547
		c0.390625,0.3027344,0.78125,0.6054688,1.1708984,0.90625c0.3955078,0.2929688,0.8037109,0.5683594,1.2060547,0.8496094
		c3.2197266,2.2402344,6.6455078,4.0810547,10.1875,5.4501953c3.5380859,1.3818359,7.1679688,2.3398438,10.7910156,2.8955078
		c0.1142578,0.0175781,0.2265625,0.0410156,0.3408203,0.0546875l0.3398438,0.0410156
		c0.2275391,0.0273438,0.4541016,0.0566406,0.6806641,0.0830078c0.453125,0.0537109,0.9052734,0.1103516,1.3554688,0.1601562
		c0.453125,0.0332031,0.90625,0.0654297,1.3564453,0.0986328c0.2255859,0.0175781,0.4501953,0.0332031,0.6757812,0.0488281
		c0.1123047,0.0078125,0.2246094,0.0175781,0.3369141,0.0214844l0.3369141,0.0107422
		c0.4511719,0.0107422,0.9003906,0.0205078,1.3486328,0.0322266l0.6699219,0.0175781l0.6699219-0.015625
		c0.890625-0.0234375,1.7792969-0.0234375,2.6601562-0.1054688c3.5244141-0.2324219,6.9570312-0.828125,10.2304688-1.7421875
		c3.2724609-0.9121094,6.3837891-2.1445312,9.2832031-3.6308594c2.9003906-1.484375,5.5878906-3.2275391,8.0351562-5.1533203
		c0.1542969-0.1181641,0.3085938-0.2382812,0.4609375-0.3564453l0.2314453-0.1787109l0.2216797-0.1894531
		c0.296875-0.2548828,0.59375-0.5087891,0.8886719-0.7617188c0.2949219-0.2548828,0.5898438-0.5068359,0.8808594-0.7597656
		c0.2714844-0.2578125,0.5429688-0.5146484,0.8115234-0.7705078c0.2705078-0.2558594,0.5390625-0.5107422,0.8066406-0.7666016
		c0.0771484-0.0732422,0.1162109-0.1064453,0.2216797-0.2119141l0.1943359-0.2041016
		c0.1298828-0.1357422,0.2587891-0.2714844,0.3886719-0.4082031c0.2587891-0.2705078,0.5175781-0.5419922,0.7744141-0.8115234
		c0.2558594-0.2714844,0.5166016-0.5361328,0.7539062-0.8232422c0.4833984-0.5615234,0.9638672-1.1210938,1.4414062-1.6767578
		c0.453125-0.5732422,0.8955078-1.1513672,1.3398438-1.7216797c0.1103516-0.1425781,0.2207031-0.2851562,0.3310547-0.4287109
		c0.1025391-0.1474609,0.2060547-0.2939453,0.3095703-0.4423828c0.2041016-0.2929688,0.4101562-0.5869141,0.6152344-0.8798828
		c0.203125-0.2939453,0.4101562-0.5830078,0.6074219-0.8779297c0.1875-0.2998047,0.3759766-0.5986328,0.5625-0.8984375
		c0.1865234-0.2978516,0.3720703-0.5957031,0.5585938-0.8916016c0.0917969-0.1484375,0.1884766-0.2949219,0.2744141-0.4472656
		c0.0849609-0.1513672,0.1699219-0.3037109,0.2548828-0.4541016c0.3378906-0.6083984,0.6787109-1.2080078,1.0058594-1.8115234
		c0.3046875-0.6132812,0.6054688-1.2236328,0.90625-1.828125c0.0742188-0.1542969,0.1523438-0.3017578,0.2226562-0.4550781
		c0.0683594-0.1552734,0.1337891-0.3085938,0.2001953-0.4628906c0.1357422-0.3066406,0.2685547-0.6132812,0.4013672-0.9199219
		c1.0449219-2.4492188,1.90625-4.8984375,2.5214844-7.3330078c0.0820312-0.3027344,0.1669922-0.6044922,0.2441406-0.90625
		c0.0664062-0.3037109,0.1318359-0.6064453,0.1992188-0.9072266c0.0664062-0.3027344,0.1318359-0.6035156,0.1972656-0.9013672
		c0.0625-0.3007812,0.1386719-0.5957031,0.1835938-0.8964844c0.1015625-0.5986328,0.203125-1.1923828,0.3017578-1.7822266
		c0.0244141-0.1484375,0.0498047-0.2949219,0.0742188-0.4404297c0.0185547-0.1484375,0.0361328-0.2958984,0.0546875-0.4443359
		c0.0361328-0.2929688,0.0712891-0.5869141,0.1064453-0.8779297c0.1640625-1.1645508,0.2197266-2.3203125,0.3066406-3.4521484
		c0.0263672-0.28125,0.0234375-0.5644531,0.0332031-0.8452148c0.0058594-0.2817383,0.0136719-0.5610352,0.0205078-0.840332
		C124.9873047,71.2363281,125.0146484,70.6845703,124.9902344,70.1357422z M101.6650391,42.3461914l0.1425781,0.1489258
		l0.6513672,0.6845703l0.3261719,0.3417969c0.1103516,0.1142578,0.2011719,0.2314453,0.3037109,0.347168l0.5957031,0.6938477
		c0.1972656,0.2333984,0.4023438,0.4580078,0.5947266,0.7001953l0.5673828,0.7324219l0.5712891,0.734375
		c0.1845703,0.2490234,0.3564453,0.5078125,0.5361328,0.7602539c0.3515625,0.5097656,0.7197266,1.0107422,1.0371094,1.5454102
		l0.4960938,0.7910156l0.2470703,0.3955078l0.2265625,0.4082031c1.2460938,2.1572266,2.3017578,4.4384766,3.1337891,6.809082
		c0.8320312,2.3725586,1.4472656,4.8320312,1.8320312,7.3359375c0.7744141,5.0087891,0.6201172,10.206543-0.5,15.2319336
		c-1.1113281,5.0263672-3.1972656,9.8789062-6.1494141,14.1914062l-0.5615234,0.8056641
		c-0.09375,0.1318359-0.1806641,0.2724609-0.2832031,0.3984375l-0.3007812,0.3876953l-0.6005859,0.7783203l-0.3007812,0.3886719
		l-0.3203125,0.3740234l-0.640625,0.7470703l-0.3203125,0.3730469c-0.1044922,0.1279297-0.2246094,0.2402344-0.3369141,0.3613281
		l-0.6777344,0.7158203l-0.3398438,0.3574219c-0.125,0.1357422-0.2080078,0.21875-0.3359375,0.3378906l-0.7314453,0.6962891
		l-0.3652344,0.3466797c-0.1220703,0.1181641-0.2431641,0.234375-0.3681641,0.3359375l-0.7421875,0.6376953l-0.3701172,0.3173828
		c-0.1220703,0.1064453-0.2460938,0.2148438-0.3779297,0.3125l-0.7832031,0.6074219l-0.390625,0.3046875
		c-0.1298828,0.1025391-0.2617188,0.2011719-0.3984375,0.2939453l-0.8144531,0.5673828l-0.40625,0.2832031
		c-0.1328125,0.0976562-0.2724609,0.1894531-0.4140625,0.2753906c-4.4355469,2.8945312-9.5078125,4.8740234-14.8037109,5.7548828
		C75,111.8408203,69.4785156,111.6474609,64.2099609,110.2890625c-5.2695312-1.3408203-10.2851562-3.8115234-14.5917969-7.2412109
		c-0.1347656-0.1064453-0.2744141-0.2080078-0.40625-0.3193359l-0.3916016-0.3349609l-0.7851562-0.6738281
		c-0.265625-0.2177734-0.5107422-0.4619141-0.7617188-0.6972656l-0.7509766-0.7138672
		c-0.1386719-0.1298828-0.2324219-0.2177734-0.3564453-0.3515625l-0.3642578-0.3837891l-0.7304688-0.765625
		c-0.1269531-0.1279297-0.2265625-0.2597656-0.3408203-0.3876953L44.3964844,98.03125
		c-0.2236328-0.2607422-0.4482422-0.5166016-0.6669922-0.7802734c-1.7421875-2.1474609-3.2480469-4.4960938-4.4765625-6.9892578
		l-0.2324219-0.4677734c-0.0771484-0.15625-0.1542969-0.3115234-0.2207031-0.4726562l-0.4169922-0.9560547l-0.2080078-0.4794922
		l-0.1855469-0.4882812l-0.3710938-0.9775391c-0.0625-0.1611328-0.1210938-0.3271484-0.171875-0.4931641l-0.1611328-0.4980469
		c-0.1054688-0.3320312-0.2158203-0.6630859-0.3193359-0.9980469l-0.2734375-1.0097656
		c-0.0898438-0.3378906-0.1914062-0.6728516-0.2578125-1.0166016c-0.6328125-2.7236328-0.9648438-5.5244141-0.9863281-8.3359375
		c-0.0117188-2.8125,0.3085938-5.6308594,0.9277344-8.3876953l0.1123047-0.5185547
		c0.0419922-0.1708984,0.0908203-0.3408203,0.1357422-0.512207l0.2753906-1.0239258
		c0.0429688-0.171875,0.0957031-0.340332,0.1523438-0.5078125l0.1621094-0.5063477
		c0.1103516-0.3354492,0.2128906-0.675293,0.3291016-1.0092773l0.3740234-0.9951172l0.1875-0.4975586
		c0.0605469-0.1669922,0.1376953-0.3261719,0.2070312-0.4902344c0.2851562-0.6489258,0.5507812-1.3071289,0.8789062-1.9370117
		c1.2470703-2.550293,2.7832031-4.9692383,4.5888672-7.1806641l0.6972656-0.8125
		c0.234375-0.2685547,0.4560547-0.5498047,0.7099609-0.8017578l0.7382812-0.7773438l0.3554688-0.3754883l0.3974609-0.3779297
		l0.7939453-0.7553711c0.1328125-0.1308594,0.2666016-0.2392578,0.4013672-0.355957l0.4023438-0.3452148l0.4013672-0.3457031
		c0.1357422-0.1152344,0.265625-0.2333984,0.4101562-0.3408203l0.8476562-0.6582031
		c2.2714844-1.7470703,4.7832031-3.1787109,7.4257812-4.3125c2.6425781-1.1455078,5.4414062-1.9199219,8.2929688-2.3798828
		c0.1796875-0.0283203,0.3554688-0.0664062,0.5361328-0.0859375l0.5380859-0.0654297
		c0.3574219-0.0424805,0.7177734-0.0883789,1.078125-0.128418l1.0810547-0.0776367l0.5419922-0.0390625l0.5429688-0.0136719
		l1.0859375-0.0263672c0.3623047,0.0009766,0.7246094,0.0151367,1.0869141,0.0209961l0.5439453,0.0131836
		c0.1816406,0,0.3623047,0.0214844,0.5429688,0.0322266l1.0859375,0.0771484
		c0.1796875,0.0083008,0.3603516,0.0341797,0.5410156,0.0551758l0.5410156,0.0649414l0.5400391,0.0639648
		c0.1806641,0.0180664,0.3603516,0.046875,0.5400391,0.0786133l1.0742188,0.1801758
		c0.1787109,0.0288086,0.3583984,0.0605469,0.5351562,0.1030273l0.5332031,0.1152344
		c1.4257812,0.2880859,2.8193359,0.7177734,4.2011719,1.1777344l1.0234375,0.3847656l0.5126953,0.1923828l0.5019531,0.2167969
		l1.0039062,0.4360352c0.3291016,0.152832,0.6542969,0.3203125,0.9814453,0.4790039
		c0.6640625,0.3085938,1.2919922,0.6835938,1.9316406,1.0351562c0.1621094,0.0859375,0.3183594,0.1791992,0.4726562,0.2788086
		l0.4648438,0.2900391l0.4648438,0.2905273c0.1552734,0.0976562,0.3125,0.1894531,0.4609375,0.2983398L91.5419922,43.9375
		c0.1494141,0.1049805,0.3017578,0.2060547,0.4482422,0.3164062l0.4345703,0.3359375l0.8691406,0.6708984
		c0.2822266,0.2348633,0.5566406,0.4765625,0.8359375,0.7138672c0.3662109,0.300293,0.7128906,0.6220703,1.0546875,0.949707
		l-3.390625,3.8217773c-0.1513672-0.1435547-0.3037109-0.2880859-0.4570312-0.4277344l-0.9140625-0.7851562
		c-1.2392578-1.0195312-2.5546875-1.9443359-3.9335938-2.7641602c-1.3847656-0.8125-2.8388672-1.5029297-4.3320312-2.0854492
		l-0.5625-0.2124023c-0.1875-0.0727539-0.3740234-0.1430664-0.5673828-0.2016602l-1.1435547-0.3691406l-1.1601562-0.3134766
		c-0.1933594-0.0566406-0.3886719-0.0976562-0.5839844-0.1411133l-0.5878906-0.1289062
		c-1.5703125-0.3276367-3.1630859-0.5341797-4.7636719-0.6181641c-1.6005859-0.0708008-3.2050781-0.0151367-4.796875,0.1616211
		l-0.5957031,0.0703125c-0.1992188,0.0214844-0.3984375,0.0478516-0.59375,0.0839844l-1.1835938,0.2016602l-1.1738281,0.2553711
		c-0.1972656,0.0390625-0.3886719,0.0952148-0.5830078,0.1464844L63.28125,43.7749023
		c-1.5400391,0.4331055-3.0478516,0.9838867-4.5029297,1.6499023c-1.4501953,0.6791992-2.84375,1.4707031-4.1708984,2.3623047
		c-0.328125,0.2294922-0.6601562,0.4541016-0.9833984,0.6875l-0.9492188,0.7338867
		c-0.1591797,0.1191406-0.3134766,0.25-0.4658203,0.3828125L51.75,49.9863281l-0.4580078,0.394043l-0.4257812,0.4042969
		l-0.4248047,0.4038086c-0.1308594,0.1210938-0.2978516,0.2827148-0.4316406,0.4287109l-0.8251953,0.8657227
		c-0.140625,0.1411133-0.2636719,0.2998047-0.3955078,0.4487305l-0.3886719,0.4541016
		c-0.1298828,0.1513672-0.2626953,0.3007812-0.3896484,0.4555664l-0.3662109,0.472168l-0.3671875,0.4736328
		c-0.1230469,0.1557617-0.2470703,0.3144531-0.3564453,0.4794922l-0.6845703,0.9804688
		c-0.2236328,0.3320312-0.4267578,0.6748047-0.6416016,1.0107422c-0.1025391,0.1704102-0.2158203,0.3364258-0.3125,0.5097656
		l-0.2910156,0.5214844l-0.2910156,0.5224609c-0.1005859,0.1728516-0.1914062,0.3505859-0.2773438,0.5297852l-0.5302734,1.0727539
		c-0.3173828,0.7304688-0.6513672,1.4555664-0.9179688,2.2080078c-0.5576172,1.4912109-1.0175781,3.0219727-1.3320312,4.5830078
		c-0.0400391,0.1943359-0.0917969,0.3876953-0.1220703,0.5839844l-0.1005859,0.5888672
		c-0.0644531,0.3916016-0.1416016,0.7832031-0.1806641,1.1801758c-0.0458984,0.3935547-0.0986328,0.7885742-0.1386719,1.1850586
		l-0.0859375,1.1894531c-0.3789062,6.3574219,1.25,12.7998047,4.5722656,18.2070312l0.3154297,0.5039062
		c0.1074219,0.1660156,0.2041016,0.3398438,0.3212891,0.5009766l0.6787109,0.9746094
		c0.1103516,0.1650391,0.2314453,0.3212891,0.3525391,0.4775391l0.3652344,0.4707031l0.3642578,0.4707031
		c0.125,0.1533203,0.2578125,0.3027344,0.3886719,0.4560547l0.390625,0.4560547
		c0.1308594,0.1484375,0.2587891,0.3105469,0.3935547,0.4482422l0.7988281,0.8417969
		c0.1210938,0.1318359,0.2832031,0.296875,0.4277344,0.4287109l0.4277344,0.4101562
		c0.2900391,0.2685547,0.5654297,0.5507812,0.8710938,0.8027344l0.8994141,0.7714844
		c0.1464844,0.1328125,0.3085938,0.2470703,0.4628906,0.3710938l0.4677734,0.3623047l0.46875,0.3642578
		c0.1611328,0.1152344,0.3242188,0.2246094,0.4863281,0.3388672c0.3242188,0.2255859,0.6445312,0.4560547,0.9736328,0.6748047
		c0.6708984,0.4169922,1.3310547,0.8535156,2.0283203,1.2226562c0.6816406,0.4013672,1.3964844,0.7363281,2.1035156,1.0878906
		c0.3564453,0.1650391,0.7226562,0.3173828,1.0839844,0.4765625c0.1796875,0.0771484,0.359375,0.1601562,0.5419922,0.2324219
		l0.5537109,0.2089844l0.5537109,0.2089844c0.1835938,0.0703125,0.3681641,0.1425781,0.5576172,0.1992188l1.1240234,0.3632812
		c0.1865234,0.0644531,0.3779297,0.1103516,0.5683594,0.1640625l0.5712891,0.1542969l0.5683594,0.1542969l0.578125,0.1269531
		l0.5761719,0.1269531c0.1933594,0.0390625,0.3847656,0.0908203,0.5800781,0.1191406l1.1640625,0.1982422
		c0.1933594,0.0361328,0.3886719,0.0615234,0.5839844,0.0820312l0.5859375,0.0712891l0.5859375,0.0703125
		c0.1953125,0.0214844,0.3925781,0.03125,0.5888672,0.046875c0.3916016,0.0253906,0.7841797,0.0625,1.1767578,0.0800781
		l1.1796875,0.0292969c0.1962891,0.0078125,0.3925781,0.0097656,0.5898438,0.0019531l0.5888672-0.0146484l0.5898438-0.0126953
		c0.1962891-0.0019531,0.3916016-0.0253906,0.5888672-0.0351562l1.1748047-0.0859375l1.1708984-0.1386719
		c0.390625-0.0390625,0.7763672-0.1162109,1.1640625-0.1777344c0.3876953-0.0683594,0.7763672-0.1230469,1.1572266-0.2138672
		l1.1513672-0.2519531l1.1376953-0.3037109c1.5078125-0.4316406,2.9951172-0.9394531,4.4228516-1.5869141l0.5419922-0.2353516
		l0.5263672-0.2578125c0.3496094-0.1767578,0.7050781-0.3417969,1.0507812-0.5273438l1.0253906-0.5722656
		c0.1728516-0.0927734,0.34375-0.1894531,0.5078125-0.2958984l0.4980469-0.3115234
		c0.6738281-0.4003906,1.3046875-0.8623047,1.9492188-1.3066406c0.3164062-0.2304688,0.6201172-0.4755859,0.9316406-0.7128906
		l0.4638672-0.359375l0.4501953-0.3847656c0.2998047-0.2578125,0.6015625-0.5136719,0.8964844-0.7734375l0.8320312-0.7890625
		c0.1425781-0.1386719,0.265625-0.2460938,0.4267578-0.4121094l0.4033203-0.4228516
		c0.2685547-0.2841797,0.5410156-0.5634766,0.8056641-0.8486328l0.7607422-0.8867188l0.3808594-0.4443359l0.3583984-0.4619141
		l0.7167969-0.9257812l0.6669922-0.9570312l0.3339844-0.4794922l0.3105469-0.4951172
		c0.2050781-0.3300781,0.4140625-0.6582031,0.6171875-0.9912109l0.5683594-1.0185547
		c0.09375-0.171875,0.1933594-0.3378906,0.2822266-0.5117188l0.2587891-0.5234375
		c0.1708984-0.3496094,0.3515625-0.6943359,0.5126953-1.046875l0.4658203-1.0703125
		c0.1621094-0.3525391,0.2929688-0.7197266,0.4316406-1.0820312l0.2070312-0.5449219
		c0.0673828-0.1826172,0.1386719-0.3623047,0.1953125-0.5488281c2.0302734-5.8779297,2.4169922-12.2763672,1.1953125-18.3291016
		l-0.2460938-1.1318359c-0.0371094-0.1884766-0.0917969-0.375-0.1416016-0.5610352l-0.1494141-0.5585938
		c-0.1845703-0.75-0.4443359-1.4775391-0.6757812-2.2124023c-0.125-0.3652344-0.2695312-0.7231445-0.4023438-1.0849609
		l-0.2041016-0.5405273c-0.0703125-0.1791992-0.1513672-0.3530273-0.2255859-0.53125l-0.4599609-1.0600586L103.5908203,55.625
		l-0.2558594-0.5175781l-0.2792969-0.5058594l-0.5625-1.0078125l-0.609375-0.9780273l-0.3056641-0.4897461L101.25,51.6523438
		l-0.6591797-0.9453125l-0.703125-0.9130859l-0.3515625-0.4550781c-0.1191406-0.1499023-0.2509766-0.2949219-0.3759766-0.4433594
		l-0.7578125-0.8818359c-0.1240234-0.1503906-0.2568359-0.2763672-0.3857422-0.4150391l-0.3867188-0.4082031l-0.3212891-0.3398438
		L101.6650391,42.3461914z M73.9580078,70.9853516c0.0019531,0,0.0019531,0.0009766,0.0039062,0.0019531l0.1259766-0.1313477
		c0.0029297,0.0024414,0.0048828,0.003418,0.0058594,0.0058594c0.0556641,0.0649414,0.1220703,0.1254883,0.1708984,0.1943359
		c0.2050781,0.2651367,0.3554688,0.5805664,0.4296875,0.9077148c0.1582031,0.6591797-0.0029297,1.3759766-0.4033203,1.9082031
		c-0.2011719,0.2651367-0.4560547,0.4931641-0.7470703,0.6445312c-0.8964844,0.4663086-1.7509766,0.2016602-1.8613281,0.0405273l0,0
		c0.2294922,0.1157227,0.4746094,0.1499023,0.7255859,0.1499023c0.5849609,0,1.1376953-0.2163086,1.5498047-0.6308594
		c0.4160156-0.4140625,0.6445312-0.9594727,0.6445312-1.5444336c0-0.5864258-0.2285156-1.1342773-0.6445312-1.5498047
		c-0.4121094-0.4145508-0.9648438-0.6411133-1.5498047-0.6411133c-0.5859375,0-1.1376953,0.2285156-1.5507812,0.6435547
		c-0.6435547,0.6450195-0.8037109,1.5927734-0.4775391,2.3862305c0.0898438,0.2573242,0.2246094,0.5014648,0.4091797,0.7075195
		c0.4404297,0.5078125,1.1220703,0.815918,1.8095703,0.7822266c0.3417969-0.0117188,0.6816406-0.1005859,0.9892578-0.2597656
		c0.3056641-0.1630859,0.5712891-0.3955078,0.7783203-0.671875c0.4199219-0.5527344,0.5878906-1.2988281,0.4248047-1.9848633
		c-0.0791016-0.3442383-0.2294922-0.6694336-0.4501953-0.953125c-0.0517578-0.0727539-0.1152344-0.1313477-0.171875-0.1977539
		c-0.0039062-0.003418-0.0068359-0.0063477-0.0097656-0.0087891l0.3066406-0.3173828l0.1826172,0.2021484l0.1630859,0.2236328
		l0.1435547,0.2402344c0.3505859,0.6611328,0.4208984,1.4545898,0.2041016,2.1601562
		c-0.109375,0.3530273-0.2841797,0.6835938-0.5146484,0.9677734l-0.1855469,0.2050781
		c-0.0605469,0.0605469-0.1357422,0.1240234-0.203125,0.1865234c-0.0712891,0.0561523-0.1455078,0.1074219-0.2177734,0.1621094
		c-0.0761719,0.0488281-0.15625,0.09375-0.2333984,0.1416016c-0.6435547,0.3461914-1.421875,0.4057617-2.1064453,0.1821289
		c-0.3427734-0.1098633-0.6611328-0.2895508-0.9316406-0.5234375c-0.0634766-0.0625-0.1376953-0.1152344-0.1933594-0.1821289
		c-0.0585938-0.0703125-0.1279297-0.1342773-0.1757812-0.2060547c-0.1064453-0.1386719-0.203125-0.2919922-0.2783203-0.453125
		c-0.3095703-0.6396484-0.3349609-1.402832-0.0771484-2.0571289c0.2529297-0.6557617,0.7890625-1.1958008,1.4394531-1.4350586
		c0.6484375-0.2460938,1.3955078-0.1992188,2.0019531,0.121582c0.0732422,0.0444336,0.1484375,0.0849609,0.2197266,0.1328125
		c0.0683594,0.0507812,0.1396484,0.0976562,0.2041016,0.1518555c0.0341797,0.0322266,0.0693359,0.0629883,0.1054688,0.0947266
		l-0.125,0.1391602C73.9111328,70.9418945,73.9365234,70.9619141,73.9580078,70.9853516z M71.5087891,71.6376953
		c0.2402344-0.2397461,0.5605469-0.3710938,0.8994141-0.3710938s0.6582031,0.1313477,0.8974609,0.3710938
		c0.2402344,0.2416992,0.3720703,0.5600586,0.3720703,0.9003906c0,0.3388672-0.1318359,0.6572266-0.3720703,0.8964844
		c-0.2392578,0.2402344-0.5585938,0.3725586-0.8974609,0.3725586s-0.6591797-0.1323242-0.8994141-0.3725586
		C71.0146484,72.9389648,71.0146484,72.1347656,71.5087891,71.6376953z M74.0791016,70.7060547
		c-0.0361328-0.0322266-0.0703125-0.0629883-0.1064453-0.0957031c-0.0673828-0.0566406-0.1416016-0.1069336-0.2128906-0.1606445
		c-0.0742188-0.0488281-0.1523438-0.0922852-0.2285156-0.1376953c-0.6308594-0.3344727-1.4082031-0.3842773-2.0869141-0.128418
		c-0.6796875,0.2490234-1.2382812,0.8100586-1.5029297,1.4921875c-0.2705078,0.6811523-0.2451172,1.4775391,0.0771484,2.1459961
		c0.078125,0.1689453,0.1777344,0.3256836,0.2919922,0.4750977c0.0537109,0.0795898,0.1201172,0.1396484,0.1787109,0.2099609
		c0.0615234,0.0737305,0.1357422,0.1274414,0.203125,0.1933594c0.2822266,0.2436523,0.6142578,0.4316406,0.9707031,0.546875
		c0.7128906,0.234375,1.5253906,0.1728516,2.1972656-0.1894531c0.0810547-0.0488281,0.1640625-0.09375,0.2441406-0.1455078
		c0.0771484-0.0566406,0.1572266-0.1123047,0.2314453-0.171875c0.0683594-0.0654297,0.1376953-0.121582,0.2080078-0.1923828
		l0.1923828-0.2114258c0.2412109-0.2963867,0.4257812-0.6411133,0.5371094-1.0092773
		c0.2285156-0.7333984,0.15625-1.5625-0.2089844-2.2519531l-0.1474609-0.2519531l-0.1757812-0.2382812l-0.1884766-0.2094727
		l0.3730469-0.3852539c0.0107422,0.0102539,0.0205078,0.0195312,0.0302734,0.0292969
		c0.5800781,0.5917969,0.9121094,1.390625,0.9638672,2.2016602c0.0263672,0.4067383-0.0175781,0.8154297-0.1318359,1.2036133
		c-0.1152344,0.3896484-0.2988281,0.7548828-0.5371094,1.0791016c-0.0585938,0.0820312-0.1171875,0.1625977-0.1875,0.2358398
		c-0.0693359,0.0708008-0.1318359,0.1552734-0.2050781,0.2167969c-0.0771484,0.0678711-0.1513672,0.1411133-0.2294922,0.2036133
		l-0.2392578,0.1748047c-0.3339844,0.2207031-0.7080078,0.3779297-1.0976562,0.4672852
		c-0.7763672,0.1772461-1.609375,0.0629883-2.3056641-0.3081055c-0.6962891-0.3730469-1.2490234-0.9985352-1.5146484-1.7304688
		c-0.2695312-0.7324219-0.2519531-1.5605469,0.0390625-2.2753906c0.2900391-0.7138672,0.8554688-1.3154297,1.5429688-1.6357422
		c0.6904297-0.3261719,1.5019531-0.3710938,2.2177734-0.1303711c0.3574219,0.1176758,0.6904297,0.3061523,0.9794922,0.5463867
		c0.0400391,0.0361328,0.0791016,0.0722656,0.1191406,0.1079102L74.0791016,70.7060547z M74.4541016,70.2822266
		c-0.0410156-0.0371094-0.0820312-0.0727539-0.1220703-0.1108398c-0.2998047-0.25-0.6474609-0.4458008-1.0205078-0.5703125
		c-0.7460938-0.2504883-1.5917969-0.2075195-2.3125,0.1328125c-0.7255859,0.3374023-1.3046875,0.956543-1.6132812,1.7036133
		c-0.3046875,0.7451172-0.3242188,1.6083984-0.0429688,2.3725586c0.1386719,0.3813477,0.3515625,0.7407227,0.6201172,1.0463867
		c0.2705078,0.3041992,0.5917969,0.5703125,0.9560547,0.7617188c0.7265625,0.3886719,1.5947266,0.5087891,2.40625,0.324707
		c0.4052734-0.0913086,0.7958984-0.2553711,1.1445312-0.4848633l0.2558594-0.1884766
		c0.0810547-0.0644531,0.1542969-0.1362305,0.2304688-0.2041016c0.0839844-0.0708008,0.1445312-0.1533203,0.21875-0.2299805
		c0.0732422-0.0737305,0.1347656-0.1582031,0.1962891-0.2436523c0.2490234-0.3378906,0.4404297-0.7192383,0.5615234-1.1245117
		c0.1181641-0.4057617,0.1650391-0.8325195,0.1386719-1.2558594c-0.0507812-0.84375-0.4023438-1.6845703-1-2.2954102
		c-0.0117188-0.0126953-0.0253906-0.0253906-0.0371094-0.0380859l0.4589844-0.4746094
		c0.1289062,0.1333008,0.25,0.2753906,0.3642578,0.4228516c0.0634766,0.0922852,0.1376953,0.1743164,0.1923828,0.2714844
		l0.1708984,0.2895508c0.0976562,0.2016602,0.1992188,0.4008789,0.2646484,0.6162109
		c0.3007812,0.8427734,0.3066406,1.7744141,0.0644531,2.6269531c-0.1298828,0.4238281-0.3232422,0.8256836-0.5683594,1.1928711
		l-0.1953125,0.2666016c-0.0664062,0.0859375-0.1445312,0.1640625-0.2177734,0.2480469
		c-0.0712891,0.0839844-0.1455078,0.1542969-0.234375,0.2304688c-0.0830078,0.0727539-0.1630859,0.1577148-0.2529297,0.2163086
		c-0.3359375,0.2729492-0.7363281,0.4780273-1.1445312,0.6235352c-0.4121094,0.1425781-0.8447266,0.2324219-1.28125,0.2324219
		c-0.4355469,0.0039062-0.8710938-0.0576172-1.2832031-0.1826172c-0.4179688-0.1230469-0.8046875-0.328125-1.15625-0.5751953
		c-0.0849609-0.0654297-0.1777344-0.121582-0.2558594-0.1977539l-0.2402344-0.215332
		c-0.1435547-0.1513672-0.3046875-0.3173828-0.4199219-0.4912109c-0.2480469-0.3427734-0.4482422-0.7304688-0.5703125-1.1396484
		c-0.2421875-0.8173828-0.2246094-1.7128906,0.0830078-2.5039062c0.1523438-0.3950195,0.3662109-0.7646484,0.6318359-1.0927734
		c0.2675781-0.3232422,0.59375-0.6044922,0.9462891-0.8203125c0.7119141-0.4443359,1.5810547-0.6123047,2.3994141-0.5009766
		c0.4121094,0.0561523,0.8154297,0.1733398,1.1816406,0.3652344c0.3066406,0.1577148,0.5878906,0.3618164,0.8388672,0.5947266
		L74.4541016,70.2822266z M74.9150391,69.7636719c-0.2617188-0.2441406-0.5527344-0.4521484-0.8720703-0.6171875
		c-0.3818359-0.199707-0.8017578-0.3227539-1.2314453-0.3818359c-0.8544922-0.1181641-1.7597656,0.0556641-2.5048828,0.5185547
		c-0.3779297,0.2290039-0.7070312,0.5166016-0.9912109,0.8549805c-0.2753906,0.3413086-0.4990234,0.7255859-0.6582031,1.1376953
		c-0.3212891,0.8256836-0.3417969,1.7583008-0.0898438,2.612793c0.1279297,0.4287109,0.3330078,0.8291016,0.5966797,1.1943359
		c0.1318359,0.1923828,0.2783203,0.3422852,0.4335938,0.5107422l0.2509766,0.2255859
		c0.0800781,0.0766602,0.1777344,0.1352539,0.2666016,0.2050781c0.3671875,0.2578125,0.7705078,0.4726562,1.203125,0.6015625
		c0.4335938,0.1318359,0.8857422,0.1972656,1.3388672,0.1914062c0.4550781,0,0.9072266-0.0908203,1.3388672-0.2402344
		c0.4287109-0.1542969,0.8388672-0.359375,1.2011719-0.6533203c0.0986328-0.0664062,0.1738281-0.1464844,0.2587891-0.2197266
		c0.0820312-0.0698242,0.1708984-0.1547852,0.2451172-0.2421875c0.0761719-0.0859375,0.1572266-0.1679688,0.2275391-0.2578125
		l0.2050781-0.277832c0.2548828-0.3823242,0.4570312-0.8007812,0.59375-1.2441406
		c0.2539062-0.8867188,0.25-1.8588867-0.0625-2.7402344c-0.0693359-0.2241211-0.1757812-0.4326172-0.2763672-0.644043
		l-0.1787109-0.3027344c-0.0585938-0.1015625-0.1357422-0.1914062-0.203125-0.2885742
		c-0.1181641-0.1538086-0.2441406-0.3007812-0.3798828-0.4404297l0.5644531-0.5844727
		c0.0595703,0.0634766,0.1220703,0.1367188,0.1816406,0.199707c0.0849609,0.0922852,0.1689453,0.1850586,0.2353516,0.2841797
		l0.2167969,0.2929688c0.0644531,0.1030273,0.125,0.2094727,0.1875,0.3149414
		c0.0654297,0.1025391,0.1210938,0.2114258,0.1699219,0.3237305c0.4277344,0.8789062,0.5839844,1.8774414,0.4873047,2.8398438
		l-0.0517578,0.3598633c-0.0117188,0.121582-0.0527344,0.2358398-0.078125,0.3540039
		c-0.0458984,0.2402344-0.140625,0.4619141-0.2167969,0.6918945c-0.0488281,0.109375-0.1005859,0.2192383-0.1513672,0.3291016
		c-0.0458984,0.1108398-0.1044922,0.2167969-0.1689453,0.3193359c-0.0625,0.1030273-0.1191406,0.2099609-0.1865234,0.3095703
		l-0.2138672,0.2910156c-0.0673828,0.0991211-0.1503906,0.1875-0.2314453,0.2763672
		c-0.0800781,0.0859375-0.1611328,0.1845703-0.2412109,0.2617188c-0.1826172,0.1640625-0.359375,0.3369141-0.5537109,0.4667969
		c-0.1855469,0.1484375-0.3974609,0.2626953-0.6015625,0.3857422c-0.1064453,0.0556641-0.2177734,0.1015625-0.3251953,0.1533203
		c-0.1054688,0.0546875-0.2177734,0.0966797-0.3320312,0.1328125c-0.1132812,0.0371094-0.2226562,0.0859375-0.3388672,0.1123047
		l-0.3466797,0.0849609c-0.1162109,0.0273438-0.234375,0.0371094-0.3535156,0.0566406
		c-0.1171875,0.0205078-0.2353516,0.0322266-0.3544922,0.0351562c-0.4736328,0.0371094-0.9521484-0.0146484-1.4140625-0.1142578
		c-0.4648438-0.09375-0.9052734-0.2802734-1.3203125-0.5009766l-0.3037109-0.1796875
		c-0.0986328-0.0664062-0.1914062-0.1396484-0.2861328-0.2070312c-0.0986328-0.0673828-0.1894531-0.140625-0.2744141-0.2226562
		l-0.2578125-0.2333984c-0.3378906-0.3520508-0.609375-0.7172852-0.8359375-1.1313477
		c-0.2128906-0.4174805-0.3701172-0.859375-0.4648438-1.3173828c-0.0839844-0.4584961-0.1035156-0.9257812-0.0634766-1.3891602
		c0.0488281-0.4628906,0.1669922-0.9130859,0.3369141-1.34375c0.1787109-0.4277344,0.4238281-0.8232422,0.7070312-1.1865234
		l0.2314453-0.2563477c0.0732422-0.0893555,0.1542969-0.159668,0.2451172-0.2407227
		c0.0878906-0.0742188,0.1699219-0.1655273,0.2636719-0.2280273l0.2744141-0.2006836
		c0.3847656-0.25,0.8017578-0.4443359,1.2382812-0.5771484c0.4404297-0.125,0.8955078-0.1806641,1.3505859-0.1777344
		l0.3417969,0.015625l0.3359375,0.046875c0.1142578,0.0117188,0.2207031,0.046875,0.3320312,0.0722656
		s0.2207031,0.0517578,0.3261719,0.0917969c0.4345703,0.1357422,0.8359375,0.3525391,1.203125,0.6118164
		c0.1660156,0.1132812,0.3203125,0.2402344,0.4648438,0.3779297L74.9150391,69.7636719z M75.4824219,69.1245117
		c-0.1494141-0.1420898-0.3095703-0.2744141-0.4785156-0.3930664c-0.3837891-0.2705078-0.8037109-0.4970703-1.2548828-0.6381836
		c-0.1113281-0.0439453-0.2265625-0.0708008-0.3408203-0.097168c-0.1162109-0.0263672-0.2294922-0.0629883-0.3476562-0.0756836
		l-0.3505859-0.0493164l-0.3554688-0.0175781c-0.4746094-0.0043945-0.9492188,0.0532227-1.4091797,0.1835938
		c-0.4560547,0.1381836-0.8916016,0.3417969-1.2958984,0.6015625l-0.2929688,0.2158203
		c-0.1015625,0.0673828-0.1777344,0.1533203-0.2685547,0.2304688c-0.0830078,0.0751953-0.1806641,0.1586914-0.2568359,0.2519531
		l-0.2412109,0.2666016c-0.2958984,0.3779297-0.5527344,0.7900391-0.7392578,1.2358398
		c-0.1787109,0.4477539-0.3017578,0.9189453-0.3525391,1.4018555c-0.0439453,0.4824219-0.0234375,0.9707031,0.0615234,1.4501953
		c0.0996094,0.4775391,0.2626953,0.9394531,0.4863281,1.3740234c0.2304688,0.4287109,0.5351562,0.8349609,0.8632812,1.1757812
		c0.0957031,0.09375,0.1826172,0.1669922,0.2753906,0.2519531c0.0878906,0.0859375,0.1835938,0.1621094,0.2851562,0.2333984
		c0.0986328,0.0712891,0.1972656,0.1474609,0.2978516,0.2158203l0.3173828,0.1884766
		c0.4335938,0.2314453,0.8925781,0.4267578,1.3779297,0.5244141c0.4804688,0.1064453,0.9794922,0.1591797,1.4746094,0.1210938
		c0.1240234-0.0029297,0.2470703-0.0146484,0.3701172-0.0361328c0.1230469-0.0205078,0.2460938-0.0302734,0.3681641-0.0585938
		l0.3623047-0.0888672c0.1230469-0.0273438,0.2363281-0.078125,0.3554688-0.1152344
		c0.1181641-0.0390625,0.2353516-0.0820312,0.3466797-0.1386719c0.1123047-0.0546875,0.2275391-0.1025391,0.3378906-0.1601562
		c0.2148438-0.1279297,0.4345703-0.2451172,0.6337891-0.4042969c0.2128906-0.1445312,0.3857422-0.3154297,0.5683594-0.4785156
		c0.0976562-0.0927734,0.171875-0.1855469,0.2597656-0.2773438c0.0830078-0.0932617,0.1699219-0.1850586,0.2412109-0.2890625
		l0.2236328-0.3041992c0.0703125-0.1020508,0.1289062-0.2148438,0.1953125-0.3212891
		c0.0654297-0.1074219,0.1269531-0.2177734,0.1767578-0.3325195c0.0517578-0.1147461,0.1064453-0.2285156,0.1572266-0.3447266
		c0.0800781-0.2382812,0.1796875-0.4716797,0.2285156-0.7192383c0.0273438-0.1240234,0.0683594-0.2446289,0.0820312-0.3696289
		l0.0556641-0.3754883c0.1025391-1.0053711-0.0615234-2.0478516-0.5078125-2.9658203
		c-0.0517578-0.1176758-0.1074219-0.230957-0.1767578-0.3393555c-0.0644531-0.1103516-0.1279297-0.2207031-0.1953125-0.3295898
		l-0.2294922-0.3115234c-0.0732422-0.1088867-0.1582031-0.2011719-0.2431641-0.2915039
		c-0.0664062-0.0722656-0.1230469-0.1416016-0.1914062-0.2128906l0.6914062-0.7148438
		c0.0820312,0.0864258,0.171875,0.1743164,0.2460938,0.2636719c0.0859375,0.0996094,0.171875,0.1992188,0.2519531,0.3056641
		c0.0830078,0.1049805,0.1601562,0.2138672,0.2353516,0.3232422c0.3037109,0.4365234,0.5429688,0.9150391,0.7265625,1.4130859
		c0.3662109,0.9960938,0.4755859,2.0800781,0.3330078,3.1245117c-0.0742188,0.5219727-0.2119141,1.0327148-0.40625,1.5219727
		c-0.1953125,0.4868164-0.453125,0.9492188-0.7578125,1.3730469c-0.0771484,0.1054688-0.1582031,0.2089844-0.2402344,0.3115234
		c-0.0859375,0.0986328-0.1669922,0.2021484-0.2597656,0.2958984c-0.09375,0.0976562-0.1699219,0.1855469-0.2734375,0.2734375
		l-0.296875,0.2685547c-0.0966797,0.09375-0.2070312,0.1572266-0.3085938,0.2382812
		c-0.1064453,0.0742188-0.203125,0.1591797-0.3164062,0.2226562c-0.2265625,0.1298828-0.4414062,0.2773438-0.6835938,0.3779297
		c-0.1171875,0.0507812-0.2333984,0.1113281-0.3535156,0.1601562l-0.3691406,0.1289062
		c-0.1201172,0.0488281-0.2451172,0.0800781-0.3730469,0.1083984l-0.3779297,0.0917969l-0.3837891,0.0546875
		c-0.1289062,0.0244141-0.2578125,0.0361328-0.3867188,0.0390625l-0.3876953,0.0175781l-0.3867188-0.0175781
		c-0.1298828-0.0029297-0.2587891-0.0117188-0.3857422-0.0351562l-0.3837891-0.0546875
		c-0.1259766-0.0263672-0.2509766-0.0615234-0.3759766-0.0908203c-0.1269531-0.0292969-0.2519531-0.0576172-0.3720703-0.1054688
		L70.3974609,78.28125c-0.1210938-0.0439453-0.2353516-0.1064453-0.3515625-0.1582031
		c-0.2382812-0.0976562-0.4550781-0.2392578-0.6767578-0.3681641c-0.1142578-0.0605469-0.2109375-0.1445312-0.3164062-0.2177734
		c-0.1025391-0.078125-0.2089844-0.1494141-0.3076172-0.2314453l-0.2851562-0.2578125
		c-0.1015625-0.0878906-0.1845703-0.1660156-0.2705078-0.2695312l-0.2626953-0.2900391
		c-0.0810547-0.0986328-0.1523438-0.2021484-0.2275391-0.3037109c-0.1591797-0.1948242-0.2734375-0.4267578-0.4091797-0.6416016
		c-0.2255859-0.4550781-0.4296875-0.9262695-0.5332031-1.4257812c-0.03125-0.1225586-0.0625-0.2451172-0.0761719-0.3730469
		l-0.0546875-0.3769531c-0.0097656-0.1259766-0.0136719-0.2524414-0.0214844-0.3789062
		c-0.0087891-0.1264648-0.0117188-0.2539062-0.0019531-0.3798828l0.0185547-0.3789062l0.0527344-0.3754883
		c0.0136719-0.1259766,0.0390625-0.25,0.0732422-0.3720703l0.0888672-0.3681641l0.125-0.3564453
		c0.0380859-0.121582,0.0849609-0.2387695,0.1425781-0.3510742l0.1572266-0.3422852l0.1914062-0.3251953
		c0.0625-0.1108398,0.1289062-0.2167969,0.2070312-0.3154297l0.2236328-0.3032227
		c0.0771484-0.0976562,0.1669922-0.1884766,0.2490234-0.2817383c0.0908203-0.0961914,0.1582031-0.1850586,0.2578125-0.269043
		L68.6748047,68.3125c0.09375-0.0893555,0.1972656-0.1503906,0.2949219-0.2265625
		c0.1933594-0.1552734,0.4150391-0.2734375,0.6298828-0.4013672c0.1064453-0.0634766,0.2236328-0.1079102,0.3349609-0.1630859
		c0.1132812-0.0541992,0.2265625-0.1079102,0.3447266-0.144043l0.3525391-0.1254883
		c0.1201172-0.0307617,0.2412109-0.0576172,0.3623047-0.0898438c0.1201172-0.0332031,0.2421875-0.0546875,0.3662109-0.0693359
		c0.1220703-0.0161133,0.2451172-0.0380859,0.3681641-0.050293c0.2480469-0.0087891,0.4970703-0.0351562,0.7441406-0.0131836
		c0.9931641,0.0317383,1.9599609,0.3618164,2.7900391,0.8886719c0.1005859,0.0683594,0.1972656,0.1445312,0.2988281,0.2167969
		c0.0986328,0.0703125,0.1992188,0.1425781,0.2861328,0.2294922l0.171875,0.1542969L75.4824219,69.1245117z M76.1767578,68.3408203
		l-0.1738281-0.1572266c-0.0908203-0.0878906-0.1953125-0.1645508-0.2998047-0.2392578
		c-0.1025391-0.0761719-0.2041016-0.1542969-0.3115234-0.2255859c-0.8632812-0.5517578-1.8730469-0.8969727-2.9082031-0.9316406
		c-0.2578125-0.0224609-0.5166016,0.0029297-0.7753906,0.012207c-0.1298828,0.012207-0.2568359,0.0356445-0.3857422,0.0532227
		c-0.1298828,0.0146484-0.2568359,0.0371094-0.3818359,0.0722656c-0.1269531,0.0317383-0.2519531,0.0595703-0.3789062,0.09375
		l-0.3671875,0.128418c-0.125,0.0375977-0.2421875,0.09375-0.359375,0.1499023
		c-0.1191406,0.0566406-0.2402344,0.1054688-0.3535156,0.1694336c-0.2236328,0.1342773-0.4550781,0.2548828-0.6621094,0.4228516
		c-0.1035156,0.0786133-0.2197266,0.1513672-0.3125,0.2387695l-0.2841797,0.2558594
		c-0.0976562,0.0810547-0.1894531,0.1943359-0.2744141,0.2861328c-0.0869141,0.0976562-0.1787109,0.1914062-0.2597656,0.2929688
		l-0.234375,0.3173828c-0.0810547,0.1025391-0.1503906,0.2119141-0.2148438,0.3266602l-0.2001953,0.3393555l-0.1669922,0.3569336
		c-0.0585938,0.1186523-0.1103516,0.2397461-0.1484375,0.3657227l-0.1308594,0.3725586l-0.09375,0.3833008
		c-0.0361328,0.1279297-0.0625,0.2568359-0.0751953,0.3886719l-0.0556641,0.3901367l-0.0214844,0.3974609
		c-0.0097656,0.1323242-0.0058594,0.2636719,0.0019531,0.3959961c0.0078125,0.1328125,0.0107422,0.2646484,0.0214844,0.3959961
		l0.0566406,0.3935547c0.0136719,0.1313477,0.0458984,0.2602539,0.078125,0.3896484
		c0.1083984,0.5209961,0.3193359,1.0141602,0.5566406,1.4897461c0.1386719,0.2260742,0.2578125,0.4638672,0.4296875,0.6757812
		c0.0800781,0.1064453,0.15625,0.2207031,0.2421875,0.3232422l0.2607422,0.2900391
		c0.0830078,0.0996094,0.1884766,0.2011719,0.2861328,0.2841797l0.296875,0.2695312
		c0.1015625,0.0859375,0.2138672,0.1601562,0.3203125,0.2421875c0.109375,0.0761719,0.2109375,0.1650391,0.3300781,0.2265625
		c0.2304688,0.1367188,0.4550781,0.2832031,0.7050781,0.3867188c0.1220703,0.0537109,0.2402344,0.1171875,0.3662109,0.1640625
		l0.3818359,0.1337891c0.125,0.0488281,0.2558594,0.0791016,0.3867188,0.1103516s0.2607422,0.0664062,0.3925781,0.0947266
		l0.3994141,0.0576172c0.1328125,0.0234375,0.2666016,0.0332031,0.4023438,0.0371094l0.4052734,0.0185547l0.4033203-0.0185547
		c0.1357422-0.0019531,0.2695312-0.0136719,0.4052734-0.0380859l0.4003906-0.0566406l0.3945312-0.0957031
		c0.1328125-0.0302734,0.2636719-0.0634766,0.3886719-0.1132812l0.3867188-0.1337891
		c0.125-0.0517578,0.2460938-0.1113281,0.3710938-0.1689453c0.2509766-0.1025391,0.4765625-0.2578125,0.7128906-0.390625
		c0.1181641-0.0693359,0.2246094-0.1601562,0.3359375-0.2392578c0.1083984-0.0830078,0.2304688-0.15625,0.3251953-0.2490234
		l0.2978516-0.2675781c0.0986328-0.0849609,0.203125-0.1962891,0.2919922-0.2919922
		c0.0957031-0.0966797,0.1796875-0.203125,0.2705078-0.3066406c0.0849609-0.1064453,0.1689453-0.2128906,0.25-0.3242188
		c0.3203125-0.4428711,0.5888672-0.9243164,0.7949219-1.4326172c0.2021484-0.5092773,0.3466797-1.043457,0.4248047-1.5878906
		c0.1523438-1.090332,0.0380859-2.2207031-0.3427734-3.2617188c-0.1923828-0.5200195-0.4414062-1.0195312-0.7568359-1.4785156
		c-0.0800781-0.1132812-0.1591797-0.2280273-0.2451172-0.3364258c-0.0839844-0.1118164-0.1757812-0.2177734-0.2666016-0.324707
		c-0.0849609-0.1005859-0.1708984-0.1865234-0.2587891-0.2783203l0.8476562-0.8759766
		c0.2070312,0.2148438,0.3925781,0.4228516,0.5703125,0.6484375c0.3564453,0.4521484,0.6640625,0.9423828,0.9160156,1.4599609
		c0.5039062,1.0341797,0.7666016,2.1777344,0.7871094,3.3222656c0.0244141,1.1455078-0.2099609,2.2900391-0.6679688,3.3320312
		c-0.4560547,1.0429688-1.1367188,1.9794922-1.9882812,2.7363281c-0.8417969,0.7451172-1.8574219,1.3095703-2.9404297,1.6123047
		c-1.0830078,0.3066406-2.2314453,0.3710938-3.3349609,0.1796875c-1.1044922-0.1835938-2.1621094-0.6220703-3.0722656-1.2636719
		c-0.4550781-0.3203125-0.8720703-0.6884766-1.2509766-1.1025391c-0.3671875-0.4072266-0.6933594-0.8642578-0.9599609-1.3486328
		c-0.5390625-0.9648438-0.8349609-2.0576172-0.8837891-3.1582031c-0.0205078-0.5493164,0.0185547-1.1000977,0.1201172-1.6396484
		c0.0996094-0.5410156,0.265625-1.0664062,0.4882812-1.5668945c0.4355469-1.003418,1.1191406-1.8916016,1.9492188-2.5922852
		c0.8349609-0.6933594,1.8369141-1.1865234,2.8925781-1.4130859c0.5273438-0.1171875,1.0683594-0.1708984,1.6074219-0.1557617
		c0.5390625,0.0102539,1.0761719,0.0830078,1.59375,0.222168c1.0429688,0.2695312,2.0078125,0.796875,2.8046875,1.5083008
		c0.0371094,0.0341797,0.0742188,0.0688477,0.109375,0.1025391L76.1767578,68.3408203z M77.0341797,67.3759766
		c-0.0361328-0.034668-0.0722656-0.0693359-0.1103516-0.1030273c-0.8291016-0.7426758-1.8369141-1.2954102-2.9228516-1.5776367
		c-0.5410156-0.1464844-1.1005859-0.2246094-1.6621094-0.2353516c-0.5634766-0.0146484-1.1279297,0.0390625-1.6796875,0.1611328
		c-1.1035156,0.2348633-2.1494141,0.7470703-3.0234375,1.4741211c-0.8681641,0.7280273-1.5820312,1.6533203-2.0400391,2.7006836
		c-0.2304688,0.5209961-0.4052734,1.0698242-0.5126953,1.6342773c-0.1035156,0.5610352-0.1464844,1.137207-0.125,1.7109375
		c0.0488281,1.1474609,0.3554688,2.2895508,0.9169922,3.3012695c0.28125,0.5068359,0.6132812,0.9785156,1.0078125,1.4160156
		c0.3837891,0.4228516,0.8251953,0.8134766,1.296875,1.1455078c0.9492188,0.6708984,2.0517578,1.1308594,3.2050781,1.3242188
		c1.1513672,0.1992188,2.3505859,0.1357422,3.4824219-0.1835938c1.1337891-0.3154297,2.1884766-0.8974609,3.0800781-1.6855469
		c0.8808594-0.7773438,1.5976562-1.7607422,2.0742188-2.847168c0.4775391-1.0874023,0.7236328-2.2822266,0.7001953-3.4760742
		c-0.0185547-1.1948242-0.2919922-2.3911133-0.8183594-3.4736328c-0.2597656-0.5390625-0.5664062-1.0688477-0.9384766-1.5405273
		c-0.1855469-0.237793-0.375-0.4858398-0.5800781-0.6918945c-0.0029297-0.0019531-0.0048828-0.0048828-0.0068359-0.0068359
		l1.0214844-1.0585938c0.4648438,0.4755859,0.8710938,1.0068359,1.2304688,1.5634766
		c0.6738281,1.0419922,1.1425781,2.2119141,1.375,3.4272461c0.2363281,1.2128906,0.2373047,2.4702148,0.0078125,3.6796875
		c-0.2304688,1.2094727-0.6894531,2.3725586-1.3486328,3.4047852c-0.3291016,0.5166016-0.7080078,1.0029297-1.1259766,1.4482422
		c-0.109375,0.1142578-0.2011719,0.21875-0.3183594,0.3251953c-0.1142578,0.1044922-0.2265625,0.2207031-0.3408203,0.3154297
		c-0.2255859,0.1972656-0.4658203,0.3886719-0.7128906,0.5664062c-0.9902344,0.7119141-2.1210938,1.2207031-3.3037109,1.4931641
		c-1.1835938,0.2724609-2.4179688,0.3095703-3.6103516,0.1123047c-1.1923828-0.1962891-2.3427734-0.6289062-3.3652344-1.2636719
		c-0.5107422-0.3164062-0.9912109-0.6855469-1.4306641-1.09375c-0.109375-0.109375-0.2148438-0.1962891-0.3193359-0.3125
		c-0.1025391-0.1113281-0.2177734-0.2197266-0.3095703-0.3330078c-0.1953125-0.2226562-0.3828125-0.4570312-0.5566406-0.7001953
		c-0.6953125-0.9736328-1.1855469-2.0893555-1.4365234-3.2543945c-0.2509766-1.1640625-0.2636719-2.3774414-0.0371094-3.5424805
		c0.2255859-1.1655273,0.6904297-2.2792969,1.3544922-3.2558594c0.3300781-0.4873047,0.7138672-0.9433594,1.1308594-1.3515625
		c0.21875-0.2143555,0.4335938-0.4038086,0.6640625-0.5854492c0.1162109-0.0893555,0.2304688-0.184082,0.3515625-0.2641602
		c0.1201172-0.0844727,0.2402344-0.1699219,0.3662109-0.2451172c0.9912109-0.628418,2.1152344-1.0410156,3.2705078-1.2070312
		c1.1582031-0.1640625,2.3457031-0.0844727,3.4648438,0.2285156c1.1191406,0.3115234,2.1699219,0.862793,3.0585938,1.6025391
		c0.109375,0.0957031,0.2226562,0.1855469,0.3261719,0.2856445c0.0195312,0.0185547,0.0400391,0.0366211,0.0595703,0.0556641
		L77.0341797,67.3759766z M78.0830078,66.1933594c-0.0175781-0.0170898-0.0361328-0.0332031-0.0546875-0.0507812
		c-0.1074219-0.1040039-0.2255859-0.1982422-0.3398438-0.2978516c-0.9277344-0.7734375-2.0205078-1.3505859-3.1914062-1.6777344
		c-1.1679688-0.3291016-2.40625-0.4125977-3.6152344-0.2441406c-1.2070312,0.1733398-2.3808594,0.6025391-3.4179688,1.2573242
		c-0.1318359,0.0786133-0.2578125,0.1674805-0.3828125,0.2553711c-0.1289062,0.0854492-0.2460938,0.1826172-0.3691406,0.2758789
		c-0.2421875,0.1894531-0.4785156,0.4003906-0.6904297,0.6054688c-0.4433594,0.4326172-0.8378906,0.902832-1.1845703,1.4130859
		c-0.6953125,1.0170898-1.1816406,2.1806641-1.4199219,3.3959961c-0.2373047,1.2158203-0.2265625,2.4824219,0.0332031,3.6992188
		c0.2597656,1.2158203,0.7714844,2.3837891,1.4970703,3.4023438c0.1826172,0.2539062,0.375,0.4990234,0.5849609,0.7373047
		c0.1035156,0.1240234,0.2099609,0.2265625,0.3144531,0.3408203c0.1015625,0.1113281,0.2304688,0.2236328,0.3378906,0.3300781
		c0.4580078,0.4267578,0.9580078,0.8105469,1.4902344,1.1425781c1.0654297,0.6640625,2.2666016,1.1181641,3.5107422,1.3242188
		c1.2451172,0.2089844,2.5332031,0.171875,3.7685547-0.1123047c1.2373047-0.28125,2.4189453-0.8134766,3.4560547-1.5546875
		c0.2587891-0.1855469,0.5068359-0.3828125,0.7509766-0.5976562c0.1259766-0.1044922,0.2324219-0.2138672,0.3476562-0.3203125
		c0.1132812-0.1025391,0.2294922-0.2304688,0.3359375-0.3417969c0.4375-0.4648438,0.8320312-0.9716797,1.1757812-1.5097656
		c0.6894531-1.0761719,1.171875-2.2895508,1.4121094-3.5517578c0.2431641-1.262207,0.2431641-2.5727539,0-3.8413086
		C82.1904297,69.0048828,81.703125,67.78125,81,66.6904297c-0.3779297-0.5869141-0.8183594-1.1303711-1.3056641-1.6289062
		l1.2753906-1.3193359c0.0722656,0.0751953,0.1445312,0.1474609,0.2148438,0.2236328
		c0.1220703,0.1230469,0.2265625,0.2485352,0.3339844,0.3725586c0.1074219,0.1245117,0.2158203,0.2475586,0.3144531,0.3823242
		c0.1005859,0.1328125,0.2089844,0.2597656,0.3027344,0.3969727l0.2841797,0.4086914
		c0.7265625,1.1113281,1.2822266,2.3364258,1.6054688,3.6210938c0.6591797,2.5678711,0.4433594,5.3452148-0.6152344,7.7558594
		c-1.0410156,2.4169922-2.9052734,4.46875-5.2119141,5.6972656c-1.1523438,0.6123047-2.4101562,1.0253906-3.6972656,1.2158203
		c-1.2890625,0.1845703-2.6064453,0.1494141-3.8789062-0.1005859c-1.2734375-0.25-2.4970703-0.7275391-3.6083984-1.3857422
		c-0.5576172-0.328125-1.078125-0.7138672-1.5683594-1.1328125c-0.1230469-0.1044922-0.2460938-0.2099609-0.359375-0.3232422
		c-0.1162109-0.1103516-0.2421875-0.2207031-0.3466797-0.3330078l-0.3378906-0.3574219l-0.3105469-0.3623047
		c-0.8173828-0.9941406-1.4541016-2.1318359-1.8720703-3.34375c-0.4189453-1.2119141-0.609375-2.4980469-0.5810547-3.7763672
		c0.03125-1.2753906,0.2802734-2.546875,0.7539062-3.7285156c0.4697266-1.1835938,1.1484375-2.2788086,1.9941406-3.2250977
		c0.4238281-0.4702148,0.8935547-0.9101562,1.3867188-1.2924805c0.5-0.3886719,1.0341797-0.7294922,1.59375-1.0180664
		c1.1230469-0.5800781,2.3505859-0.9438477,3.6005859-1.074707c1.2509766-0.1328125,2.5214844-0.0351562,3.7324219,0.2861328
		c1.2099609,0.3208008,2.3613281,0.8603516,3.3701172,1.59375c0.3525391,0.2558594,0.6875,0.5371094,1.0058594,0.8339844
		L78.0830078,66.1933594z M79.3691406,64.7441406c-0.3271484-0.3066406-0.6748047-0.5966797-1.0400391-0.8632812
		c-1.0507812-0.7666016-2.2509766-1.3310547-3.5136719-1.6689453c-1.2636719-0.3364258-2.5898438-0.4404297-3.8964844-0.3041992
		c-1.3046875,0.1352539-2.5888672,0.5136719-3.7626953,1.1186523c-0.5869141,0.3007812-1.1455078,0.6567383-1.6669922,1.0615234
		c-0.5283203,0.4086914-1.0058594,0.8574219-1.4511719,1.3476562c-0.8828125,0.9853516-1.5927734,2.128418-2.0859375,3.362793
		c-0.4951172,1.2329102-0.7578125,2.5600586-0.7929688,3.8930664c-0.0322266,1.3330078,0.1650391,2.6757812,0.6015625,3.9443359
		c0.4355469,1.265625,1.0996094,2.4560547,1.9511719,3.4980469l0.3320312,0.3857422l0.3398438,0.3603516
		c0.1210938,0.1279297,0.2441406,0.234375,0.3652344,0.3535156c0.1191406,0.1181641,0.2460938,0.2285156,0.375,0.3369141
		c0.5117188,0.4384766,1.0556641,0.8398438,1.6347656,1.1845703c1.1601562,0.6894531,2.4375,1.1875,3.765625,1.4541016
		c1.328125,0.2607422,2.703125,0.3007812,4.0488281,0.1083984c1.3457031-0.1962891,2.6582031-0.6259766,3.8671875-1.2636719
		c2.4121094-1.2851562,4.3574219-3.4179688,5.4501953-5.9404297c1.1083984-2.5175781,1.3398438-5.4155273,0.6533203-8.097168
		c-0.3359375-1.3447266-0.9140625-2.625-1.6708984-3.7885742l-0.2988281-0.4272461
		c-0.0986328-0.1430664-0.2099609-0.2768555-0.3144531-0.4160156c-0.1025391-0.1391602-0.2177734-0.2719727-0.3339844-0.4038086
		c-0.1132812-0.1337891-0.2285156-0.2695312-0.3466797-0.3886719c-0.0742188-0.0830078-0.1542969-0.1611328-0.2304688-0.2412109
		l1.5625-1.6166992c0.3515625,0.3564453,0.6845703,0.7290039,0.9970703,1.1162109l0.3251953,0.4194336
		c0.1074219,0.1396484,0.203125,0.2880859,0.3056641,0.4306641c0.1025391,0.1445312,0.2021484,0.2910156,0.2929688,0.4414062
		c0.0927734,0.1503906,0.1894531,0.2983398,0.2783203,0.449707c0.3554688,0.6103516,0.6640625,1.2446289,0.9365234,1.894043
		c0.2587891,0.6552734,0.4794922,1.3251953,0.6513672,2.0068359c0.1621094,0.6855469,0.2851562,1.3789062,0.3564453,2.0791016
		c0.2822266,2.7993164-0.2587891,5.6679688-1.5371094,8.1572266c-0.3251953,0.6181641-0.6757812,1.2275391-1.0878906,1.7910156
		c-0.0966797,0.1455078-0.2011719,0.2841797-0.3115234,0.421875c-0.1074219,0.1376953-0.2099609,0.2783203-0.3212891,0.4130859
		c-0.2294922,0.2636719-0.4501953,0.5341797-0.6953125,0.7822266c-0.1210938,0.1220703-0.2392578,0.2617188-0.3613281,0.3720703
		l-0.3867188,0.3681641c-0.1298828,0.1220703-0.2617188,0.2265625-0.3916016,0.3408203
		c-0.1289062,0.1152344-0.2617188,0.2246094-0.4023438,0.328125c-0.5429688,0.4355469-1.1279297,0.8183594-1.7294922,1.1640625
		c-2.4179688,1.3769531-5.2480469,1.9902344-8.0068359,1.7675781c-1.3789062-0.1083984-2.7392578-0.4277344-4.0234375-0.9316406
		c-0.640625-0.2597656-1.265625-0.5517578-1.8613281-0.8994141c-0.5917969-0.3525391-1.1679688-0.7314453-1.703125-1.1660156
		c-0.1386719-0.1015625-0.2636719-0.2207031-0.3964844-0.3300781c-0.1289062-0.1123047-0.2626953-0.2216797-0.3847656-0.3427734
		l-0.3740234-0.3544922l-0.3574219-0.375c-0.1259766-0.1269531-0.2333984-0.2558594-0.3447266-0.3857422
		c-0.1083984-0.1289062-0.2226562-0.2529297-0.3251953-0.3925781l-0.3154297-0.40625l-0.2939453-0.421875
		c-0.3798828-0.5683594-0.7255859-1.1640625-1.0166016-1.7841797c-0.2871094-0.6220703-0.5283203-1.2617188-0.7226562-1.9169922
		c-0.765625-2.6279297-0.6953125-5.480957,0.1923828-8.0537109c0.2246094-0.6416016,0.4951172-1.2675781,0.8085938-1.8696289
		c0.3193359-0.6000977,0.6865234-1.1713867,1.0869141-1.7182617c0.4013672-0.5449219,0.859375-1.0551758,1.3291016-1.5283203
		l0.3759766-0.3574219c0.1269531-0.1142578,0.2539062-0.2192383,0.3808594-0.3295898
		c0.1230469-0.1103516,0.2597656-0.2124023,0.3925781-0.315918c0.1328125-0.1044922,0.265625-0.2084961,0.40625-0.3027344
		c0.546875-0.3955078,1.1308594-0.7402344,1.7363281-1.0351562c0.6054688-0.2954102,1.2314453-0.5527344,1.8769531-0.7441406
		c1.2890625-0.3881836,2.6367188-0.5800781,3.9794922-0.543457c1.3427734,0.0258789,2.6767578,0.2792969,3.9384766,0.7231445
		c0.6328125,0.2216797,1.2402344,0.5029297,1.828125,0.8217773c0.1445312,0.0839844,0.2949219,0.1577148,0.4355469,0.2485352
		l0.4257812,0.265625c0.2724609,0.1899414,0.5507812,0.3759766,0.8105469,0.5864258
		c0.3056641,0.237793,0.5996094,0.4882812,0.8818359,0.7529297L79.3691406,64.7441406z M80.9521484,62.9628906
		c-0.2919922-0.2724609-0.5957031-0.5322266-0.9082031-0.777832c-0.2705078-0.2182617-0.5595703-0.4135742-0.8457031-0.6123047
		l-0.4433594-0.2783203c-0.1464844-0.0942383-0.3027344-0.171875-0.4541016-0.2592773
		c-0.6113281-0.3349609-1.2470703-0.6289062-1.9072266-0.8603516c-1.3164062-0.4648438-2.7089844-0.7329102-4.1103516-0.7617188
		c-1.4013672-0.0395508-2.8095703,0.1582031-4.1572266,0.5615234c-0.6748047,0.2006836-1.3300781,0.4667969-1.9628906,0.7744141
		c-0.6337891,0.3100586-1.2441406,0.6679688-1.8164062,1.0800781c-0.1474609,0.0986328-0.2861328,0.2080078-0.4257812,0.3154297
		c-0.140625,0.1098633-0.28125,0.2138672-0.4140625,0.3339844c-0.1347656,0.1157227-0.2734375,0.2324219-0.4042969,0.3491211
		l-0.3769531,0.3569336c-0.1357422,0.128418-0.2470703,0.2563477-0.3720703,0.3837891
		c-0.1220703,0.1269531-0.2431641,0.2563477-0.3564453,0.3920898s-0.2314453,0.2661133-0.3417969,0.4052734l-0.3251953,0.418457
		c-0.4199219,0.5693359-0.8046875,1.1669922-1.1367188,1.7919922c-0.328125,0.6289062-0.6123047,1.2797852-0.8486328,1.9501953
		c-0.9296875,2.6850586-1.0078125,5.6635742-0.2128906,8.4091797c0.203125,0.6855469,0.4550781,1.3564453,0.7539062,2.0058594
		c0.3037109,0.6484375,0.6621094,1.2705078,1.0595703,1.8681641l0.3076172,0.4414062l0.328125,0.4248047
		c0.1054688,0.1435547,0.2285156,0.2783203,0.3457031,0.4160156c0.1191406,0.1376953,0.2353516,0.2783203,0.3574219,0.4013672
		l0.3691406,0.3867188l0.3886719,0.3710938c0.1269531,0.1279297,0.2675781,0.2412109,0.4023438,0.3574219
		c0.1386719,0.1152344,0.2675781,0.2402344,0.4130859,0.3457031c0.5576172,0.4541016,1.1572266,0.8515625,1.7753906,1.2207031
		c0.6201172,0.3632812,1.2744141,0.6708984,1.9404297,0.9414062c1.3398438,0.5292969,2.7597656,0.8623047,4.2001953,0.9765625
		c2.8798828,0.2382812,5.8369141-0.3974609,8.3681641-1.8339844c0.6308594-0.3603516,1.2421875-0.7587891,1.8105469-1.2138672
		c0.1445312-0.1083984,0.2861328-0.2236328,0.4238281-0.3466797c0.1386719-0.1201172,0.2851562-0.2382812,0.4160156-0.3613281
		l0.3867188-0.3671875c0.1425781-0.1308594,0.2558594-0.2636719,0.3847656-0.3945312
		c0.2558594-0.2578125,0.4882812-0.5390625,0.7265625-0.8164062c0.1171875-0.1386719,0.2246094-0.2861328,0.3378906-0.4296875
		c0.1132812-0.1425781,0.2226562-0.2890625,0.3242188-0.4384766c0.4296875-0.5898438,0.796875-1.2226562,1.1367188-1.8681641
		c1.3398438-2.5966797,1.9082031-5.5922852,1.6181641-8.515625c-0.0732422-0.7319336-0.2001953-1.4560547-0.3701172-2.1713867
		c-0.1777344-0.7133789-0.40625-1.4140625-0.6757812-2.0981445c-0.2841797-0.6796875-0.6074219-1.34375-0.9765625-1.9814453
		c-0.09375-0.159668-0.1943359-0.3134766-0.2919922-0.4707031c-0.09375-0.1591797-0.1962891-0.3115234-0.3037109-0.4614258
		c-0.1074219-0.1508789-0.2080078-0.3046875-0.3203125-0.4516602l-0.3378906-0.4379883
		c-0.3310547-0.4121094-0.6835938-0.8046875-1.0527344-1.1826172l1.9228516-1.9882812
		c0.0126953,0.0141602,0.0253906,0.0273438,0.0390625,0.0415039l0.3925781,0.4121094
		c0.1357422,0.1362305,0.2431641,0.2783203,0.3662109,0.4155273c0.1171875,0.140625,0.2402344,0.2763672,0.3564453,0.4199219
		l0.3408203,0.4399414c0.9052734,1.1738281,1.6455078,2.4702148,2.2285156,3.8291016
		c0.5888672,1.3583984,0.9863281,2.7944336,1.2226562,4.2529297c0.0341797,0.1821289,0.0566406,0.3642578,0.0771484,0.5483398
		l0.0673828,0.550293l0.0390625,0.5532227c0.015625,0.1831055,0.0273438,0.3671875,0.0273438,0.5537109l0.0146484,0.5527344
		c0.0009766,0.1855469-0.0068359,0.3696289-0.0107422,0.5546875c0,0.3686523-0.0351562,0.7368164-0.0595703,1.1040039
		c-0.1259766,1.4716797-0.4443359,2.921875-0.9169922,4.3183594c-0.4814453,1.3916016-1.1376953,2.7197266-1.9355469,3.9560547
		c-0.8046875,1.2333984-1.7626953,2.3554688-2.8388672,3.3662109c-0.1357422,0.1337891-0.2724609,0.25-0.4121094,0.3671875
		l-0.4121094,0.3535156l-0.4345703,0.3378906c-0.1445312,0.1142578-0.2890625,0.2246094-0.4414062,0.3271484l-0.4501953,0.3154297
		c-0.1513672,0.1015625-0.3095703,0.1953125-0.4638672,0.2929688c-0.3066406,0.203125-0.6308594,0.3710938-0.9492188,0.5517578
		c-0.1582031,0.0917969-0.3271484,0.1660156-0.4892578,0.2490234c-0.1650391,0.078125-0.3251953,0.1689453-0.4951172,0.2382812
		c-0.3359375,0.1445312-0.6689453,0.2978516-1.0136719,0.4199219c-0.6826172,0.2675781-1.3867188,0.4707031-2.0957031,0.6464844
		c-1.4228516,0.3320312-2.8867188,0.5019531-4.3466797,0.4628906c-0.7304688-0.0039062-1.4580078-0.0820312-2.1796875-0.1777344
		c-0.359375-0.0644531-0.7216797-0.1132812-1.0751953-0.1982422c-0.1777344-0.0400391-0.3564453-0.0742188-0.5341797-0.1191406
		l-0.5283203-0.1425781c-0.1767578-0.0439453-0.3486328-0.1015625-0.5224609-0.1591797
		c-0.1728516-0.0556641-0.3466797-0.1074219-0.5185547-0.1679688l-0.5126953-0.1923828
		c-0.1708984-0.0595703-0.3378906-0.1318359-0.5039062-0.2060547l-0.5009766-0.2177734l-0.4902344-0.2412109
		c-0.1640625-0.0791016-0.3242188-0.1621094-0.4814453-0.2539062l-0.4775391-0.2646484
		c-1.2529297-0.7402344-2.4082031-1.6386719-3.4404297-2.6591797c-2.0478516-2.0546875-3.5595703-4.6416016-4.2666016-7.4482422
		c-0.71875-2.7973633-0.6953125-5.7841797,0.1015625-8.5537109c0.0429688-0.1738281,0.1035156-0.34375,0.15625-0.515625
		c0.0585938-0.1699219,0.1054688-0.3442383,0.171875-0.5126953c0.1259766-0.3359375,0.2480469-0.6738281,0.3984375-1.0019531
		c0.1347656-0.3325195,0.3017578-0.6508789,0.4589844-0.9736328c0.078125-0.1630859,0.171875-0.3154297,0.2578125-0.4746094
		c0.0878906-0.1552734,0.1689453-0.315918,0.2685547-0.4658203c0.7451172-1.2265625,1.6435547-2.3642578,2.6826172-3.3505859
		c0.1328125-0.1230469,0.2646484-0.2587891,0.3994141-0.3725586l0.4033203-0.3461914
		c0.1298828-0.1191406,0.2773438-0.2236328,0.4160156-0.3349609c0.1445312-0.1069336,0.2792969-0.2241211,0.4277344-0.3227539
		l0.4404297-0.3066406c0.1445312-0.1049805,0.3017578-0.1918945,0.4521484-0.2900391
		c0.2978516-0.1967773,0.6171875-0.3598633,0.9267578-0.5366211c0.1582031-0.0820312,0.3193359-0.1591797,0.4794922-0.2397461
		c0.1582031-0.0820312,0.3203125-0.1567383,0.4863281-0.2250977c0.1640625-0.0693359,0.3251953-0.1450195,0.4921875-0.2099609
		l0.5-0.1904297c0.6738281-0.2358398,1.3574219-0.4453125,2.0566406-0.5854492
		c2.7910156-0.5932617,5.7373047-0.3964844,8.4140625,0.5546875c2.0009766,0.7041016,3.8388672,1.8408203,5.3808594,3.2851562
		L80.9521484,62.9628906z M82.8916016,60.7744141c-1.6035156-1.5039062-3.5136719-2.6865234-5.5976562-3.4233398
		c-2.7929688-0.9975586-5.8681641-1.2075195-8.7851562-0.5913086c-0.7304688,0.1450195-1.4462891,0.3623047-2.1503906,0.6083984
		l-0.5234375,0.1972656c-0.1738281,0.0683594-0.34375,0.1469727-0.5146484,0.2192383
		c-0.1728516,0.0732422-0.3427734,0.1494141-0.5078125,0.2348633c-0.1669922,0.0834961-0.3359375,0.1640625-0.5019531,0.25
		c-0.3242188,0.1835938-0.6572266,0.3549805-0.9707031,0.5600586c-0.1572266,0.1005859-0.3193359,0.1933594-0.4726562,0.3012695
		l-0.4599609,0.3208008c-0.15625,0.1035156-0.2988281,0.2255859-0.4492188,0.3374023
		c-0.1464844,0.1157227-0.296875,0.2246094-0.4394531,0.3505859l-0.4296875,0.3696289
		c-0.1435547,0.1235352-0.2675781,0.2519531-0.4042969,0.3779297c-1.0888672,1.0302734-2.0234375,2.2128906-2.8056641,3.4936523
		c-0.1025391,0.1557617-0.1884766,0.3232422-0.28125,0.4863281c-0.0888672,0.1640625-0.1875,0.324707-0.2695312,0.4931641
		c-0.1660156,0.3359375-0.3388672,0.6694336-0.4814453,1.0170898c-0.15625,0.3422852-0.2851562,0.6938477-0.4179688,1.046875
		c-0.0683594,0.1743164-0.1181641,0.355957-0.1777344,0.5332031c-0.0566406,0.1791992-0.1210938,0.3554688-0.1650391,0.5390625
		C55.25,71.3867188,55.21875,74.5039062,55.9677734,77.4287109c0.7353516,2.9326172,2.3095703,5.6435547,4.4472656,7.7910156
		c1.0751953,1.0664062,2.2802734,2.0048828,3.5869141,2.7792969L64.5,88.2783203
		c0.1630859,0.09375,0.3320312,0.1816406,0.5048828,0.2646484l0.5097656,0.2529297l0.5214844,0.2265625
		c0.1748047,0.078125,0.3476562,0.1523438,0.5283203,0.2177734l0.5322266,0.2011719
		c0.1796875,0.0625,0.3623047,0.1181641,0.5429688,0.1767578c0.1806641,0.0605469,0.3613281,0.1191406,0.5458984,0.1660156
		l0.5507812,0.1484375c0.1835938,0.046875,0.3701172,0.0839844,0.5566406,0.1269531
		c0.3701172,0.0898438,0.7480469,0.1416016,1.1220703,0.2070312c0.7539062,0.1025391,1.5136719,0.1835938,2.2773438,0.1914062
		c1.5234375,0.0419922,3.0507812-0.1337891,4.5390625-0.4785156c0.7421875-0.1816406,1.4775391-0.3945312,2.1904297-0.671875
		c0.3603516-0.1289062,0.7099609-0.2861328,1.0615234-0.4375c0.1767578-0.0732422,0.3447266-0.1660156,0.5175781-0.2480469
		c0.1699219-0.0878906,0.3447266-0.1640625,0.5107422-0.2597656c0.3349609-0.1875,0.6738281-0.3652344,0.9951172-0.5751953
		c0.1611328-0.1035156,0.3261719-0.2001953,0.484375-0.3085938l0.4716797-0.3271484
		c0.1591797-0.1064453,0.3115234-0.2216797,0.4619141-0.3417969l0.4550781-0.3515625l0.4414062-0.3789062
		c0.1474609-0.125,0.296875-0.2519531,0.4277344-0.3808594c1.1132812-1.0410156,2.1210938-2.2177734,2.9609375-3.5019531
		c0.8339844-1.2871094,1.5214844-2.6738281,2.0273438-4.1289062c0.4941406-1.4550781,0.8300781-2.96875,0.9628906-4.5048828
		c0.0273438-0.3842773,0.0634766-0.7685547,0.0644531-1.1542969c0.0039062-0.1923828,0.0126953-0.3852539,0.0117188-0.578125
		l-0.0146484-0.5786133c-0.0009766-0.1928711-0.0117188-0.3857422-0.0283203-0.5776367l-0.0410156-0.5766602l-0.0683594-0.5751953
		c-0.0214844-0.1928711-0.0429688-0.3828125-0.0800781-0.5737305c-0.2431641-1.5229492-0.65625-3.0253906-1.2714844-4.4467773
		c-0.6064453-1.4213867-1.3789062-2.777832-2.3242188-4.0063477l-0.3554688-0.4594727
		c-0.1220703-0.1523438-0.2529297-0.2988281-0.3798828-0.4487305c-0.1269531-0.1445312-0.2529297-0.3041992-0.3837891-0.4370117
		L85.9375,58.7373047c-0.0195312-0.0219727-0.0419922-0.0439453-0.0625-0.0654297l2.3554688-2.4370117
		c0.0078125,0.0083008,0.0136719,0.0141602,0.0224609,0.0229492l0.4042969,0.4248047
		c0.1376953,0.1416016,0.2695312,0.2832031,0.3886719,0.4282227l0.3691406,0.4306641
		c0.1259766,0.1401367,0.2460938,0.2861328,0.3613281,0.4414062l0.3515625,0.4536133
		c0.1191406,0.1479492,0.2304688,0.3037109,0.3388672,0.4619141c0.2158203,0.3154297,0.4462891,0.6210938,0.6416016,0.9506836
		c1.6464844,2.5776367,2.7441406,5.5004883,3.2109375,8.5205078c0.4736328,3.0209961,0.296875,6.137207-0.484375,9.0844727
		c-0.7792969,2.9511719-2.1777344,5.7333984-4.0820312,8.1152344c-0.1123047,0.1523438-0.2382812,0.2958984-0.3623047,0.4404297
		l-0.3720703,0.4335938c-0.1210938,0.1474609-0.2548828,0.2822266-0.3867188,0.4228516l-0.3925781,0.4130859
		c-0.1279297,0.1416016-0.2558594,0.2568359-0.4033203,0.3984375l-0.4228516,0.4023438
		c-0.1396484,0.1396484-0.2841797,0.2509766-0.4257812,0.3759766l-0.4277344,0.3681641
		c-1.1699219,0.9707031-2.4560547,1.8027344-3.8085938,2.4912109c-1.3554688,0.6894531-2.7832031,1.2294922-4.2539062,1.6113281
		c-0.1816406,0.0527344-0.3671875,0.0976562-0.5527344,0.1357422l-0.5566406,0.1220703
		c-0.1835938,0.0449219-0.3730469,0.0683594-0.5595703,0.1015625l-0.5615234,0.0957031
		c-0.3769531,0.046875-0.7529297,0.0966797-1.1308594,0.1347656l-0.5664062,0.0400391
		C74.3798828,93.5712891,74.1904297,93.5869141,74,93.5869141c-1.5166016,0.0546875-3.0380859-0.0507812-4.5302734-0.3164062
		c-1.4941406-0.265625-2.9580078-0.6894531-4.3544922-1.2753906c-1.3974609-0.5830078-2.7314453-1.3154297-3.9716797-2.1835938
		c-1.2412109-0.8691406-2.3808594-1.8642578-3.4179688-2.9824219c-0.1386719-0.1386719-0.2529297-0.2822266-0.3759766-0.4228516
		l-0.3652344-0.4248047c-0.234375-0.2949219-0.4658203-0.59375-0.6933594-0.8935547l-0.3251953-0.4648438
		c-0.1054688-0.1552734-0.21875-0.3056641-0.3164062-0.4697266l-0.2988281-0.4785156
		c-0.1035156-0.1582031-0.1953125-0.3232422-0.2871094-0.4882812c-0.7451172-1.3105469-1.3427734-2.7060547-1.7783203-4.1484375
		c-0.4296875-1.4453125-0.6923828-2.9384766-0.7919922-4.4404297c-0.0351562-0.3745117-0.0292969-0.7514648-0.0439453-1.1269531
		c-0.0087891-0.1884766,0.0029297-0.3764648,0.0048828-0.5644531l0.0136719-0.5654297l0.0410156-0.5634766
		c0.0136719-0.1865234,0.0195312-0.3745117,0.0478516-0.5620117c0.0478516-0.3725586,0.078125-0.7475586,0.1494141-1.1181641
		c0.2402344-1.4848633,0.6425781-2.9428711,1.2050781-4.3354492c0.5683594-1.390625,1.2929688-2.7163086,2.1542969-3.9448242
		c0.109375-0.152832,0.2080078-0.3129883,0.3261719-0.4594727l0.3447266-0.4443359
		c0.1142578-0.1503906,0.2294922-0.2973633,0.3544922-0.4375l0.3671875-0.4267578
		c0.1181641-0.1445312,0.2509766-0.2783203,0.3798828-0.4145508l0.3876953-0.4086914
		c0.1113281-0.1210938,0.2695312-0.2607422,0.4013672-0.390625c0.1396484-0.1308594,0.2773438-0.2661133,0.4169922-0.3930664
		l0.421875-0.3618164c0.140625-0.1201172,0.2773438-0.2436523,0.4287109-0.3554688
		c0.296875-0.2265625,0.5849609-0.4667969,0.8974609-0.6733398l0.4609375-0.3212891
		c0.15625-0.1015625,0.3154297-0.1992188,0.4726562-0.2988281c0.3134766-0.2060547,0.6425781-0.3813477,0.96875-0.5649414
		c1.3105469-0.722168,2.7167969-1.2626953,4.1582031-1.6484375c0.3583984-0.1064453,0.7255859-0.1748047,1.0898438-0.2583008
		c0.1816406-0.0439453,0.3662109-0.0678711,0.5498047-0.1000977c0.1845703-0.0317383,0.3681641-0.0649414,0.5517578-0.0922852
		c0.7421875-0.09375,1.484375-0.1728516,2.2314453-0.1811523c0.7451172-0.0273438,1.4912109,0.0136719,2.234375,0.0712891
		c0.1855469,0.0180664,0.3701172,0.043457,0.5556641,0.0644531c0.1855469,0.0244141,0.3710938,0.0380859,0.5546875,0.0732422
		c0.3652344,0.0644531,0.7363281,0.1162109,1.0976562,0.2021484c1.4550781,0.3154297,2.8808594,0.7832031,4.21875,1.4326172
		c1.3427734,0.6445312,2.6064453,1.4428711,3.7646484,2.3754883c0.1435547,0.1176758,0.28125,0.2412109,0.4228516,0.3613281
		c0.140625,0.1225586,0.2861328,0.2368164,0.4199219,0.3662109l0.1835938,0.175293L82.8916016,60.7744141z M85.2753906,58.0898438
		l-0.1728516-0.1660156c-0.140625-0.1347656-0.2929688-0.2553711-0.4384766-0.3837891
		c-0.1474609-0.1259766-0.2929688-0.2548828-0.4414062-0.3779297c-1.2060547-0.9736328-2.5263672-1.8105469-3.9257812-2.4838867
		c-1.3964844-0.6811523-2.8837891-1.1728516-4.4033203-1.5024414c-0.3779297-0.0908203-0.7636719-0.1445312-1.1464844-0.2128906
		c-0.1914062-0.0361328-0.3847656-0.0522461-0.578125-0.078125c-0.1943359-0.0219727-0.3867188-0.0483398-0.5800781-0.0678711
		c-0.7753906-0.0610352-1.5546875-0.1049805-2.3339844-0.0776367c-0.7792969,0.0087891-1.5556641,0.0878906-2.3291016,0.1855469
		c-0.1923828,0.0288086-0.3847656,0.0634766-0.5771484,0.0952148c-0.1914062,0.034668-0.3857422,0.0600586-0.5751953,0.105957
		c-0.3818359,0.0844727-0.7646484,0.1567383-1.1396484,0.2666016c-1.5068359,0.4018555-2.9765625,0.9658203-4.3476562,1.7172852
		c-0.3417969,0.1899414-0.6855469,0.3754883-1.0146484,0.5888672c-0.1650391,0.1044922-0.3330078,0.2060547-0.4970703,0.3120117
		l-0.4804688,0.3349609c-0.3261719,0.2158203-0.6289062,0.465332-0.9394531,0.703125
		c-0.15625,0.1152344-0.3046875,0.2485352-0.4550781,0.3769531l-0.4501953,0.3857422
		c-0.1435547,0.1298828-0.2802734,0.2641602-0.4189453,0.3955078c-0.1416016,0.137207-0.2724609,0.25-0.421875,0.4086914
		l-0.4052734,0.425293c-0.1337891,0.1411133-0.2714844,0.2802734-0.3964844,0.4306641l-0.3828125,0.4453125
		c-0.1298828,0.1469727-0.2529297,0.2998047-0.3701172,0.4550781l-0.359375,0.4643555
		c-0.125,0.1523438-0.2285156,0.3188477-0.34375,0.4780273c-0.9003906,1.2807617-1.6582031,2.6640625-2.2548828,4.1152344
		c-0.5869141,1.4545898-1.0107422,2.9755859-1.2646484,4.5253906c-0.0742188,0.3867188-0.1074219,0.7783203-0.1572266,1.1679688
		c-0.0283203,0.1953125-0.0351562,0.3920898-0.0517578,0.5883789l-0.0419922,0.5874023l-0.015625,0.5878906
		c-0.0029297,0.1967773-0.0146484,0.3935547-0.0048828,0.5913086c0.0117188,0.3911133,0.0058594,0.7851562,0.0419922,1.1767578
		c0.1035156,1.5698242,0.3740234,3.1293945,0.8212891,4.6401367c0.4541016,1.5087891,1.0761719,2.9667969,1.8535156,4.3388672
		c0.7783203,1.3740234,1.7050781,2.65625,2.7871094,3.8232422c1.0625,1.1494141,2.2607422,2.2021484,3.5517578,3.1064453
		c1.2929688,0.9082031,2.6845703,1.6767578,4.1455078,2.2861328c1.4570312,0.6152344,2.984375,1.0595703,4.5429688,1.3378906
		c1.5585938,0.2802734,3.1474609,0.3935547,4.7304688,0.3378906c0.1992188-0.0009766,0.3964844-0.0166016,0.5947266-0.03125
		l0.5927734-0.0419922c0.3945312-0.0380859,0.7871094-0.0888672,1.1816406-0.1376953l0.5859375-0.0986328
		c0.1953125-0.0341797,0.3925781-0.0585938,0.5859375-0.1054688l0.5800781-0.1269531
		c0.1953125-0.0390625,0.3867188-0.0859375,0.5791016-0.140625c1.5361328-0.3964844,3.0302734-0.9609375,4.4482422-1.6767578
		c1.4169922-0.7197266,2.7597656-1.5869141,3.9863281-2.6015625l0.4570312-0.3935547
		c0.1503906-0.1308594,0.3134766-0.2587891,0.4492188-0.3945312l0.4228516-0.4003906
		c0.1337891-0.1279297,0.2949219-0.2753906,0.4287109-0.421875l0.4101562-0.4316406
		c0.1367188-0.1435547,0.2763672-0.2861328,0.4033203-0.4384766l0.3886719-0.453125
		c0.1289062-0.1503906,0.2597656-0.2998047,0.3798828-0.4589844c1.9882812-2.4814453,3.453125-5.3847656,4.2734375-8.4658203
		c0.8203125-3.0776367,1.0087891-6.3300781,0.5175781-9.4863281c-0.4814453-3.1552734-1.6240234-6.2128906-3.34375-8.9111328
		c-0.203125-0.3452148-0.4433594-0.6650391-0.6689453-0.9951172c-0.1132812-0.1655273-0.2285156-0.3286133-0.3535156-0.484375
		l-0.3681641-0.4746094c-0.1181641-0.1601562-0.2451172-0.3154297-0.3789062-0.4677734l-0.3964844-0.4599609
		c-0.1308594-0.1577148-0.265625-0.3022461-0.3994141-0.4404297l-0.4052734-0.4267578
		c-0.0146484-0.0175781-0.0332031-0.0356445-0.0488281-0.0537109l2.890625-2.9892578l0.3261719,0.3417969l0.40625,0.4267578
		c0.1337891,0.1420898,0.25,0.2885742,0.3769531,0.4321289l0.3710938,0.4316406
		c0.1240234,0.1430664,0.2470703,0.2875977,0.3632812,0.4428711l0.7050781,0.9116211l0.6591797,0.9458008
		c0.1142578,0.1552734,0.2080078,0.3222656,0.3134766,0.4833984l0.3046875,0.4892578
		c1.59375,2.6269531,2.7636719,5.5214844,3.3808594,8.5385742c0.3144531,1.5058594,0.5039062,3.0385742,0.5654297,4.578125
		c0.0058594,0.3842773,0.0253906,0.7700195,0.0224609,1.1552734l-0.0273438,1.1542969l-0.0810547,1.1523438
		c-0.0087891,0.1923828-0.0400391,0.3837891-0.0595703,0.574707l-0.0703125,0.5727539
		c-0.203125,1.5268555-0.5332031,3.0366211-0.9873047,4.5092773l-0.1767578,0.5498047
		c-0.0585938,0.1826172-0.1152344,0.3671875-0.1855469,0.546875L97.625,81.8349609l-0.4599609,1.0605469
		c-0.1582031,0.3496094-0.3378906,0.6914062-0.5058594,1.0380859c-0.7011719,1.3720703-1.5195312,2.6845703-2.4384766,3.9208984
		c-0.9140625,1.2421875-1.9580078,2.3857422-3.0732422,3.4511719l-0.4277344,0.4082031
		c-0.1445312,0.1289062-0.2900391,0.25-0.4335938,0.3740234c-0.2910156,0.2460938-0.5703125,0.5029297-0.8808594,0.7324219
		l-0.4570312,0.3544922c-0.1523438,0.1191406-0.3037109,0.2382812-0.4648438,0.3457031
		c-0.3164062,0.2167969-0.6289062,0.4443359-0.9482422,0.65625c-1.2861328,0.8496094-2.6552734,1.5703125-4.0732422,2.171875
		c-2.8388672,1.1992188-5.8925781,1.8867188-8.9736328,2.0224609c-3.0810547,0.1396484-6.1845703-0.2939453-9.1171875-1.2451172
		c-1.4658203-0.4765625-2.8886719-1.0820312-4.2470703-1.8115234l-0.5048828-0.2822266
		c-0.1679688-0.0957031-0.3408203-0.1806641-0.5019531-0.2880859l-0.9794922-0.6113281L58.1875,93.4716797
		c-0.3115234-0.2275391-0.6113281-0.4697266-0.9169922-0.703125c-0.15625-0.1152344-0.3027344-0.2392578-0.4472656-0.3662109
		l-0.4394531-0.3779297c-0.2978516-0.2441406-0.5732422-0.5146484-0.8535156-0.7783203l-0.4199219-0.3994141l-0.3974609-0.4169922
		l-0.4072266-0.4277344c-0.1396484-0.1416016-0.2519531-0.2880859-0.3808594-0.4326172
		c-0.2451172-0.2910156-0.5019531-0.5683594-0.7314453-0.8808594l-0.3544922-0.4550781
		c-0.1210938-0.1503906-0.2353516-0.3046875-0.34375-0.4658203l-0.3300781-0.4726562
		c-0.109375-0.1582031-0.2226562-0.3134766-0.3222656-0.4804688c-0.2001953-0.3261719-0.4140625-0.6484375-0.6054688-0.9814453
		c-1.5605469-2.65625-2.5976562-5.6152344-3.0585938-8.6601562c-0.4638672-3.0449219-0.3496094-6.1767578,0.3339844-9.1791992
		c0.6816406-3.003418,1.9355469-5.8730469,3.6767578-8.4106445c0.2207031-0.3134766,0.4306641-0.6367188,0.6728516-0.9360352
		l0.3544922-0.456543c0.1152344-0.1533203,0.2363281-0.3027344,0.3642578-0.4467773l0.3759766-0.4389648
		c0.1259766-0.1445312,0.2451172-0.2949219,0.3828125-0.4306641l0.3955078-0.4189453
		c0.1308594-0.1342773,0.2714844-0.2910156,0.3935547-0.4072266l0.8525391-0.8115234l0.8652344-0.7421875l0.9101562-0.706543
		l0.9443359-0.6616211c2.5595703-1.699707,5.4599609-2.8828125,8.4765625-3.4550781
		c3.0166016-0.578125,6.1464844-0.5527344,9.1513672,0.0693359c3.0039062,0.6196289,5.8828125,1.8408203,8.4101562,3.5722656
		c0.3144531,0.2216797,0.6347656,0.4316406,0.9335938,0.6728516c0.2998047,0.2373047,0.6132812,0.4604492,0.8964844,0.7167969
		l0.4375,0.3745117c0.1484375,0.121582,0.2890625,0.2514648,0.4257812,0.3852539l0.0957031,0.0898438L85.2753906,58.0898438z
		 M88.2011719,54.7929688L88.1220703,54.71875c-0.1425781-0.1396484-0.2890625-0.2753906-0.4433594-0.4033203l-0.4550781-0.390625
		c-0.296875-0.2680664-0.6210938-0.5014648-0.9355469-0.75c-0.3095703-0.2519531-0.6464844-0.472168-0.9716797-0.7021484
		c-2.6376953-1.8125-5.6416016-3.0922852-8.7783203-3.7441406c-3.1367188-0.6538086-6.4033203-0.6845703-9.5566406-0.0869141
		c-3.1523438,0.59375-6.1875,1.8271484-8.8662109,3.6015625l-0.9882812,0.6889648l-0.9521484,0.737793L55.25,54.4638672
		l-0.8564453,0.8105469c-0.1611328,0.1552734-0.2832031,0.293457-0.4257812,0.4414062l-0.4160156,0.4350586
		c-0.140625,0.1425781-0.2685547,0.2988281-0.4003906,0.4501953l-0.3916016,0.456543
		c-0.1337891,0.1499023-0.2607422,0.3046875-0.3808594,0.4658203l-0.3701172,0.4760742
		c-0.2519531,0.3120117-0.4726562,0.6474609-0.7041016,0.9755859c-1.8222656,2.6459961-3.1367188,5.6420898-3.8515625,8.7763672
		c-0.71875,3.1333008-0.8427734,6.4047852-0.3623047,9.5874023c0.4775391,3.1796875,1.5566406,6.2753906,3.1835938,9.0556641
		c0.2021484,0.3486328,0.421875,0.6865234,0.6328125,1.0283203c0.1035156,0.1738281,0.2226562,0.3359375,0.3369141,0.5019531
		l0.3447266,0.4960938c0.1113281,0.1660156,0.2314453,0.3271484,0.3574219,0.4863281l0.3691406,0.4755859
		c0.2382812,0.3242188,0.515625,0.6259766,0.7773438,0.9365234c0.1337891,0.1503906,0.2636719,0.3173828,0.3984375,0.4550781
		l0.4082031,0.4277344l0.4179688,0.4394531l0.4365234,0.4160156c0.2919922,0.2773438,0.5771484,0.5585938,0.8886719,0.8144531
		l0.4580078,0.3935547c0.1503906,0.1337891,0.3037109,0.2626953,0.4658203,0.3837891
		c0.3183594,0.2441406,0.6328125,0.4980469,0.9570312,0.734375l0.9892578,0.6914062l1.0234375,0.6416016
		c0.1679688,0.1113281,0.3486328,0.2001953,0.5224609,0.3017578l0.5273438,0.2929688
		c1.4169922,0.7636719,2.9023438,1.4003906,4.4335938,1.9003906c3.0595703,0.9960938,6.2988281,1.4541016,9.5166016,1.3125
		c3.21875-0.1367188,6.4111328-0.8496094,9.3789062-2.1005859c1.4853516-0.6269531,2.9179688-1.3789062,4.2626953-2.2646484
		c0.3359375-0.2207031,0.6630859-0.4570312,0.9951172-0.6845703c0.1679688-0.1123047,0.3251953-0.2373047,0.484375-0.3613281
		l0.4785156-0.3691406c0.3222656-0.2373047,0.6269531-0.5146484,0.9355469-0.7773438
		c0.1533203-0.1318359,0.3115234-0.2626953,0.4609375-0.3974609l0.4287109-0.40625
		c1.1630859-1.1083984,2.2539062-2.3017578,3.2109375-3.5966797c0.9609375-1.2880859,1.8173828-2.6572266,2.5527344-4.0888672
		c0.1748047-0.3613281,0.3623047-0.71875,0.5283203-1.0839844l0.4824219-1.1074219l0.4287109-1.1279297
		c0.0742188-0.1865234,0.1318359-0.3798828,0.1953125-0.5703125l0.1865234-0.5751953
		c0.4755859-1.5351562,0.8232422-3.1123047,1.0371094-4.7045898l0.0712891-0.6000977
		c0.0224609-0.1992188,0.0546875-0.3979492,0.0654297-0.5991211l0.0859375-1.2026367l0.0292969-1.2070312
		c0.0039062-0.4023438-0.0146484-0.8027344-0.0214844-1.2060547c-0.0605469-1.6064453-0.2548828-3.2089844-0.5820312-4.7832031
		c-0.6425781-3.1533203-1.8574219-6.1806641-3.5224609-8.9311523l-0.3183594-0.5112305
		c-0.1083984-0.1694336-0.2080078-0.3447266-0.3271484-0.5068359l-0.6894531-0.9887695
		c-0.2412109-0.3208008-0.4882812-0.6367188-0.734375-0.9555664c-0.1201172-0.1611328-0.25-0.3154297-0.3837891-0.4692383
		l-0.3974609-0.4624023c-0.1328125-0.1503906-0.2636719-0.3125-0.3984375-0.456543l-0.4042969-0.4267578l-0.3623047-0.3808594
		l3.5507812-3.6694336l0.2773438,0.2919922l0.3876953,0.4077148c0.1269531,0.1367188,0.265625,0.2700195,0.3808594,0.4091797
		l0.7089844,0.824707c0.1181641,0.1391602,0.2392578,0.2724609,0.3535156,0.4160156l0.3378906,0.4355469l0.671875,0.8710938
		l0.6318359,0.9033203l0.3154297,0.4521484l0.2919922,0.4677734l0.5849609,0.9345703l0.5390625,0.9643555l0.2675781,0.4814453
		l0.2441406,0.4951172l0.4892578,0.9902344l0.4404297,1.0131836c0.0722656,0.1689453,0.1503906,0.3369141,0.2177734,0.5083008
		l0.1962891,0.5170898c0.1279297,0.3452148,0.2636719,0.6870117,0.3867188,1.0351562
		c0.2197266,0.7041016,0.4707031,1.3999023,0.6484375,2.1166992l0.1445312,0.534668
		c0.0478516,0.1782227,0.0986328,0.355957,0.1347656,0.5371094l0.2382812,1.0820312
		c1.1767578,5.7919922,0.8164062,11.9208984-1.1210938,17.5517578c-0.0527344,0.1787109-0.1210938,0.3515625-0.1865234,0.5253906
		l-0.1962891,0.5214844c-0.1328125,0.3486328-0.2568359,0.6992188-0.4121094,1.0390625l-0.4443359,1.0224609
		c-0.1552734,0.3408203-0.3271484,0.6699219-0.4892578,1.0048828l-0.2460938,0.5019531
		c-0.0859375,0.1650391-0.1806641,0.3251953-0.2705078,0.4892578l-0.5429688,0.9765625
		c-0.1943359,0.3193359-0.3945312,0.6337891-0.5908203,0.9501953l-0.2949219,0.4755859l-0.3203125,0.4599609l-0.6396484,0.9189453
		l-0.6835938,0.8857422l-0.3427734,0.4433594l-0.3632812,0.4267578l-0.7304688,0.8505859
		C97.0048828,93.9589844,96.7451172,94.2275391,96.4892578,94.5l-0.3867188,0.4052734
		C96,95.0166016,95.8369141,95.1650391,95.7050781,95.2910156L94.875,96.0810547l-0.8408203,0.7246094l-0.421875,0.3603516
		l-0.4433594,0.3447266c-0.296875,0.2265625-0.5878906,0.4628906-0.8896484,0.6826172
		c-0.6162109,0.4248047-1.21875,0.8701172-1.8623047,1.2529297l-0.4755859,0.2978516
		c-0.15625,0.1025391-0.3203125,0.1962891-0.4853516,0.2841797l-0.9794922,0.5488281
		c-0.3300781,0.1777344-0.6708984,0.3349609-1.0048828,0.5039062l-0.5039062,0.25l-0.515625,0.2236328
		c-1.3632812,0.6220703-2.7880859,1.109375-4.2294922,1.5253906l-1.0888672,0.2939453l-1.0996094,0.2402344
		c-0.3652344,0.0878906-0.7382812,0.140625-1.1074219,0.2060547c-0.3710938,0.0595703-0.7402344,0.1337891-1.1152344,0.1708984
		l-1.1210938,0.1357422l-1.125,0.0830078c-0.1875,0.0117188-0.375,0.0332031-0.5615234,0.0361328L74.4375,104.2587891
		l-0.5634766,0.0146484c-0.1884766,0.0068359-0.3769531,0.0068359-0.5644531,0l-1.1298828-0.0263672
		c-0.375-0.0175781-0.7519531-0.0527344-1.1279297-0.0761719c-0.1875-0.0146484-0.3759766-0.0224609-0.5625-0.0439453
		l-0.5615234-0.0664062l-0.5615234-0.0673828c-0.1875-0.0205078-0.3740234-0.0439453-0.5585938-0.078125l-1.1171875-0.1875
		c-0.1855469-0.0263672-0.3691406-0.0761719-0.5527344-0.1132812l-0.5546875-0.1220703l-0.5517578-0.1210938l-0.546875-0.1455078
		l-0.5458984-0.1474609c-0.1816406-0.0507812-0.3662109-0.0947266-0.5449219-0.1572266l-1.0771484-0.3457031
		c-0.1806641-0.0537109-0.3574219-0.1220703-0.5341797-0.1894531l-0.5292969-0.1992188l-0.5302734-0.1992188
		c-0.1757812-0.0693359-0.3466797-0.1494141-0.5214844-0.2226562c-0.3447266-0.1523438-0.6943359-0.2978516-1.0380859-0.4541016
		c-0.6757812-0.3378906-1.3623047-0.6572266-2.0146484-1.0400391C57.4794922,99.9189453,56.8486328,99.5,56.2041016,99.1025391
		c-0.3164062-0.2089844-0.6220703-0.4296875-0.9345703-0.6435547c-0.1542969-0.1103516-0.3105469-0.2148438-0.4648438-0.3261719
		l-0.4482422-0.3466797l-0.4511719-0.3476562c-0.1464844-0.1181641-0.3027344-0.2265625-0.4443359-0.3535156l-0.8623047-0.7402344
		c-0.2949219-0.2382812-0.5585938-0.5117188-0.8359375-0.7685547l-0.4121094-0.3925781
		c-0.1416016-0.1298828-0.2509766-0.2392578-0.3935547-0.3935547l-0.8017578-0.8417969
		c-0.1367188-0.1396484-0.2480469-0.2832031-0.3730469-0.4238281l-0.3671875-0.4267578
		c-0.9648438-1.1513672-1.8789062-2.3759766-2.6591797-3.6748047c-3.1845703-5.1640625-4.7548828-11.328125-4.3994141-17.4160156
		l0.0800781-1.1391602c0.0380859-0.3798828,0.0878906-0.7568359,0.1328125-1.1347656
		c0.0351562-0.3813477,0.109375-0.7553711,0.1708984-1.1303711l0.0927734-0.5644531
		c0.03125-0.1889648,0.078125-0.3725586,0.1171875-0.5600586c0.2988281-1.4951172,0.7392578-2.9604492,1.2714844-4.390625
		c0.2529297-0.7202148,0.5722656-1.4145508,0.8730469-2.1152344l0.5078125-1.0268555
		c0.0820312-0.1723633,0.1669922-0.3422852,0.2636719-0.5087891L46.1445312,58.9375l0.2783203-0.5009766
		c0.0927734-0.1660156,0.2001953-0.3251953,0.2988281-0.4882812c0.2050781-0.3222656,0.4003906-0.6518555,0.6123047-0.9692383
		l0.6552734-0.9399414c0.1064453-0.1591797,0.2226562-0.3105469,0.3417969-0.4604492l0.3496094-0.453125l0.3515625-0.4541016
		c0.1201172-0.1479492,0.2480469-0.2910156,0.3710938-0.4370117l0.3730469-0.4360352
		c0.1269531-0.1430664,0.2441406-0.2949219,0.3789062-0.4301758l0.7910156-0.8320312
		c0.1298828-0.1430664,0.2431641-0.2539062,0.3984375-0.3979492l0.4238281-0.4047852l0.4248047-0.4033203l0.4287109-0.3706055
		l0.4306641-0.3696289c0.1425781-0.1240234,0.2851562-0.2470703,0.4384766-0.3618164l0.9072266-0.7036133
		c0.3105469-0.222168,0.6259766-0.4379883,0.9384766-0.6582031c1.2685547-0.8544922,2.6015625-1.6132812,3.9863281-2.265625
		c1.3916016-0.6376953,2.8320312-1.1669922,4.3046875-1.5839844l0.5556641-0.1503906
		c0.1865234-0.0488281,0.3691406-0.1044922,0.5566406-0.140625l1.1230469-0.246582l1.1318359-0.1943359
		c0.1894531-0.0356445,0.3789062-0.0600586,0.5693359-0.081543l0.5712891-0.0688477
		c1.5234375-0.1704102,3.0605469-0.2255859,4.5927734-0.1606445c1.5332031,0.078125,3.0595703,0.2739258,4.5615234,0.5854492
		l0.5625,0.1235352c0.1875,0.0405273,0.3759766,0.0791016,0.5595703,0.1328125l1.1123047,0.2988281l1.0976562,0.3525391
		c0.1835938,0.0546875,0.3613281,0.1230469,0.5419922,0.1914062l0.5390625,0.2041016
		c1.4316406,0.5556641,2.8242188,1.2143555,4.1503906,1.9902344c1.3232422,0.7832031,2.5830078,1.6679688,3.7724609,2.6420898
		l0.8759766,0.7514648c0.1572266,0.1416016,0.3105469,0.2871094,0.4638672,0.4326172L88.2011719,54.7929688z
		 M122.7265625,71.7480469c-0.0048828,0.265625-0.0126953,0.5351562-0.0175781,0.8041992
		c-0.0087891,0.2695312-0.0048828,0.5390625-0.03125,0.8100586c-0.0820312,1.0825195-0.1318359,2.1914062-0.2890625,3.3046875
		c-0.0332031,0.2802734-0.0673828,0.5595703-0.0986328,0.8427734c-0.0185547,0.1416016-0.0351562,0.28125-0.0517578,0.4228516
		c-0.0244141,0.140625-0.046875,0.28125-0.0722656,0.4228516c-0.0947266,0.5634766-0.1894531,1.1337891-0.2861328,1.7070312
		c-0.0410156,0.2890625-0.1152344,0.5712891-0.1748047,0.8583984c-0.0615234,0.2871094-0.1240234,0.5751953-0.1865234,0.8632812
		c-0.0644531,0.2880859-0.1269531,0.5800781-0.1894531,0.8710938c-0.0742188,0.2871094-0.15625,0.5761719-0.2324219,0.8671875
		c-0.5859375,2.3300781-1.4082031,4.6757812-2.4052734,7.0244141c-0.1259766,0.2939453-0.2539062,0.5869141-0.3818359,0.8808594
		c-0.0634766,0.1484375-0.1279297,0.2958984-0.1923828,0.4443359c-0.0664062,0.1455078-0.1416016,0.2890625-0.2119141,0.4345703
		c-0.2861328,0.5810547-0.5751953,1.1650391-0.8652344,1.7539062c-0.3125,0.5761719-0.6386719,1.1513672-0.9609375,1.734375
		c-0.0820312,0.1445312-0.1611328,0.2900391-0.2421875,0.4365234c-0.0820312,0.1455078-0.1757812,0.2851562-0.2636719,0.4277344
		c-0.1767578,0.2832031-0.3554688,0.5693359-0.5341797,0.8544922c-0.1787109,0.2880859-0.3564453,0.5732422-0.5371094,0.8623047
		c-0.1894531,0.28125-0.3867188,0.5585938-0.5810547,0.8408203c-0.1953125,0.2802734-0.390625,0.5615234-0.5878906,0.84375
		c-0.0986328,0.1416016-0.1972656,0.2832031-0.2949219,0.4257812c-0.1054688,0.1357422-0.2109375,0.2724609-0.3183594,0.4091797
		c-0.4238281,0.5488281-0.8505859,1.0986328-1.2802734,1.6542969c-0.4580078,0.5302734-0.9169922,1.0673828-1.3798828,1.6074219
		c-0.2246094,0.2744141-0.4765625,0.5283203-0.7207031,0.7880859c-0.2460938,0.2587891-0.4941406,0.5205078-0.7421875,0.7822266
		c-0.1230469,0.1289062-0.2470703,0.2597656-0.3720703,0.390625l-0.1855469,0.1972656
		c-0.0244141,0.0263672-0.1220703,0.1162109-0.1806641,0.171875c-0.2666016,0.2558594-0.5351562,0.5107422-0.8056641,0.7666016
		c-0.2675781,0.2558594-0.5390625,0.5146484-0.8095703,0.7734375c-0.2753906,0.2353516-0.5498047,0.4726562-0.8271484,0.7099609
		c-0.2753906,0.2363281-0.5517578,0.4746094-0.8291016,0.7138672l-0.2099609,0.1796875l-0.21875,0.1689453
		c-0.1474609,0.1142578-0.2939453,0.2285156-0.4423828,0.3417969c-2.3378906,1.8457031-4.9042969,3.5136719-7.6748047,4.9414062
		c-2.7705078,1.4238281-5.7451172,2.6035156-8.8759766,3.4824219c-3.1289062,0.8798828-6.4121094,1.4550781-9.7880859,1.6816406
		c-0.84375,0.0800781-1.6933594,0.0810547-2.546875,0.1054688l-0.640625,0.0146484l-0.6425781-0.0146484
		c-0.4296875-0.0097656-0.8583984-0.0205078-1.2900391-0.0292969l-0.3222656-0.0078125
		c-0.1074219-0.0058594-0.2158203-0.0146484-0.3232422-0.0224609l-0.6474609-0.0458984
		c-0.4316406-0.0302734-0.8652344-0.0605469-1.296875-0.0917969c-0.4335938-0.0507812-0.8671875-0.1015625-1.2998047-0.1533203
		c-0.2177734-0.0253906-0.4345703-0.0507812-0.6523438-0.078125l-0.3261719-0.0380859
		c-0.1083984-0.0117188-0.2158203-0.0341797-0.3242188-0.0527344c-3.4716797-0.5253906-6.9492188-1.4394531-10.3378906-2.7558594
		c-3.3935547-1.3066406-6.6748047-3.0644531-9.7646484-5.2060547c-0.3828125-0.2705078-0.7753906-0.5322266-1.1552734-0.8115234
		c-0.3740234-0.2880859-0.7470703-0.578125-1.1220703-0.8671875c-0.1875-0.1455078-0.375-0.2900391-0.5625-0.4355469
		c-0.0957031-0.0703125-0.1855469-0.1464844-0.2753906-0.2255859l-0.2705078-0.2324219
		c-0.3613281-0.3085938-0.7226562-0.6181641-1.0859375-0.9296875c-0.3710938-0.3037109-0.7060547-0.6445312-1.0556641-0.9716797
		c-0.3486328-0.3300781-0.6962891-0.6611328-1.046875-0.9912109c-0.3320312-0.3486328-0.6660156-0.6982422-1.0009766-1.0498047
		c-0.3388672-0.3574219-0.6933594-0.7128906-0.9912109-1.0791016c-0.3125-0.3623047-0.625-0.7275391-0.9375-1.0908203
		l-0.2353516-0.2753906l-0.2236328-0.2880859c-0.1494141-0.1923828-0.2988281-0.3857422-0.4472656-0.578125
		c-0.1503906-0.1923828-0.3007812-0.3857422-0.4501953-0.578125c-0.1503906-0.1933594-0.3017578-0.3857422-0.4384766-0.5888672
		c-0.2802734-0.4013672-0.5605469-0.8027344-0.8417969-1.2070312c-0.2919922-0.3974609-0.5429688-0.8203125-0.8066406-1.2382812
		c-0.1298828-0.2099609-0.2607422-0.4179688-0.3916016-0.6279297l-0.1982422-0.3144531
		c-0.0673828-0.1035156-0.1289062-0.2099609-0.1875-0.3183594c-0.2421875-0.4326172-0.484375-0.8662109-0.7265625-1.2998047
		l-0.1816406-0.3261719c-0.0625-0.1074219-0.1210938-0.2167969-0.1738281-0.3291016
		c-0.1103516-0.2236328-0.2207031-0.4482422-0.3320312-0.6708984c-0.9169922-1.7734375-1.6572266-3.6464844-2.3359375-5.5517578
		c-0.15625-0.4814453-0.3115234-0.9638672-0.46875-1.4462891l-0.1162109-0.3632812l-0.1005859-0.3671875l-0.1972656-0.7382812
		c-0.2890625-0.9785156-0.4833984-1.9824219-0.7070312-2.984375c-0.03125-0.125-0.0527344-0.2519531-0.0722656-0.3779297
		l-0.0654297-0.3798828l-0.1289062-0.7617188l-0.1298828-0.7617188c-0.0332031-0.2539062-0.0615234-0.5126953-0.09375-0.7675781
		c-0.0605469-0.5136719-0.1289062-1.0263672-0.1816406-1.5419922c-0.0371094-0.5185547-0.0742188-1.0351562-0.1113281-1.5546875
		c-0.109375-2.0751953-0.1289062-4.175293,0.0585938-6.2758789l0.0546875-0.7905273l0.09375-0.7861328l0.0947266-0.7875977
		l0.0458984-0.3945312c0.0146484-0.1328125,0.0341797-0.2631836,0.0566406-0.3935547
		c0.0878906-0.5234375,0.1767578-1.046875,0.265625-1.5722656l0.0664062-0.3930664l0.0849609-0.390625l0.1699219-0.7807617
		l0.1708984-0.7841797c0.0253906-0.1308594,0.0595703-0.2597656,0.0957031-0.3886719l0.1044922-0.3881836
		c0.1396484-0.5166016,0.2792969-1.034668,0.4189453-1.5527344c0.3359375-1.0200195,0.6367188-2.0566406,1.0390625-3.0605469
		l0.2861328-0.7587891c0.0498047-0.1259766,0.0927734-0.2548828,0.1464844-0.378418l0.1611328-0.3735352
		c0.2148438-0.4970703,0.4316406-0.9946289,0.6484375-1.4941406c0.2294922-0.4916992,0.4785156-0.9765625,0.7177734-1.4667969
		c0.1220703-0.2431641,0.2353516-0.4916992,0.3662109-0.730957c0.1328125-0.2387695,0.265625-0.4770508,0.3984375-0.7158203
		c0.1337891-0.2397461,0.2675781-0.4785156,0.4003906-0.7177734l0.1992188-0.3598633
		c0.0654297-0.1196289,0.1435547-0.2329102,0.2138672-0.3505859c0.2900391-0.465332,0.5810547-0.9311523,0.8730469-1.3979492
		c0.140625-0.2368164,0.3037109-0.4580078,0.4599609-0.6855469c0.1572266-0.2260742,0.3144531-0.4526367,0.4716797-0.6796875
		c0.1591797-0.2260742,0.3154297-0.453125,0.4736328-0.6791992c0.1630859-0.2236328,0.3369141-0.4384766,0.5058594-0.6591797
		c0.3408203-0.4355469,0.671875-0.8803711,1.0205078-1.3115234c0.3623047-0.4208984,0.7236328-0.8427734,1.0869141-1.265625
		c0.3515625-0.4316406,0.7519531-0.8232422,1.1308594-1.2314453c0.1933594-0.203125,0.3857422-0.4042969,0.578125-0.6083984
		c0.0898438-0.0927734,0.2070312-0.2211914,0.2734375-0.2851562l0.3115234-0.2958984
		c0.4130859-0.3955078,0.8291016-0.7890625,1.2451172-1.1850586c0.4199219-0.3676758,0.8417969-0.7241211,1.2626953-1.0888672
		c0.4111328-0.3706055,0.8701172-0.706543,1.3134766-1.0537109c0.2226562-0.1723633,0.4453125-0.3457031,0.6679688-0.5185547
		c0.109375-0.0888672,0.2246094-0.1728516,0.3398438-0.2524414l0.3496094-0.2412109
		c1.8300781-1.3305664,3.7998047-2.4853516,5.8457031-3.5039062c2.0458984-1.0146484,4.1806641-1.894043,6.3955078-2.5605469
		c2.2099609-0.6767578,4.4833984-1.1865234,6.7958984-1.5161133c0.5800781-0.0708008,1.1601562-0.1401367,1.7421875-0.2114258
		c0.5820312-0.0488281,1.1679688-0.0854492,1.7539062-0.1293945c0.1464844-0.0097656,0.2919922-0.0239258,0.4394531-0.0302734
		L69.25,29.4619141l0.8818359-0.0224609l0.4414062-0.0107422c0.1484375-0.0039062,0.2949219-0.0087891,0.4414062-0.0014648
		l0.8847656,0.0200195c2.3583984,0.0585938,4.7265625,0.2944336,7.0683594,0.7392578
		c2.3388672,0.4545898,4.6542969,1.0981445,6.9101562,1.9311523c2.2548828,0.8354492,4.4609375,1.8452148,6.5576172,3.0742188
		c2.1005859,1.2197266,4.1064453,2.6196289,5.9970703,4.1801758c0.4638672,0.4008789,0.9345703,0.7958984,1.3955078,1.2011719
		c0.1787109,0.1708984,0.3603516,0.3422852,0.5390625,0.5126953l-4.1630859,4.6914062
		c-0.3486328-0.3305664-0.6982422-0.65625-1.0693359-0.9619141c-0.2919922-0.2490234-0.578125-0.5009766-0.8720703-0.7456055
		l-0.90625-0.7026367l-0.453125-0.3515625c-0.1513672-0.1147461-0.3115234-0.2197266-0.4677734-0.3300781l-0.9384766-0.65625
		c-0.1542969-0.112793-0.3193359-0.2094727-0.4804688-0.3115234L90.53125,41.4135742l-0.4853516-0.3041992
		c-0.1601562-0.1030273-0.3232422-0.2011719-0.4921875-0.2915039c-0.6679688-0.3681641-1.3242188-0.7587891-2.015625-1.0820312
		c-0.3417969-0.168457-0.6796875-0.3432617-1.0253906-0.5039062l-1.046875-0.4555664l-0.5253906-0.2270508l-0.5332031-0.2026367
		l-1.0673828-0.4033203c-1.4423828-0.4824219-2.8984375-0.9311523-4.3876953-1.2348633l-0.5566406-0.1235352
		c-0.1845703-0.0429688-0.3710938-0.0766602-0.5585938-0.1064453l-1.1230469-0.1899414
		c-0.1855469-0.0336914-0.3730469-0.0634766-0.5625-0.0825195l-0.5644531-0.0683594l-0.5634766-0.0683594
		c-0.1884766-0.0219727-0.3759766-0.0488281-0.5654297-0.059082l-1.1337891-0.0825195
		c-0.1884766-0.0107422-0.3769531-0.0332031-0.5673828-0.0341797l-0.5673828-0.0141602
		c-0.3779297-0.0078125-0.7558594-0.0219727-1.1337891-0.0239258l-1.1347656,0.0263672l-0.5673828,0.0136719l-0.5654297,0.0405273
		l-1.1308594,0.0805664c-0.3769531,0.0400391-0.75,0.0874023-1.1269531,0.1308594L65.96875,36.215332
		c-0.1875,0.0200195-0.3730469,0.059082-0.5595703,0.0878906c-2.9804688,0.4765625-5.9082031,1.2822266-8.6708984,2.4755859
		c-2.7636719,1.1811523-5.3935547,2.6762695-7.7714844,4.4985352l-0.8886719,0.6875
		c-0.1494141,0.1103516-0.2910156,0.2382812-0.4355469,0.3603516l-0.4296875,0.3686523l-0.4306641,0.3696289
		c-0.1425781,0.1230469-0.2919922,0.2451172-0.4189453,0.3720703l-0.7958984,0.7548828l-0.3974609,0.3774414
		c-0.1591797,0.1606445-0.2646484,0.2768555-0.4013672,0.4179688l-0.7705078,0.8095703
		c-0.2626953,0.2641602-0.4960938,0.5556641-0.7421875,0.8359375l-0.7275391,0.847168
		c-1.8867188,2.3046875-3.4960938,4.8276367-4.8007812,7.4887695c-0.34375,0.6586914-0.6240234,1.3442383-0.921875,2.0224609
		C36.734375,59.1601562,36.6513672,59.3266602,36.5908203,59.5l-0.1972656,0.5209961l-0.3916016,1.0380859
		c-0.1230469,0.3491211-0.2314453,0.7026367-0.3466797,1.0532227L35.484375,62.640625
		c-0.0576172,0.1757812-0.1142578,0.3515625-0.1572266,0.5317383l-0.2910156,1.0688477
		c-0.046875,0.1782227-0.0986328,0.3554688-0.1416016,0.5336914l-0.1201172,0.5410156
		c-0.6494141,2.8769531-0.9892578,5.8208008-0.9804688,8.7578125c0.0175781,2.9370117,0.3603516,5.8637695,1.0185547,8.7104492
		c0.0712891,0.359375,0.1748047,0.7089844,0.2675781,1.0625l0.2841797,1.0566406
		c0.1074219,0.3496094,0.2226562,0.6943359,0.3339844,1.0429688l0.1660156,0.5195312
		c0.0546875,0.1757812,0.1132812,0.3476562,0.1796875,0.5175781l0.3847656,1.0214844l0.1933594,0.5117188l0.2177734,0.5
		l0.4345703,1.0019531c0.0693359,0.1689453,0.1494141,0.3310547,0.2314453,0.4921875l0.2412109,0.4902344
		c1.28125,2.609375,2.8515625,5.0683594,4.6699219,7.3173828c0.2324219,0.2802734,0.4746094,0.5556641,0.7109375,0.8339844
		l0.3574219,0.4150391c0.1191406,0.1337891,0.2363281,0.2832031,0.3583984,0.40625l0.7294922,0.7685547L44.9365234,101.125
		c0.1152344,0.125,0.2773438,0.2822266,0.3964844,0.3935547l0.78125,0.7421875
		c0.2617188,0.2480469,0.515625,0.5019531,0.7939453,0.7304688l0.8173828,0.7041016l0.4082031,0.3505859
		c0.1376953,0.1162109,0.2832031,0.2226562,0.4238281,0.3330078c4.4882812,3.5869141,9.7255859,6.1757812,15.2265625,7.5839844
		c5.5,1.4257812,11.2636719,1.6357422,16.7949219,0.7197266c5.5351562-0.9121094,10.8417969-2.9726562,15.4863281-5.9941406
		c0.1474609-0.0898438,0.2910156-0.1855469,0.4316406-0.2861328l0.4277344-0.2958984l0.8496094-0.5927734
		c0.1445312-0.0957031,0.28125-0.2011719,0.4179688-0.3076172l0.4091797-0.3183594l0.8173828-0.6328125
		c0.1396484-0.1015625,0.2714844-0.2148438,0.4042969-0.3300781l0.3964844-0.3408203l0.7929688-0.6796875
		c0.1347656-0.1123047,0.2578125-0.2285156,0.3779297-0.3447266l0.3662109-0.3476562l0.7314453-0.6953125
		c0.1191406-0.109375,0.2744141-0.2626953,0.3759766-0.3759766l0.3564453-0.3720703l0.7099609-0.7451172
		c0.1152344-0.1259766,0.2402344-0.2451172,0.3486328-0.3759766l0.3349609-0.390625l0.6699219-0.7773438l0.3349609-0.390625
		l0.3144531-0.4042969l0.6279297-0.8105469l0.3144531-0.4042969c0.1064453-0.1328125,0.1982422-0.2783203,0.2978516-0.4169922
		l0.5859375-0.8388672c3.0888672-4.4980469,5.2734375-9.5625,6.4443359-14.8115234
		c1.1757812-5.2480469,1.34375-10.6728516,0.5429688-15.9057617c-0.3994141-2.6186523-1.0390625-5.1894531-1.9033203-7.6708984
		c-0.8671875-2.4790039-1.9658203-4.8666992-3.265625-7.1245117l-0.2382812-0.4267578l-0.2578125-0.4150391l-0.5166016-0.8271484
		c-0.3320312-0.5600586-0.7148438-1.0844727-1.0830078-1.6176758c-0.1875-0.265625-0.3681641-0.5356445-0.5595703-0.7958984
		l-0.5947266-0.7685547l-0.59375-0.7670898c-0.2001953-0.2539062-0.421875-0.4980469-0.6318359-0.7470703l-0.6367188-0.7426758
		c-0.1074219-0.1206055-0.2109375-0.253418-0.3203125-0.3647461l-0.3261719-0.3417969l-0.6503906-0.6860352l-0.1962891-0.206543
		l5.3486328-5.5302734c0.1201172,0.1259766,0.2675781,0.28125,0.4433594,0.4667969
		c0.2685547,0.2807617,0.6015625,0.6308594,1,1.0488281c0.3632812,0.4233398,0.7871094,0.9155273,1.2685547,1.4746094
		c0.1191406,0.140625,0.2431641,0.2841797,0.3720703,0.4331055c0.1240234,0.1508789,0.2460938,0.315918,0.375,0.4799805
		c0.2558594,0.3300781,0.5263672,0.6777344,0.8105469,1.0439453c0.140625,0.1835938,0.2890625,0.3681641,0.4335938,0.5634766
		c0.1376953,0.1977539,0.2802734,0.4023438,0.4248047,0.609375c0.2910156,0.4155273,0.5927734,0.8496094,0.9082031,1.3007812
		c1.1982422,1.847168,2.5097656,4.0419922,3.7333984,6.6616211c1.2109375,2.6220703,2.3398438,5.6601562,3.1972656,9.1079102
		c0.8466797,3.4506836,1.3896484,7.3154297,1.4501953,11.5073242
		C122.7626953,70.6845703,122.7373047,71.2138672,122.7265625,71.7480469z"/>
</g>
</svg>
