<?xml version="1.0" encoding="utf-8"?>
<!-- Generator: Adobe Illustrator 16.0.0, SVG Export Plug-In . SVG Version: 6.00 Build 0)  -->
<!DOCTYPE svg PUBLIC "-//W3C//DTD SVG 1.1//EN" "http://www.w3.org/Graphics/SVG/1.1/DTD/svg11.dtd">
<svg version="1.1" id="Layer_1" xmlns="http://www.w3.org/2000/svg" xmlns:xlink="http://www.w3.org/1999/xlink" x="0px" y="0px"
	 width="150px" height="150px" viewBox="0 0 150 150" style="enable-background:new 0 0 150 150;" xml:space="preserve">
<g id="art">
	<g>
		<defs>
			<circle id="SVGID_1_" cx="75" cy="75" r="75"/>
		</defs>
		<clipPath id="SVGID_2_">
			<use xlink:href="#SVGID_1_"  style="overflow:visible;"/>
		</clipPath>
		<g style="clip-path:url(#SVGID_2_);">
			<path d="M29.6884766,150.8574219V136c0-9.3925781,5.2119141-14.0039062,14.7734375-14.0039062h30.2304688
				c9.5605469,0,14.7734375,4.6113281,14.7734375,14.0039062v14.8574219H29.6884766z M38.2265625,141.4667969h42.7001953v-5.296875
				c0-2.9863281-1.5419922-4.78125-5.8056641-4.78125H44.0380859c-4.2695312,0-5.8115234,1.7949219-5.8115234,4.78125V141.4667969z"
				/>
			<path d="M44.0380859,116.7871094c-9.5664062,0-15.0332031-5.0371094-15.0332031-14.2617188
				c0-9.2207031,5.4667969-14.2597656,15.0332031-14.2597656h31.0830078c9.5615234,0,15.0273438,5.0390625,15.0273438,14.2597656
				c0,9.2246094-5.4658203,14.2617188-15.0273438,14.2617188H44.0380859z M75.7148438,107.3964844
				c4.2695312,0,5.8955078-1.8808594,5.8955078-4.8710938c0-2.9863281-1.6259766-4.8652344-5.8955078-4.8652344H43.4394531
				c-4.2695312,0-5.8955078,1.8789062-5.8955078,4.8652344c0,2.9902344,1.6259766,4.8710938,5.8955078,4.8710938H75.7148438z"/>
			<path d="M89.4658203,62.5639648c-1.5419922,0.5112305-2.4794922,0.8525391-7.3476562,0.8525391h-9.3916016
				c-5.5507812,0-7.6015625,1.8779297-7.6015625,6.1484375v3.2451172h24.3408203v9.3911133H29.6884766V68.027832
				c0-9.7333984,4.5283203-13.9169922,13.7509766-13.9169922h4.6933594c6.1494141,0,10.1650391,1.9614258,12.1298828,6.1459961
				c1.9599609-4.6972656,6.4892578-6.2333984,12.71875-6.2333984h9.2275391c2.9023438,0,5.03125-0.0844727,7.2568359-1.0249023
				V62.5639648z M38.2265625,72.8100586h18.3603516v-3.6708984c0-3.5029297-1.5361328-5.6362305-6.3144531-5.6362305h-5.8955078
				c-4.2695312,0-6.1503906,1.4511719-6.1503906,4.7817383V72.8100586z"/>
			<path d="M54.8808594,38.480957V25.5878906h8.5390625V38.480957h17.5068359V22.2573242h8.5390625v25.6191406H29.6884766
				V22.2573242h8.5380859V38.480957H54.8808594z M17.0546875,25.0766602L26.53125,33.784668v6.3198242l-9.4765625-5.8071289
				V25.0766602z"/>
			<path d="M29.0048828,3.8115234c0-9.1362305,5.4667969-13.8320312,15.0332031-13.8320312h1.875v8.8793945h-2.4736328
				c-4.2695312,0-5.8955078,1.7080078-5.8955078,4.6958008c0,2.9902344,1.6259766,4.6972656,5.8955078,4.6972656
				c12.2949219,0,14.5986328-18.3598633,31.6816406-18.3598633c9.5615234,0,15.0273438,4.7832031,15.0273438,14.0053711
				s-5.4658203,14.0014648-15.0273438,14.0014648h-3.6757812V9.0209961h4.2695312
				c4.2695312,0,5.8105469-1.8789062,5.8105469-4.8676758c0-2.9892578-1.5410156-4.8681641-5.8105469-4.8681641
				c-12.2949219,0-14.5996094,18.359375-31.6767578,18.359375C34.4716797,17.6445312,29.0048828,12.9487305,29.0048828,3.8115234"/>
			<g>
				<g>
					<path d="M101.0449219,39.534668h-0.6513672l-0.4453125-1.2724609h-1.9755859l-0.4453125,1.2724609h-0.6191406
						l1.6630859-4.565918h0.8105469L101.0449219,39.534668z M99.7626953,37.7402344l-0.7998047-2.2407227l-0.8046875,2.2407227
						H99.7626953z"/>
					<path d="M106.6279297,38.1308594c0,0.2265625-0.0478516,0.4262695-0.1318359,0.6000977
						c-0.0849609,0.1748047-0.2011719,0.3178711-0.3447266,0.4301758c-0.1748047,0.1337891-0.3603516,0.2304688-0.5673828,0.2875977
						c-0.2060547,0.0566406-0.4658203,0.0859375-0.7832031,0.0859375h-1.6152344V34.96875h1.3496094
						c0.3339844,0,0.5830078,0.0131836,0.7480469,0.0371094c0.1640625,0.0249023,0.3222656,0.0751953,0.4765625,0.1533203
						c0.1640625,0.0874023,0.2851562,0.2016602,0.3652344,0.3393555c0.0742188,0.1376953,0.1113281,0.3032227,0.1113281,0.4951172
						c0,0.2158203-0.0527344,0.4013672-0.1640625,0.5537109c-0.1113281,0.1518555-0.2597656,0.2739258-0.4453125,0.3652344
						v0.0253906c0.3125,0.0634766,0.5566406,0.1982422,0.7304688,0.40625
						C106.5380859,37.5507812,106.6279297,37.8129883,106.6279297,38.1308594z M105.6054688,36.0732422
						c0-0.1098633-0.0214844-0.2041016-0.0585938-0.2797852c-0.0361328-0.0751953-0.0947266-0.1362305-0.1738281-0.184082
						c-0.0957031-0.0541992-0.2119141-0.0883789-0.3496094-0.1015625c-0.1386719-0.0136719-0.3076172-0.0200195-0.5087891-0.0200195
						h-0.7255859v1.3173828h0.7832031c0.1914062,0,0.3447266-0.0092773,0.4560547-0.0288086
						c0.1113281-0.0185547,0.2177734-0.0595703,0.3125-0.1206055c0.0957031-0.0610352,0.1640625-0.140625,0.2060547-0.2382812
						C105.5839844,36.3208008,105.6054688,36.2055664,105.6054688,36.0732422z M105.9921875,38.1547852
						c0-0.184082-0.0263672-0.3295898-0.0791016-0.4384766c-0.0585938-0.1083984-0.1591797-0.199707-0.3017578-0.2753906
						c-0.1005859-0.0517578-0.2177734-0.0844727-0.3554688-0.1005859c-0.1425781-0.0146484-0.3125-0.0224609-0.5136719-0.0224609
						h-0.953125v1.6992188h0.8046875c0.265625,0,0.4824219-0.0146484,0.6523438-0.0424805
						c0.1689453-0.0263672,0.3066406-0.078125,0.4179688-0.1508789c0.1113281-0.0795898,0.1953125-0.1708984,0.2490234-0.2729492
						C105.9658203,38.4487305,105.9921875,38.3164062,105.9921875,38.1547852z"/>
					<path d="M112.359375,35.4931641c0.1855469,0.2050781,0.328125,0.4555664,0.4238281,0.7519531
						c0.1005859,0.2954102,0.1484375,0.6318359,0.1484375,1.0078125s-0.0478516,0.7138672-0.1484375,1.0102539
						c-0.1005859,0.2983398-0.2441406,0.5458984-0.4238281,0.7446289c-0.1904297,0.206543-0.4130859,0.3613281-0.6669922,0.4658203
						c-0.2597656,0.1035156-0.5517578,0.15625-0.8798828,0.15625c-0.3232422,0-0.6142578-0.0527344-0.8740234-0.1601562
						c-0.2646484-0.105957-0.4873047-0.2592773-0.6728516-0.4619141s-0.3222656-0.4516602-0.4238281-0.7456055
						c-0.0996094-0.2939453-0.1484375-0.6303711-0.1484375-1.0092773c0-0.3720703,0.0488281-0.7055664,0.1484375-1.0009766
						c0.0957031-0.2954102,0.2382812-0.5483398,0.4296875-0.7587891c0.1796875-0.2001953,0.4023438-0.3535156,0.6669922-0.4594727
						s0.5566406-0.1591797,0.8740234-0.1591797c0.328125,0,0.6201172,0.0532227,0.8798828,0.1601562
						C111.9511719,35.1420898,112.1738281,35.2958984,112.359375,35.4931641z M112.3007812,37.2529297
						c0-0.5917969-0.1318359-1.050293-0.3964844-1.3720703c-0.265625-0.3217773-0.6308594-0.4819336-1.0917969-0.4819336
						s-0.8261719,0.1601562-1.0908203,0.4819336s-0.3974609,0.7802734-0.3974609,1.3720703
						c0,0.6000977,0.1376953,1.0581055,0.4023438,1.3759766c0.2705078,0.3178711,0.6357422,0.4765625,1.0859375,0.4765625
						c0.4560547,0,0.8164062-0.1586914,1.0859375-0.4765625C112.1689453,38.3110352,112.3007812,37.8530273,112.3007812,37.2529297z
						"/>
					<path d="M118.7529297,37.7006836c0,0.3310547-0.0322266,0.6196289-0.1054688,0.8657227
						c-0.0742188,0.2480469-0.1914062,0.4516602-0.3603516,0.6162109c-0.1542969,0.1547852-0.3388672,0.2685547-0.5507812,0.340332
						c-0.2119141,0.0712891-0.4560547,0.1069336-0.7363281,0.1069336c-0.2861328,0-0.5351562-0.0380859-0.7470703-0.1137695
						s-0.3916016-0.1865234-0.5351562-0.3334961c-0.1640625-0.168457-0.2861328-0.3710938-0.3603516-0.6079102
						c-0.0683594-0.2373047-0.1054688-0.5283203-0.1054688-0.8740234V34.96875h0.6035156v2.7636719
						c0,0.2460938,0.0214844,0.4423828,0.0527344,0.5854492c0.0322266,0.1430664,0.0898438,0.2724609,0.1699219,0.3891602
						c0.0898438,0.1323242,0.2119141,0.2329102,0.3652344,0.3007812c0.1542969,0.0673828,0.3388672,0.1005859,0.5566406,0.1005859
						c0.2226562,0,0.4072266-0.0332031,0.5615234-0.0996094c0.1533203-0.065918,0.2753906-0.1665039,0.3652344-0.3017578
						c0.0791016-0.1166992,0.1376953-0.2504883,0.1689453-0.3999023c0.0371094-0.1508789,0.0537109-0.3378906,0.0537109-0.5600586
						V34.96875h0.6035156V37.7006836z"/>
					<path d="M124.6855469,35.5087891h-1.6308594v4.0258789h-0.609375v-4.0258789h-1.6318359V34.96875h3.8720703V35.5087891z"/>
				</g>
			</g>
			<g>
				<g>
					<path d="M100.7587891,96.3232422c0,0.1777344-0.0371094,0.3535156-0.1220703,0.5273438
						c-0.0839844,0.1738281-0.2011719,0.3222656-0.3496094,0.4414062c-0.1640625,0.1308594-0.3544922,0.234375-0.5722656,0.3066406
						c-0.2167969,0.0742188-0.4765625,0.1113281-0.7832031,0.1113281c-0.328125,0-0.625-0.03125-0.890625-0.09375
						c-0.2587891-0.0605469-0.5292969-0.1523438-0.7988281-0.2714844v-0.7597656h0.0419922
						c0.2333984,0.1914062,0.4980469,0.3398438,0.7998047,0.4433594s0.5878906,0.15625,0.8525391,0.15625
						c0.3759766,0,0.6679688-0.0703125,0.8798828-0.2109375c0.2060547-0.1425781,0.3125-0.3300781,0.3125-0.5644531
						c0-0.203125-0.0478516-0.3515625-0.1484375-0.4472656c-0.1005859-0.0976562-0.2490234-0.171875-0.4501953-0.2246094
						c-0.1533203-0.0410156-0.3232422-0.0742188-0.4980469-0.1015625c-0.1806641-0.0253906-0.3710938-0.0585938-0.5722656-0.0996094
						c-0.4023438-0.0878906-0.7041016-0.234375-0.9003906-0.4414062s-0.2919922-0.4765625-0.2919922-0.8105469
						c0-0.3808594,0.1650391-0.6953125,0.4824219-0.9394531c0.3232422-0.2441406,0.7363281-0.3671875,1.234375-0.3671875
						c0.3183594,0,0.6142578,0.03125,0.8789062,0.0917969c0.2705078,0.0625,0.5087891,0.1386719,0.7158203,0.2285156v0.7167969
						h-0.0429688c-0.1748047-0.1484375-0.4023438-0.2695312-0.6884766-0.3671875
						c-0.2802734-0.0976562-0.5722656-0.1445312-0.8691406-0.1445312c-0.3222656,0-0.5878906,0.0664062-0.7832031,0.203125
						c-0.1962891,0.1328125-0.296875,0.3085938-0.296875,0.5195312c0,0.1914062,0.0527344,0.3398438,0.1484375,0.4472656
						c0.1005859,0.109375,0.2695312,0.1914062,0.5195312,0.25c0.1318359,0.0273438,0.3173828,0.0625,0.5556641,0.1035156
						c0.2431641,0.0410156,0.4453125,0.0820312,0.6142578,0.125c0.3398438,0.0898438,0.59375,0.2265625,0.7685547,0.4082031
						C100.6738281,95.7412109,100.7587891,95.9970703,100.7587891,96.3232422z"/>
					<path d="M106.5058594,93.6005859H104.875v4.0253906h-0.609375v-4.0253906h-1.6318359v-0.5410156h3.8720703V93.6005859z"/>
					<path d="M111.8935547,93.5849609c0.1855469,0.2050781,0.328125,0.4550781,0.4287109,0.7519531
						c0.1005859,0.2949219,0.1484375,0.6308594,0.1484375,1.0078125c0,0.375-0.0527344,0.7128906-0.1533203,1.0097656
						c-0.1005859,0.2988281-0.2441406,0.546875-0.4238281,0.7441406c-0.1855469,0.2070312-0.4082031,0.3613281-0.6679688,0.4667969
						c-0.2539062,0.1035156-0.5507812,0.15625-0.8789062,0.15625c-0.3173828,0-0.609375-0.0527344-0.8740234-0.1601562
						c-0.2646484-0.1054688-0.4873047-0.2597656-0.6679688-0.4628906c-0.1845703-0.2011719-0.328125-0.4511719-0.4287109-0.7441406
						c-0.0947266-0.2949219-0.1484375-0.6308594-0.1484375-1.0097656c0-0.3730469,0.0537109-0.7050781,0.1484375-1.0019531
						c0.1005859-0.2949219,0.2441406-0.546875,0.4287109-0.7578125c0.1806641-0.2011719,0.4033203-0.3535156,0.6728516-0.4589844
						c0.2646484-0.1074219,0.5566406-0.1601562,0.8691406-0.1601562c0.328125,0,0.625,0.0527344,0.8847656,0.1601562
						C111.4902344,93.2333984,111.7128906,93.3876953,111.8935547,93.5849609z M111.8398438,95.3447266
						c0-0.5917969-0.1318359-1.0507812-0.4023438-1.3730469c-0.2646484-0.3203125-0.625-0.4804688-1.0859375-0.4804688
						c-0.4658203,0-0.8310547,0.1601562-1.0908203,0.4804688c-0.2646484,0.3222656-0.3974609,0.78125-0.3974609,1.3730469
						c0,0.5996094,0.1328125,1.0585938,0.4023438,1.375c0.2705078,0.3183594,0.6308594,0.4765625,1.0859375,0.4765625
						c0.4560547,0,0.8164062-0.1582031,1.0859375-0.4765625C111.703125,96.4033203,111.8398438,95.9443359,111.8398438,95.3447266z"
						/>
					<path d="M118.6210938,97.6259766h-0.7900391l-1.5253906-1.8144531h-0.8525391v1.8144531h-0.609375v-4.5664062h1.2763672
						c0.2753906,0,0.5087891,0.0195312,0.6943359,0.0546875c0.1796875,0.0351562,0.3496094,0.0996094,0.4921875,0.1914062
						c0.1699219,0.1035156,0.296875,0.2363281,0.3925781,0.3945312c0.0898438,0.1582031,0.1376953,0.359375,0.1376953,0.6015625
						c0,0.3300781-0.0849609,0.6054688-0.2490234,0.8261719c-0.1640625,0.2226562-0.3925781,0.390625-0.6835938,0.5019531
						L118.6210938,97.6259766z M117.2011719,94.3466797c0-0.1308594-0.0214844-0.2480469-0.0693359-0.3496094
						s-0.1220703-0.1855469-0.2275391-0.2558594c-0.0898438-0.0585938-0.1904297-0.1015625-0.3125-0.1230469
						c-0.1220703-0.0234375-0.2646484-0.0371094-0.4238281-0.0371094h-0.7148438v1.7246094h0.609375
						c0.1953125,0,0.359375-0.0175781,0.5029297-0.0507812c0.1425781-0.0332031,0.2646484-0.0976562,0.3652344-0.1875
						c0.0957031-0.0878906,0.1591797-0.1855469,0.2070312-0.296875
						C117.1796875,94.6591797,117.2011719,94.5166016,117.2011719,94.3466797z"/>
					<path d="M123.7167969,97.6259766h-3.0087891v-4.5664062h3.0087891v0.5410156h-2.4003906v1.2519531h2.4003906v0.5390625
						h-2.4003906v1.6953125h2.4003906V97.6259766z"/>
				</g>
			</g>
		</g>
	</g>
</g>
</svg>
