<?xml version="1.0" encoding="utf-8"?>
<!-- Generator: Adobe Illustrator 16.0.0, SVG Export Plug-In . SVG Version: 6.00 Build 0)  -->
<!DOCTYPE svg PUBLIC "-//W3C//DTD SVG 1.1//EN" "http://www.w3.org/Graphics/SVG/1.1/DTD/svg11.dtd">
<svg version="1.1" id="Layer_1" xmlns="http://www.w3.org/2000/svg" xmlns:xlink="http://www.w3.org/1999/xlink" x="0px" y="0px"
	 width="150px" height="150px" viewBox="0 0 150 150" style="enable-background:new 0 0 150 150;" xml:space="preserve">
<g id="art">
	<g>
		<g>
			<path d="M12.7949219,78.1220703c4.5625-13.8730469,16.0185547-47.0390625,16.0185547-47.0390625h3.7294922v79.6445312h-6.7099609
				c0,0,0-28.6933594,0-50.2080078c0-2.2314453-0.4658203-0.3662109-0.4658203-0.2773438
				c-2.6015625,8.1972656-10.9023438,34.5576172-12.5722656,39.9619141c-0.3720703,1.0273438-0.7470703,0.7441406-1.0205078,0
				c-1.7773438-5.9658203-11.0898438-34.46875-12.6796875-39.4960938c-0.2744141-1.2099609-0.5546875-1.4873047-0.5546875,0
				c0,1.0263672,0,50.0195312,0,50.0195312h-6.7060547V31.0830078h4.1933594c0,0,12.2978516,36.1396484,15.6484375,46.9501953
				C12.0478516,79.0556641,12.3291016,79.4277344,12.7949219,78.1220703z"/>
			<path d="M45.5820312,110.7275391V31.0830078h6.7099609v79.6445312H45.5820312z"/>
			<path d="M72.1289062,104.8554688h18.9140625v5.8720703H65.4287109V31.0830078h6.7001953V104.8554688z"/>
			<path d="M108,104.8554688h18.9072266v5.8720703h-25.6142578V31.0830078H108V104.8554688z"/>
			<path d="M161.2851562,110.7275391h-24.1279297V31.2724609h24.5878906v5.6826172H143.859375v29.5302734h16.6738281v5.8720703
				H143.859375v32.4980469h17.4257812V110.7275391z"/>
		</g>
	</g>
	<rect y="15.1220703" width="150" height="5"/>
	<rect y="124.1279297" width="150" height="5"/>
</g>
</svg>
