<?xml version="1.0" encoding="utf-8"?>
<!-- Generator: Adobe Illustrator 16.0.0, SVG Export Plug-In . SVG Version: 6.00 Build 0)  -->
<!DOCTYPE svg PUBLIC "-//W3C//DTD SVG 1.1//EN" "http://www.w3.org/Graphics/SVG/1.1/DTD/svg11.dtd">
<svg version="1.1" id="Layer_1" xmlns="http://www.w3.org/2000/svg" xmlns:xlink="http://www.w3.org/1999/xlink" x="0px" y="0px"
	 width="150px" height="150px" viewBox="0 0 150 150" style="enable-background:new 0 0 150 150;" xml:space="preserve">
<g id="art">
	<g>
		<g>
			<path d="M25,100.0478516c1.3056641,0.2851562,2.1220703,0.4482422,2.8564453,0.4482422
				c3.6328125,0,4.4082031-1.7138672,4.4082031-4.4482422V49.340332h-4.1621094v-1.8364258h10.4082031v1.8364258h-3.9599609
				v46.4213867c0,4.9794922-2.5712891,6.734375-6.8164062,6.734375c-1.3466797,0-1.9179688-0.1630859-2.734375-0.4492188
				V100.0478516z"/>
			<path d="M50.1025391,55.3813477c5.46875,0,9.6318359,4.4082031,9.6318359,10.2041016s-4.1630859,10.2041016-9.6318359,10.2041016
				c-5.4697266,0-9.5917969-4.4082031-9.5917969-10.2041016S44.6328125,55.3813477,50.1025391,55.3813477z M50.1025391,73.8710938
				c4.2851562,0,7.46875-3.5102539,7.46875-8.2856445s-3.1835938-8.2861328-7.46875-8.2861328
				c-4.2861328,0-7.4296875,3.5107422-7.4296875,8.2861328S45.8164062,73.8710938,50.1025391,73.8710938z"/>
			<path d="M65.1220703,66.034668c0,4.4482422,3.6328125,8.0400391,8.1230469,8.0400391
				c2.9794922,0,5.6728516-1.5097656,7.5507812-4.2036133l1.6738281,0.7753906C80.5917969,73.8300781,77,75.7895508,73,75.7895508
				c-5.8369141,0-10-4.2446289-10-10.2041016c0-5.9589844,4.0810547-10.2041016,9.8369141-10.2041016
				c5.6738281,0,9.5097656,4.2041016,9.6328125,10.6533203H65.1220703z M80.2646484,64.1977539
				c-0.734375-4.4492188-3.5507812-7.0205078-7.5917969-7.0205078c-3.9589844,0-6.7753906,2.652832-7.5097656,7.0205078H80.2646484z
				"/>
			<path d="M84.3056641,99.1289062h3.4697266L87.734375,49.340332h-3.5107422v-1.8364258h5.6328125l0.0410156,51.625h3.4697266
				v1.8369141h-9.0615234V99.1289062z"/>
		</g>
		<path d="M42.5107422,91.7207031c0,4.4492188,3.6318359,8.0410156,8.1220703,8.0410156
			c2.9794922,0,5.6728516-1.5097656,7.5507812-4.2041016l1.6738281,0.7753906
			c-1.8779297,3.1835938-5.4697266,5.1425781-9.4697266,5.1425781c-5.8369141,0-10-4.2441406-10-10.203125
			c0-5.9599609,4.0820312-10.2050781,9.8369141-10.2050781c5.6728516,0,9.5097656,4.2050781,9.6328125,10.6533203H42.5107422z
			 M57.6533203,89.8837891c-0.7353516-4.4482422-3.5507812-7.0195312-7.5917969-7.0195312
			c-3.9589844,0-6.7753906,2.6523438-7.5107422,7.0195312H57.6533203z"/>
		<path d="M65.1425781,94.2099609h1.8779297c0,3.1845703,2.4082031,5.3476562,6,5.3476562
			c3.1425781,0,5.3876953-1.5917969,5.3876953-3.8369141c0-5.7958984-12.2041016-1.5107422-12.2041016-9.1425781
			c0-3.0205078,2.6123047-5.265625,6.0410156-5.265625c2.2441406,0,4.0410156,0.8164062,5.3056641,2.5302734h0.0820312v-2.2441406
			h1.7958984v6.3261719h-1.7958984c-0.0820312-2.8164062-2.2861328-4.8564453-5.3066406-4.8564453
			c-3.0615234,0-4.2041016,1.9990234-4.2041016,3.5498047c0,5.3066406,12.2041016,1.265625,12.2041016,8.9394531
			c0,3.4287109-2.8974609,5.6328125-7.3466797,5.6328125c-2.734375,0-4.6533203-0.8574219-5.8779297-2.6933594h-0.0810547v2.4082031
			h-1.8779297V94.2099609z"/>
		<path d="M88.8369141,90.6601562L99,83.5166016v-0.0820312h-2.9384766v-1.8359375h8.0400391v1.8359375h-2.4892578
			l-10.1640625,7.2255859l9.6328125,8.4072266h3.3886719v1.8378906h-4.2050781l-11.4277344-9.9599609"/>
		<path d="M107.6533203,91.7207031c0,4.4492188,3.6328125,8.0410156,8.1220703,8.0410156
			c2.9794922,0,5.6738281-1.5097656,7.5507812-4.2041016L125,96.3330078
			c-1.8779297,3.1835938-5.4697266,5.1425781-9.4697266,5.1425781c-5.8359375,0-10-4.2441406-10-10.203125
			c0-5.9599609,4.0820312-10.2050781,9.8369141-10.2050781c5.6738281,0,9.5107422,4.2050781,9.6328125,10.6533203H107.6533203z
			 M122.7958984,89.8837891c-0.734375-4.4482422-3.5507812-7.0195312-7.5917969-7.0195312
			c-3.9589844,0-6.7753906,2.6523438-7.5097656,7.0195312H122.7958984z"/>
	</g>
</g>
</svg>
