<?xml version="1.0" encoding="utf-8"?>
<!-- Generator: Adobe Illustrator 16.0.0, SVG Export Plug-In . SVG Version: 6.00 Build 0)  -->
<!DOCTYPE svg PUBLIC "-//W3C//DTD SVG 1.1//EN" "http://www.w3.org/Graphics/SVG/1.1/DTD/svg11.dtd">
<svg version="1.1" id="Layer_1" xmlns="http://www.w3.org/2000/svg" xmlns:xlink="http://www.w3.org/1999/xlink" x="0px" y="0px"
	 width="150px" height="150px" viewBox="0 0 150 150" style="enable-background:new 0 0 150 150;" xml:space="preserve">
<g id="art">
	<g>
		<path style="fill:none;" d="M140.9306641,1.9428711c0.2265625,0.1577148,0.3710938,0.4365234,0.6025391,0.5805664
			c1.6191406,1.0229492,2.0166016,2.5224609,1.7802734,4.3134766c-0.0722656,0.5498047-0.0117188,1.1181641-0.0117188,1.6772461
			c0.9863281-0.1875,1.4335938,0.4228516,1.6757812,1.2109375c0.6679688,2.1816406,0.6513672,2.1347656,2.3378906,2.1787109"/>
		<path style="fill:none;" d="M25.4462891,64.0703125c-0.0693359-0.5488281-0.0097656-1.1152344-0.0097656-1.6723633
			c-1.7294922,0.2348633-3.2138672-0.1123047-4.2578125-1.6679688c-0.0839844-0.1269531-0.5214844-0.0166016-0.7939453-0.0166016
			c0,0.550293,0.0078125,1.1005859-0.0019531,1.6518555c-0.0195312,1.1977539-1.0537109,2.078125-2.0703125,1.6967773
			c-0.4736328-0.1762695-0.9257812-0.4941406-1.296875-0.8422852c-1.3818359-1.3081055-2.9404297-0.9111328-4.4931641-0.5136719
			c-0.2207031,0.0566406-0.5341797,0.3774414-0.5361328,0.5771484c-0.0253906,7.7060547-0.0136719,15.4111328-0.0332031,23.1181641
			c-0.0019531,0.7871094-0.0751953,1.6005859-0.2861328,2.3554688c-0.171875,0.6142578-0.7548828,0.7714844-1.3867188,0.5810547
			c0,2.8076172,0,5.6123047,0,8.4189453c0,7.296875,0,14.5947266,0,21.8886719
			c1.34375,0.2207031,1.4638672,0.3417969,1.6845703,1.6845703c1.3955078,0,2.7919922,0.0244141,4.1865234-0.0244141
			c0.2060547-0.0078125,0.5048828-0.3261719,0.5771484-0.5576172c0.1591797-0.4990234,0.2734375-1.0371094,0.2763672-1.5595703
			c0.0205078-4.7451172-0.1367188-9.4960938,0.0703125-14.2333984c0.1152344-2.6142578-1.2265625-5.5576172,1.3388672-7.8193359
			c0.3085938-0.2695312,0.2734375-1.0136719,0.2734375-1.5361328c0.0185547-6.4208984-0.0048828-12.8417969,0.0234375-19.2617188
			c0.0068359-1.640625,0.1513672-3.2807617,0.234375-4.9228516c1.3466797-0.7631836,1.296875-2.2373047,1.7900391-3.4458008
			c0.2753906-0.6777344,0.6435547-0.4707031,1.1904297,0.1259766c0.9785156,1.0703125,0.9580078,0.8803711,1.7695312,0.3017578
			C25.25,67.2900391,25.6757812,65.8520508,25.4462891,64.0703125z"/>
		<path style="fill:none;" d="M1.8300781,143.6582031c-0.0058594-1.3007812,0.7841797-1.9208984,1.4541016-2.7646484
			c0.2851562-0.359375,0.2519531-1.0244141,0.2519531-1.5498047c0.0146484-5.5693359,0.0078125-11.1396484,0.0097656-16.7089844
			c0.0019531-0.7636719,0.6943359-1.2900391,1.6972656-1.3027344c0.5576172-0.0068359,1.1132812-0.0019531,1.6708984-0.0019531
			c1.1230469,0,2.2451172,0,3.3662109,0c0-0.5595703,0-1.1210938,0-1.6845703c0-7.2939453,0-14.5917969,0-21.8886719
			c-0.6367188-0.1953125-1.2753906-0.0322266-1.3984375,0.5917969c-0.5898438,3.0039062-0.1962891,6.0488281-0.2705078,9.0771484
			c-0.0644531,2.5039062-0.0097656,5.0107422-0.0166016,7.5166016c-0.0019531,0.7900391-0.5810547,1.328125-1.6591797,1.3056641
			c-0.6376953-0.0166016-1.1337891,0.0214844-1.4277344,0.6054688c-0.1875,0.3740234,0.0458984,0.8007812,0.6337891,1.1738281
			c0.6523438,0.4121094,0.7929688,0.8017578,0.3603516,1.1806641c-0.1943359,0.1728516-0.4248047,0.4052734-0.6513672,0.4199219
			c-0.8320312,0.0498047-1.6708984-0.0078125-2.5039062,0.0244141c-1.1142578,0.0419922-1.4804688,0.4267578-1.4833984,1.5107422
			c-0.0048828,2.2285156-0.03125,4.4541016,0.0195312,6.6796875c0.0126953,0.6220703-0.0019531,1.140625-0.4541016,1.4882812
			c-0.9365234,0.7236328-1.2890625,1.59375-1.2822266,2.8261719"/>
		<path style="fill:none;" d="M34.1484375,56.2451172c-0.2832031,1.2832031-0.3740234,2.609375-0.6015625,3.9077148
			c-0.0351562,0.2041016-0.5302734,0.5200195-0.5410156,0.5073242c-1.9775391-1.9301758-4.03125-3.7978516-5.8447266-5.8745117
			c-0.9873047-1.1293945-2.6748047-0.3608398-3.4804688-1.6958008C22.9824219,51.9375,21.75,52.3916016,20.7060547,52.2827148
			c-0.5097656-0.0532227-1.28125-0.0581055-1.4667969-0.3657227c-0.8183594-1.3671875-2.4667969-0.949707-3.4375-1.7539062
			c-0.8662109-0.7197266-1.6005859-1.2578125-2.8183594-1.3261719c-0.6289062-0.0356445-1.2099609-1.0019531-1.8134766-1.5478516
			c-1.5869141,0.3027344-2.4921875-0.7246094-3.4472656-1.7119141c-0.1337891-0.1376953-0.5341797-0.0175781-0.8085938-0.0175781
			c0,1.2998047,0.1123047,2.6147461-0.0439453,3.8950195c-0.0917969,0.7539062-0.6894531,1.3432617-1.640625,1.1557617
			c0,1.1235352,0,2.2446289,0,3.3686523c0.5615234,0,1.1220703,0,1.6845703,0
			c-0.1953125-0.6376953-0.0273438-1.1850586,0.5878906-1.4125977c1.5917969-0.5830078,3.2675781-0.2978516,4.8837891-0.1977539
			c0.65625,0.0410156,1.2099609,1.0180664,1.9091797,1.3671875c0.6806641,0.3383789,1.4921875,0.4160156,2.2451172,0.6088867
			c0.9677734,1.8774414,3.7636719,0.8823242,4.6201172,2.934082c1.5751953-0.2583008,2.5117188,0.7197266,3.4619141,1.7314453
			c0.1298828,0.1391602,0.5351562,0.0185547,0.8144531,0.0185547c1.3417969,0.2211914,1.4619141,0.3408203,1.6816406,1.6845703
			c0.7607422,0,1.5546875-0.1411133,2.2705078,0.0390625c0.71875,0.1816406,1.2832031,0.7294922,1.0976562,1.6455078
			c0.6396484-0.1962891,1.2802734-0.0327148,1.4023438,0.5917969c0.5859375,3.0068359,0.1542969,6.0571289,0.2832031,9.0864258
			c0.1123047,2.7504883-0.2832031,5.5244141,0.2822266,8.2490234c0.1269531,0.6269531,0.7607422,0.7890625,1.3994141,0.59375
			c0-5.7485352-0.0009766-11.4995117,0.0039062-17.2490234c0-0.6982422,0.5136719-1.0776367,1.6796875-1.2719727
			c0-2.246582,0-4.4916992,0-6.7348633C34.90625,55.4702148,34.2871094,55.6303711,34.1484375,56.2451172z"/>
		<path style="fill:none;" d="M16.6708984,59.543457c-0.1308594-0.2158203-0.4316406-0.5146484-0.6123047-0.4863281
			c-1.2441406,0.1879883-2.1103516-0.3535156-2.8378906-1.2866211c-0.3486328-0.4462891-0.8798828-0.5742188-1.4931641-0.4238281
			c-1.9248047,0.4736328-3.0732422-0.6738281-4.2509766-1.9140625c-0.4355469-0.4604492-0.7607422-0.8154297-0.5625-1.4536133
			c-0.5625,0-1.1230469,0-1.6845703,0c0,1.6577148,0.0878906,3.3237305-0.03125,4.9760742
			c-0.0742188,1.0273438,0.6201172,1.4423828,1.1484375,2.027832c0.7304688,0.8120117,1.4550781,1.4555664,2.7314453,1.4785156
			c1.0332031,0.015625,1.1826172,0.7045898,0.5410156,1.4438477c-0.3515625,0.4018555-0.953125,0.8076172-0.9746094,1.2353516
			c-0.0839844,1.640625,0,3.2900391,0.0791016,4.9355469c0.0097656,0.2041016,0.3623047,0.3955078,0.5634766,0.5849609
			c0.5976562,0.5678711,1.0292969,1.1367188,1.0195312,2.0800781c-0.0527344,5.5322266-0.0263672,11.0644531-0.0263672,16.5966797
			c0.6318359,0.1904297,1.2148438,0.0332031,1.3867188-0.5810547c0.2109375-0.7548828,0.2841797-1.5683594,0.2861328-2.3554688
			c0.0195312-7.7070312,0.0078125-15.4121094,0.0332031-23.1181641c0.0019531-0.199707,0.3154297-0.5205078,0.5361328-0.5771484
			c1.5527344-0.3974609,3.1113281-0.7944336,4.4931641,0.5136719c0.3710938,0.3481445,0.8232422,0.6660156,1.296875,0.8422852
			c1.0166016,0.3813477,2.0507812-0.4990234,2.0703125-1.6967773c0.0097656-0.5512695,0.0019531-1.1015625,0.0019531-1.6518555
			C19.0205078,60.7265625,17.5742188,61.0268555,16.6708984,59.543457z"/>
		<path style="fill:none;" d="M6.9140625,45.5595703c0-1.1235352,0-2.2451172,0-3.3681641c-0.5625,0-1.1230469,0-1.6845703,0
			c0,2.8066406,0,5.6113281,0,8.4189453c0.9511719,0.1875,1.5488281-0.4018555,1.640625-1.1557617
			C7.0263672,48.1743164,6.9140625,46.859375,6.9140625,45.5595703z"/>
		<path style="fill:none;" d="M134.2558594,2.0048828c0.2255859,0.1489258,0.4501953,0.3535156,0.5839844,0.5854492
			c1.2490234,2.1635742,1.25,2.1503906,2.8291016,2.8295898c0.6025391,0.2573242,0.7744141,0.7783203,0.5820312,1.4101562
			c1.7275391-0.2363281,3.2138672,0.1103516,4.2558594,1.668457c0.0849609,0.1264648,0.5214844,0.015625,0.7949219,0.015625
			c0-0.559082-0.0605469-1.1274414,0.0117188-1.6772461c0.2363281-1.7910156-0.1611328-3.2905273-1.7802734-4.3134766
			c-0.2314453-0.144043-0.3759766-0.4228516-0.6025391-0.5805664"/>
		<path style="fill:none;" d="M126.4804688,1.3583984c-0.09375,0.8183594-0.03125,1.659668-0.0107422,2.4882812
			c0.0175781,0.7583008,0.5439453,1.3056641,1.6777344,1.2539062c1.0585938-0.0483398,1.4697266,0.6616211,1.9902344,1.2290039
			c0.6884766,0.7539062,1.5195312,0.5668945,2.265625,0.4145508c0.8681641-0.1777344,1.2597656-2.1152344,0.3886719-2.7553711"/>
		<path style="fill:none;" d="M143.3017578,18.6176758c0,1.3681641-0.0927734,2.7480469,0.0429688,4.1010742
			c0.0615234,0.6079102,0.6552734,0.862793,1.0390625,0.6875c0.234375-0.105957,0.4677734-0.3388672,0.5673828-0.5742188
			c0.0986328-0.2299805,0.0126953-0.534668,0.0380859-0.8056641c0.1064453-1.1928711,0.5048828-1.7163086,1.109375-1.4389648
			c0.5869141,0.2685547,0.7597656,0.7729492,0.5722656,1.3984375c0.6337891,0.1933594,0.9990234-0.1049805,1.4433594-0.5585938
			c1.0898438-1.1152344,1.1328125-1.0732422,1.7402344-0.4672852"/>
		<path style="fill:none;" d="M147.3154297,11.9038086c-1.6865234-0.0439453-1.6699219,0.0029297-2.3378906-2.1787109
			c-0.2421875-0.7880859-0.6894531-1.3984375-1.6757812-1.2109375c0,0.5336914,0.0673828,1.0751953-0.0107422,1.5957031
			c-0.3583984,2.4038086,0.8359375,3.9858398,2.7617188,5.1054688c0.3769531,0.21875,1.0322266,0.03125,1.5361328-0.0708008
			c0.2158203-0.0439453,0.4160156-0.3310547,0.5644531-0.5449219"/>
		<path style="fill:none;" d="M76.3671875,0.0322266C78.3662109-0.203125,79.4902344,0.8769531,80.5,2.1669922
			c0.9941406,1.2705078,2.2314453,1.3696289,3.6474609,1.3125c1.4345703-0.0581055,1.9091797-0.4907227,1.9072266-1.9379883"/>
		<path style="fill:none;" d="M27.1181641,71.6191406c0-3.0742188,0-6.1479492,0-9.2211914c-0.5605469,0-1.1220703,0-1.6816406,0
			c0,0.5571289-0.0595703,1.1235352,0.0097656,1.6723633c0.2294922,1.7817383-0.1962891,3.2197266-1.7509766,4.3266602
			c-0.8115234,0.5786133-0.7910156,0.7685547-1.7695312-0.3017578c-0.546875-0.5966797-0.9150391-0.8037109-1.1904297-0.1259766
			c-0.4931641,1.2084961-0.4433594,2.6826172-1.7900391,3.4458008c-0.0830078,1.6420898-0.2275391,3.2822266-0.234375,4.9228516
			c-0.0283203,6.4199219-0.0048828,12.8408203-0.0234375,19.2617188c0,0.5224609,0.0351562,1.2666016-0.2734375,1.5361328
			c-2.5654297,2.2617188-1.2236328,5.2050781-1.3388672,7.8193359c-0.2070312,4.7373047-0.0498047,9.4882812-0.0703125,14.2333984
			c-0.0029297,0.5224609-0.1171875,1.0605469-0.2763672,1.5595703c-0.0722656,0.2314453-0.3710938,0.5498047-0.5771484,0.5576172
			c-1.3945312,0.0488281-2.7910156,0.0244141-4.1865234,0.0244141c0,0.5625,0,1.1230469,0,1.6855469
			c0.7607422,0,1.5537109-0.140625,2.2695312,0.0380859c0.71875,0.1806641,1.2832031,0.7294922,1.0986328,1.6435547
			c0.5615234,0,1.1210938,0,1.6826172,0c1.34375,0.2226562,1.4638672,0.3417969,1.6835938,1.6845703
			c0.2685547,0,0.6464844-0.1152344,0.7890625,0.0185547c1.1777344,1.0917969,2.2978516,2.2412109,3.4736328,3.3310547
			c0.1445312,0.1347656,0.5205078,0.0195312,0.7910156,0.0195312c0-6.7070312,0.0302734-13.4150391-0.0351562-20.1230469
			c-0.0078125-1.0244141,0.6337891-1.4492188,1.1582031-2.0488281c0.1806641-0.2060547,0.5029297-0.3857422,0.5341797-0.6083984
			c0.0771484-0.5478516,0.0263672-1.1152344,0.0263672-1.6728516c0-9.2236328,0.0224609-18.4472656-0.0341797-27.6689453
			c-0.0068359-1.0292969,0.6396484-1.4453125,1.1611328-2.0463867c0.1806641-0.2094727,0.5195312-0.4003906,0.53125-0.6113281
			C27.1474609,73.855957,27.1181641,72.737793,27.1181641,71.6191406z"/>
		<path style="fill:none;" d="M24.6220703,59.0102539c-0.9501953-1.0117188-1.8867188-1.9897461-3.4619141-1.7314453
			c-0.8564453-2.0517578-3.6523438-1.0566406-4.6201172-2.934082c-0.7529297-0.1928711-1.5644531-0.2705078-2.2451172-0.6088867
			c-0.6992188-0.3491211-1.2529297-1.3261719-1.9091797-1.3671875c-1.6162109-0.1000977-3.2919922-0.3852539-4.8837891,0.1977539
			c-0.6152344,0.2275391-0.7832031,0.7749023-0.5878906,1.4125977c-0.1982422,0.6381836,0.1269531,0.9931641,0.5625,1.4536133
			c1.1777344,1.2402344,2.3261719,2.3876953,4.2509766,1.9140625c0.6132812-0.1503906,1.1445312-0.0224609,1.4931641,0.4238281
			c0.7275391,0.9331055,1.59375,1.4746094,2.8378906,1.2866211c0.1806641-0.0283203,0.4814453,0.2705078,0.6123047,0.4863281
			c0.9033203,1.4833984,2.3496094,1.1831055,3.7138672,1.1699219c0.2724609,0,0.7099609-0.1103516,0.7939453,0.0166016
			c1.0439453,1.5556641,2.5283203,1.902832,4.2578125,1.6679688c0-1.1235352,0-2.246582,0-3.3691406
			C25.1572266,59.0288086,24.7519531,59.1494141,24.6220703,59.0102539z"/>
		<path style="fill:none;" d="M10.2802734,119.6455078c0,0.5634766,0,1.125,0,1.6845703c0.5605469,0,1.1230469,0,1.6845703,0
			C11.7441406,119.9873047,11.6240234,119.8662109,10.2802734,119.6455078z"/>
		<path style="fill:none;" d="M16.9853516,145.6923828c-0.0048828-1.2167969,0.2509766-2.1357422,1.2353516-2.8388672
			c0.4853516-0.3457031,0.5263672-0.8398438,0.5019531-1.4677734c-0.0654297-1.6630859-0.0234375-3.3320312-0.0234375-5
			c0-3.3339844,0-6.6689453,0-10.0039062c-1.3417969-0.2197266-1.4609375-0.3388672-1.6835938-1.6845703
			c-0.5615234,0-1.1210938,0-1.6826172,0c-0.7607422,0-1.5537109,0.1425781-2.2695312-0.0400391
			c-0.71875-0.1777344-1.2832031-0.7255859-1.0986328-1.6416016c-1.3007812,0-2.6142578,0.1113281-3.8955078-0.0429688
			c-0.7539062-0.0947266-1.34375-0.6914062-1.1552734-1.6425781c-0.5576172,0-1.1132812-0.0048828-1.6708984,0.0019531
			c-1.0029297,0.0126953-1.6953125,0.5390625-1.6972656,1.3027344c-0.0019531,5.5693359,0.0048828,11.1396484-0.0097656,16.7089844
			c0,0.5253906,0.0332031,1.1904297-0.2519531,1.5498047c-0.6699219,0.84375-1.4599609,1.4638672-1.4541016,2.7646484"/>
		<path style="fill:none;" d="M23.7529297,129.7509766c-0.2705078,0-0.6464844,0.1152344-0.7910156-0.0195312
			c-1.1757812-1.0898438-2.2958984-2.2392578-3.4736328-3.3310547c-0.1425781-0.1337891-0.5205078-0.0185547-0.7890625-0.0185547
			c0,3.3349609,0,6.6699219,0,10.0039062c0,1.6679688-0.0419922,3.3369141,0.0234375,5
			c0.0244141,0.6279297-0.0166016,1.1220703-0.5019531,1.4677734c-0.984375,0.703125-1.2402344,1.6220703-1.2353516,2.8388672"/>
		<path style="fill:none;" d="M10.2802734,121.3300781c-1.1210938,0-2.2431641,0-3.3662109,0
			c-0.1884766,0.9511719,0.4013672,1.5478516,1.1552734,1.6425781c1.28125,0.1542969,2.5947266,0.0429688,3.8955078,0.0429688
			c0-0.5625,0-1.1230469,0-1.6855469C11.4033203,121.3300781,10.8408203,121.3300781,10.2802734,121.3300781z"/>
		<path style="fill:none;" d="M32.171875,115.4511719c0-1.0429688-0.0019531-1.0449219,1.1748047-2.8681641
			c0.1435547-0.2246094,0.4560547-0.4052734,0.484375-0.6308594c0.0722656-0.5498047,0.0224609-1.1171875,0.0224609-1.6748047
			c0-9.7851562,0-19.5732422,0-29.3583984c-0.6386719,0.1953125-1.2724609,0.0332031-1.3994141-0.59375
			c-0.5654297-2.7246094-0.1699219-5.4985352-0.2822266-8.2490234c-0.1289062-3.0292969,0.3027344-6.0795898-0.2832031-9.0864258
			c-0.1220703-0.6245117-0.7626953-0.7880859-1.4023438-0.5917969c0,6.7250977-0.015625,13.4516602,0.0244141,20.1782227
			C30.515625,83.21875,30.375,83.5888672,29.9365234,84.0439453c-0.7060547,0.7324219-0.6367188,0.8007812,0.1386719,2.3535156
			c0.1181641,0.2333984,0.3955078,0.4492188,0.3925781,0.6689453c-0.0224609,1.6591797-0.0996094,3.3173828-0.1572266,4.9726562
			c-2.4501953,1.8925781-1.3486328,4.5888672-1.4619141,6.9472656c-0.1738281,3.6357422-0.0458984,7.2832031-0.0458984,10.9277344
			c0,3.3652344,0.1318359,6.734375-0.0439453,10.0888672c-0.1240234,2.3632812,0.9677734,5.0380859-1.3916016,6.9746094
			c-0.3398438,2.4462891-0.4580078,4.890625,0.09375,7.3251953c2.1650391,1.3417969,1.0595703,3.5087891,1.3505859,5.3271484
			c0.1572266,0.9755859-0.4082031,1.5712891-1.0517578,2.0791016c-0.5126953,0.4052734-0.6591797,0.8095703-0.6591797,1.4287109"/>
		<path style="fill:none;" d="M27.1005859,143.1376953c0-0.6191406,0.1464844-1.0234375,0.6591797-1.4287109
			c0.6435547-0.5078125,1.2089844-1.1035156,1.0517578-2.0791016c-0.2910156-1.8183594,0.8144531-3.9853516-1.3505859-5.3271484
			c-0.5517578-2.4345703-0.4335938-4.8789062-0.09375-7.3251953c2.359375-1.9365234,1.2675781-4.6113281,1.3916016-6.9746094
			c0.1757812-3.3544922,0.0439453-6.7236328,0.0439453-10.0888672c0-3.6445312-0.1279297-7.2919922,0.0458984-10.9277344
			c0.1132812-2.3583984-0.9882812-5.0546875,1.4619141-6.9472656c0.0576172-1.6552734,0.1347656-3.3134766,0.1572266-4.9726562
			c0.0029297-0.2197266-0.2744141-0.4355469-0.3925781-0.6689453c-0.7753906-1.5527344-0.8447266-1.6210938-0.1386719-2.3535156
			C30.375,83.5888672,30.515625,83.21875,30.5107422,82.5761719c-0.0400391-6.7265625-0.0244141-13.453125-0.0244141-20.1782227
			c0.1855469-0.9160156-0.3789062-1.4638672-1.0976562-1.6455078c-0.7158203-0.1801758-1.5097656-0.0390625-2.2705078-0.0390625
			c0,0.5610352,0,1.1220703,0,1.6845703c0,3.0732422,0,6.1469727,0,9.2211914c0,1.1186523,0.0292969,2.2368164-0.0234375,3.3520508
			c-0.0117188,0.2109375-0.3505859,0.4018555-0.53125,0.6113281c-0.5214844,0.6010742-1.1679688,1.0170898-1.1611328,2.0463867
			c0.0566406,9.2216797,0.0341797,18.4453125,0.0341797,27.6689453c0,0.5576172,0.0507812,1.125-0.0263672,1.6728516
			c-0.03125,0.2226562-0.3535156,0.4023438-0.5341797,0.6083984c-0.5244141,0.5996094-1.1660156,1.0244141-1.1582031,2.0488281
			c0.0654297,6.7080078,0.0351562,13.4160156,0.0351562,20.1230469"/>
		<path style="fill:none;" d="M34.9863281,54.2250977c-1.1640625-1.1899414-2.2490234-2.3891602-4.171875-1.940918
			c-0.8876953,0.2084961-1.5712891-0.2460938-2.0839844-0.921875c-0.3789062-0.4907227-0.7958984-0.8217773-1.3457031-0.7407227
			c-0.9326172,0.1357422-1.6210938-0.3051758-2.0556641-0.996582c-0.7060547-1.125-1.9970703-0.3969727-2.8779297-1.1025391
			c-1.6640625-1.3334961-1.7236328-1.3286133-2.7607422-1.2661133c-1.1347656,0.0683594-2.1044922-0.0625-2.8935547-1.0400391
			c-0.6884766-0.8496094-1.5224609-1.5888672-2.3398438-2.3217773c-0.1513672-0.1376953-0.5322266-0.019043-0.8085938-0.019043
			c-0.5507812,0-1.1113281-0.0703125-1.6484375,0.0175781c-0.6376953,0.1049805-1.0996094-0.0209961-1.4277344-0.5673828
			c-0.8808594-1.4667969-2.3212891-1.1328125-3.6582031-1.1342773c0,1.1230469,0,2.2446289,0,3.3681641
			c0.2744141,0,0.6748047-0.1201172,0.8085938,0.0175781c0.9550781,0.9873047,1.8603516,2.0146484,3.4472656,1.7119141
			c0.6035156,0.5458984,1.1845703,1.512207,1.8134766,1.5478516c1.2177734,0.0683594,1.9521484,0.6064453,2.8183594,1.3261719
			c0.9707031,0.8041992,2.6191406,0.3867188,3.4375,1.7539062c0.1855469,0.3076172,0.9570312,0.3125,1.4667969,0.3657227
			C21.75,52.3916016,22.9824219,51.9375,23.6806641,53.0898438c0.8056641,1.3349609,2.4931641,0.5664062,3.4804688,1.6958008
			c1.8134766,2.0766602,3.8671875,3.9443359,5.8447266,5.8745117c0.0107422,0.0126953,0.5058594-0.3032227,0.5410156-0.5073242
			c0.2275391-1.2983398,0.3183594-2.6245117,0.6015625-3.9077148c0.1386719-0.6147461,0.7578125-0.7749023,1.3886719-0.5820312
			C35.7285156,55.0322266,35.4248047,54.6723633,34.9863281,54.2250977z"/>
		<path style="fill:none;" d="M35.5371094,77.5498047c0-5.050293,0-10.1010742,0-15.1518555
			c-1.1660156,0.1943359-1.6796875,0.5737305-1.6796875,1.2719727c-0.0048828,5.7495117-0.0039062,11.5004883-0.0039062,17.2490234
			c0.9169922,0.1845703,1.4638672-0.3798828,1.6455078-1.0976562
			C35.6787109,79.1064453,35.5371094,78.3115234,35.5371094,77.5498047z"/>
		<path style="fill:none;" d="M25.4365234,59.0288086c0,1.1225586,0,2.2456055,0,3.3691406c0.5595703,0,1.1210938,0,1.6816406,0
			c0-0.5625,0-1.1235352,0-1.6845703C26.8984375,59.3696289,26.7783203,59.25,25.4365234,59.0288086z"/>
		<path style="fill:none;" d="M118.0458984,147.1474609c0-12.9101562-0.0400391-25.8154297,0.0390625-38.7226562
			c0.0117188-2.0927734-1.0322266-4.5371094,1.3466797-6.1601562c0.1005859-0.8017578,0.2832031-1.6015625,0.2851562-2.4023438
			c0.0185547-10.6621094,0.0185547-21.3251953,0-31.9873047c-0.0019531-0.8833008,0.1699219-1.6269531,0.9042969-2.1523438
			c0.5126953-0.3666992,0.7929688-0.7998047,0.7929688-1.3603516c0-7.2963867,0.0195312-14.590332-0.0253906-21.8857422
			c-0.0048828-0.9433594,0.390625-1.5463867,1.0126953-2.1171875c0.2050781-0.1894531,0.5683594-0.394043,0.5703125-0.5947266
			c0.0644531-5.5966797,0.1142578-11.1962891,0.078125-16.793457c-0.0019531-0.4130859-0.6230469-0.8959961-1.0556641-1.2133789
			c-0.5371094-0.394043-0.7802734-0.8125-0.5800781-1.4560547c-0.5576172,0-1.1298828-0.0742188-1.671875,0.0200195
			c-0.6513672,0.1113281-1.0849609-0.0410156-1.4443359-0.597168c-0.6787109-1.0595703-1.7099609-1.2382812-2.8837891-1.1201172
			c-0.8955078,0.0913086-0.9365234,0.0810547-2.8095703-1.2587891c-0.7773438-0.5546875-1.5566406-0.3671875-2.3486328-0.4042969
			c-0.8144531-0.0366211-1.6298828,0.0649414-2.2167969-0.7338867c-0.5039062-0.6855469-1.1816406-1.0361328-2.1064453-0.9824219
			c-0.8007812,0.046875-1.6123047-0.1210938-2.4189453-0.1943359c-1.3027344-2.0976562-3.3974609-1.390625-5.25-1.4443359
			c-0.8740234-0.0244141-1.5566406-0.2270508-2.1660156-0.8833008c-0.3398438-0.3666992-0.8740234-0.7783203-1.3212891-0.7797852
			c-1.6738281-0.0102539-3.296875,0.1020508-4.4287109-1.5556641c-0.1914062-0.2827148-1.1083984,0.0322266-1.5556641-0.1948242
			c-3.2714844-1.6484375-3.2617188-1.7314453-6.0068359-1.6357422c-0.6376953,0.0224609-1.0146484-0.1552734-1.4785156-0.5166016
			c-1.5771484-1.2260742-1.6083984-1.1870117-2.8466797-1.1884766c-0.8369141-0.003418-1.6738281-0.0019531-2.5097656-0.0019531
			c-0.6416016-0.1958008-1.0380859,0.0664062-1.4521484,0.5751953c-0.5058594,0.6152344-1.0361328,1.3330078-2.0449219,1.1137695
			c-0.5996094-0.1308594-0.9638672,0.222168-1.4140625,0.6547852c-0.9833984,0.940918-1.6835938,2.328125-3.0722656,2.6586914
			c-1.0585938,0.2514648-2.2363281-0.0454102-3.3417969,0.0742188c-1.3125,0.1411133-1.9755859-0.7099609-2.7607422-1.4702148
			c-0.9599609-0.9287109-1.6855469-2.1704102-3.3994141-1.9560547c-1.3759766,0.1713867-2.7919922,0.0322266-4.1884766,0.0356445
			c-1.4326172,0.0014648-1.9130859,0.4052734-1.8730469,1.9467773c0.0380859,1.4438477-0.1005859,2.6938477-1.3613281,3.668457
			c-0.3164062,0.2431641-0.3310547,0.9902344-0.3359375,1.5053711c-0.0263672,3.6342773-0.0771484,7.2705078,0.0195312,10.9008789
			c0.0361328,1.300293-0.7441406,1.9399414-1.4257812,2.793457c-0.5126953,0.6376953-0.5371094,1.5898438,0.0615234,2.2231445
			c0.7763672,0.8173828,1.5546875,1.5419922,1.3369141,2.8173828c-0.2246094,1.3310547,0.5439453,2.8510742-0.453125,3.9907227
			c-0.7597656,0.8686523-1.3144531,1.6113281-1.2695312,2.8613281c0.1044922,2.7910156,0.0341797,5.5883789,0.0341797,8.3847656
			c0,1.3974609-0.0810547,2.8012695,0.0253906,4.1918945c0.078125,0.9936523-0.5527344,1.4667969-1.0791016,2.0844727
			c-1.0664062,1.2514648-0.8164062,3.5888672,0.5136719,5.1323242c0.7587891,0.8793945,0.7246094,1.8798828-0.1064453,2.8637695
			c-0.1806641,0.2124023-0.4072266,0.3842773-0.5869141,0.5986328c-0.1699219,0.2001953-0.4033203,0.4194336-0.4316406,0.6508789
			c-0.0634766,0.5512695-0.0214844,1.1176758-0.0214844,1.6762695c0,12.0205078-0.0068359,24.0419922,0.0214844,36.0644531
			c0.0019531,0.6240234-0.1933594,0.984375-0.6269531,1.4394531c-0.7167969,0.7529297-0.6416016,0.8173828,0.2392578,2.3515625
			c0.0957031,0.1669922,0.1972656,0.4707031,0.1181641,0.5732422c-0.4931641,0.6357422-1.4082031,1.0410156-1.4150391,1.9296875
			C45.625,116.1542969,45.625,123.1435547,45.6621094,130.1328125c0.0048828,0.8886719,1.2441406,1.2431641,1.3720703,1.9267578
			c0.4609375,2.4121094,0.5292969,4.8740234-0.0664062,7.2939453c-0.1591797,0.6435547-1.6279297,0.7392578-0.8652344,1.7666016
			c0.5361328,0.7197266,1.7158203,0.1015625,2.2128906,0.6386719c1.0166016,1.1054688,2.0996094,1.5595703,3.6152344,1.5039062
			c1.6298828-0.0576172,3.3095703-0.3466797,4.9140625,0.2402344c0.2333984,0.0849609,0.5527344,0.3798828,0.5576172,0.5849609
			c0.0429688,1.9541016,0.0253906,3.9130859,0.0253906,5.8671875c1.3007812,0,2.6162109-0.1123047,3.8955078,0.0449219
			 M66.546875,148.4501953c0.0205078-0.0292969,0.3974609,0.1298828,0.5654297,0.2558594
			c0.6279297,0.4726562,0.9677734,1.3730469,1.9951172,1.2607422c0.5488281-0.0615234,1.1181641,0.0371094,1.6699219-0.0195312
			 M60.8183594,32.9067383c0.5546875-0.6079102,1.1074219-1.2177734,1.6611328-1.8271484
			c-0.40625-2.0991211,1.4345703-2.8486328,2.5371094-3.9501953c0.4589844-0.4584961,1.6474609,0.2387695,2.2177734-0.640625
			c1.1708984-1.8100586,2.9746094-1.0512695,4.5439453-1.0371094c0.3994141,0.0029297,0.7675781,0.7617188,1.1943359,1.1201172
			c1.2226562,1.0327148,2.6904297,0.5673828,2.9384766-1.0522461c0.0888672-0.5864258,0.09375-1.0620117,0.4941406-1.4897461
			c0.5380859-0.5722656,1.3251953-0.9414062,1.2578125-2.0014648c-0.1083984-1.6694336-0.0234375-3.3525391-0.0332031-5.0297852
			c-0.0048828-1,0.5205078-1.737793,1.2636719-1.7446289c1.3964844-0.0141602,2.7939453-0.0126953,4.1933594-0.0014648
			c1.0175781,0.0083008,1.8212891,1.6293945,1.2226562,2.5307617c-0.2597656,0.3930664-0.8271484,0.6694336-1.3115234,0.8168945
			c-2.1289062,0.6450195-2.6347656,1.8608398-1.2919922,3.2485352c0.390625,0.3999023,0.8496094,0.7485352,1.1708984,1.1977539
			c0.3828125,0.5332031,0.8027344,0.7617188,1.4296875,0.6274414c1.0361328-0.2226562,2.203125,0.4667969,3.1416016-0.5332031
			c0.5400391-0.5771484,0.9824219-1.3051758,2.0332031-1.184082c1.1044922,0.128418,2.2333984,0.0292969,3.3515625,0.0292969
			c1.6669922,0,2.0791016,1.6733398,3.1982422,2.4013672c-0.3134766,0.3945312-0.6191406,0.7939453-0.9365234,1.1845703
			c-0.8271484,1.0161133-0.8740234,3.5722656-0.0683594,4.543457c0.5087891,0.6108398,1.1777344,1.0214844,1.1796875,2.0488281
			c0.0029297,1.2290039,0.4404297,1.6162109,1.3496094,1.5898438c1.6875-0.0449219,3.3496094-0.1328125,4.3808594,1.5888672
			c1.9902344-0.3066406,3.1376953,1.1137695,3.9677734,2.4194336c0.6738281,1.0605469,0.5712891,2.6083984,1.8554688,3.40625
			c0.0625,1.0922852,0.1777344,2.1850586,0.1679688,3.277832c-0.0097656,1.1181641-0.0693359,2.2055664,1,2.949707
			c0.2275391,0.1572266,0.5673828,0.387207,0.5703125,0.5869141c0.0224609,1.5786133,0.7910156,3.3452148-0.9511719,4.5332031
			c-0.5498047,0.3764648-0.6777344,0.7929688-0.6269531,1.4379883c0.0859375,1.1103516-0.0429688,2.2387695,0.0458984,3.3486328
			c0.0546875,0.6489258-0.0351562,1.1005859-0.5830078,1.4511719c-1.0537109,0.6728516-1.2314453,1.7114258-1.2128906,2.8608398
			c0.0029297,0.1943359-0.3544922,0.5512695-0.5644531,0.5688477c-1.4257812,0.1020508-2.5957031,0.6162109-3.4775391,1.7832031
			c-0.1142578,0.1474609-0.5097656,0.1049805-0.7773438,0.1083984c-0.8369141,0.0131836-1.8095703,0.2753906-2.4863281-0.0546875
			c-1.1621094-0.5708008-1.8564453-2.0795898-3.5322266-1.6533203c-0.1416016,0.0356445-0.5556641-0.34375-0.5673828-0.5449219
			c-0.1005859-1.7768555-1.1494141-2.9482422-2.3837891-4.0585938c-1.3134766-1.1835938-1.4326172-1.2387695-1.2373047-2.8154297
			c0.2050781-1.6425781-0.6845703-2.5546875-1.7041016-3.5209961c-0.140625-0.1313477-0.0195312-0.5366211-0.0195312-0.8168945
			c-0.6132812-0.1816406-1.1855469-0.0327148-1.3583984,0.5546875c-0.2167969,0.7290039-0.2763672,1.5185547-0.3125,2.2871094
			c-0.0351562,0.7973633,0.0410156,1.628418-0.7646484,2.0952148c-0.3867188,0.2236328-0.9423828-0.730957-0.9160156-1.8149414
			c0.0341797-1.3554688,0.0898438-2.6635742-1.2509766-3.5268555c-0.4746094-0.3066406-0.5078125-0.8173828-0.4677734-1.4223633
			c0.0693359-1.0708008,0.0195312-2.1489258,0.0195312-3.2236328c0-0.5615234,0-1.1235352,0-1.684082
			c-2.2861328,0.1826172-1.2597656-1.9711914-2.0263672-2.8583984c-0.1552734-0.1762695-0.4384766-0.4335938-0.5761719-0.3881836
			c-0.2373047,0.0761719-0.5332031,0.3339844-0.5820312,0.5639648c-0.2265625,1.0341797-0.1142578,2.1962891-1.2041016,2.8574219
			c-0.5605469,0.3388672-0.7128906,0.7895508-0.6796875,1.4057617c0.0595703,1.1147461-0.0410156,2.2382812,0.0380859,3.3515625
			c0.0478516,0.637207-0.0830078,1.0571289-0.5185547,1.4799805c-1.8027344,1.7519531-3.5673828,3.5449219-5.3955078,5.3754883
			c-1.3417969,0-2.7363281-0.0556641-4.1210938,0.0224609c-0.640625,0.0356445-1.0458984-0.0942383-1.4736328-0.5400391
			c-1.546875-1.612793-3.09375-3.2353516-4.7529297-4.7299805c-0.7861328-0.7080078-0.5546875-1.4960938-0.5878906-2.2836914
			c-0.0527344-1.2514648-0.0263672-1.2529297-1.1611328-2.8774414c-0.1552734-0.2202148-0.5078125-0.4111328-0.5097656-0.6171875
			C60.7958984,40.7280273,60.8105469,36.8173828,60.8183594,32.9067383z M67.0722656,85.5712891
			c-1.4287109,0.8984375-1.2705078,2.2929688-1.2294922,3.671875c0.0292969,1.0498047-0.4306641,1.6787109-1.2158203,1.7714844
			c-0.8554688,0.1044922-1.6425781-0.0751953-2.1279297-0.8525391c-0.1269531-0.2011719-0.0195312-0.5458984-0.0195312-0.8242188
			c-1.3447266-0.2197266-1.4638672-0.3408203-1.6835938-1.6845703c-0.2753906,0-0.6572266-0.1162109-0.8095703,0.0214844
			c-0.8183594,0.734375-1.5849609,1.5253906-2.3583984,2.3066406C56.8652344,90.7539062,56.875,90.71875,55.2753906,89.7431641
			c-0.4189453-0.2568359-0.984375-0.2685547-1.4804688-0.4072266c-1.3066406-0.3623047-1.4169922-0.4794922-1.4169922-1.5546875
			C52.375,82.2714844,52.3701172,76.7597656,52.3876953,71.2480469c0.0019531-0.5136719,0.0917969-1.0571289,0.2753906-1.5351562
			c0.2353516-0.6044922,0.7675781-0.7714844,1.3964844-0.5805664c0.1787109-1.1630859,1.3974609-2.1523438,2.1386719-1.6689453
			c1.3349609,0.871582,2.8671875,1.6464844,2.9042969,3.5712891c0.0244141,1.2480469,1.5058594,1.5551758,1.6728516,2.6430664
			c0.1621094,1.0698242,0.1337891,2.1669922,0.2597656,3.2451172c0.0253906,0.2158203,0.3476562,0.5097656,0.5732422,0.5527344
			c0.1582031,0.03125,0.4511719-0.2695312,0.5703125-0.4833984C62.75,75.9716797,62.6025391,74.8125,62.4316406,73.7866211
			c-0.3339844-1.9936523,0.8808594-3.0458984,2.09375-4.1679688c0.1699219-0.1552734,0.5234375-0.3969727,0.5664062-0.3574219
			c0.8144531,0.7583008,1.6152344,1.5351562,2.3642578,2.355957c0.1425781,0.15625,0.0712891,0.5239258,0.0722656,0.7949219
			c0.0039062,3.8955078-0.0166016,7.7910156,0.0234375,11.6845703
			C67.5566406,84.7177734,67.5634766,85.2626953,67.0722656,85.5712891z M70.0234375,90.9638672
			c-0.3457031-0.3740234-0.7529297-0.8740234-0.7734375-1.3349609c-0.0849609-1.9472656-0.0351562-3.9023438-0.0351562-5.8564453
			c0-1.3925781-0.0048828-2.7900391,0.0009766-4.1835938c0.0087891-1.6044922,2.0498047-3.7084961,3.6162109-3.7197266
			c1.1152344-0.0097656,2.2333984-0.0244141,3.3476562,0.0053711c0.9970703,0.0253906,3.0087891,2.0952148,3.0957031,3.3579102
			c0.0439453,0.6230469,0.0849609,1.0576172,0.6142578,1.4482422c0.4296875,0.3164062,1.0507812,0.7832031,1.0615234,1.2011719
			c0.0791016,2.7802734,0.0166016,5.5654297,0,8.3476562c-1.1328125,0.8720703-1.8320312,1.9550781-1.7958984,3.4521484
			c0.0048828,0.1933594-0.3564453,0.5527344-0.5644531,0.5654297c-1.3759766,0.0898438-2.7597656,0.0615234-4.1337891,0.1591797
			c-0.6269531,0.0458984-1.0888672-0.0449219-1.4931641-0.4648438C71.9960938,92.9375,70.9726562,91.9853516,70.0234375,90.9638672z
			 M94.4189453,133.7402344c-0.0390625,0.3857422-0.6367188,0.8789062-1.0732422,1.0146484
			c-0.4697266,0.1455078-1.1943359,0.1054688-1.5566406-0.1728516c-0.8769531-0.6777344-1.5820312-1.5732422-2.4091797-2.3222656
			c-0.3789062-0.3427734-0.8681641-0.5751953-1.328125-0.8193359c-0.5693359-0.3056641-1.9951172,0.4179688-1.9970703,0.9980469
			c-0.0029297,3.0703125,0.0341797,6.1416016-0.0214844,9.2099609c-0.0175781,1.0234375,0.8320312,1.3457031,1.2705078,1.9960938
			c0.8408203,1.2490234,0.6552734,2.7177734,0.1923828,3.9101562c-0.3720703,0.9511719-1.4941406,1.6113281-2.2851562,2.4003906
			c-0.6054688-0.5615234-1.1416016-1.4755859-1.8291016-1.609375c-1.3466797-0.2539062-2.7792969-0.0673828-4.1728516-0.0771484
			c-1.0341797-0.0058594-1.5722656-0.4960938-1.5742188-1.4257812c-0.0048828-2.7919922-0.0019531-5.5849609-0.0019531-8.3759766
			c0-2.5117188,0.0039062-5.0244141-0.0009766-7.5371094c-0.0019531-0.6582031-0.8076172-1.1845703-1.8232422-1.1806641
			c-1.1171875,0.0048828-2.2333984,0.0078125-3.3505859-0.0019531c-1.0498047-0.0097656-1.5429688-0.4628906-1.5566406-1.4433594
			c-0.0146484-1.1171875,0.0712891-2.2373047-0.0244141-3.3496094c-0.0820312-0.9550781,0.3671875-1.5927734,1.0351562-2.0820312
			c0.8261719-0.6103516,0.4306641-1.5302734,0.7265625-2.2216797c0.3076172-0.7138672,1.0634766-1.234375,1.6230469-1.8398438
			c-0.421875-1.6708984,0.734375-2.5654297,1.7841797-3.4394531c1.1113281-0.9248047,1.7548828-2.0185547,1.7558594-3.46875
			c0.9873047-0.9863281,2.0332031-1.9257812,2.9296875-2.9892578c0.2910156-0.3486328,0.1357422-1.0380859,0.2822266-1.5458984
			c0.3134766-1.0986328,0.7900391-1.2392578,1.5185547-0.5c0.9482422,0.9628906,2.2392578,1.7402344,1.8369141,3.4267578
			c0.4882812,0.9296875,1.9375,1.265625,1.6777344,2.6523438c-0.2021484,1.0595703,0.7294922,1.3896484,1.2109375,2.0146484
			c0.1630859,0.2099609,0.4804688,0.4492188,0.453125,0.6318359c-0.1923828,1.2568359,0.40625,2.0947266,1.3095703,2.8320312
			c0.1875,0.1533203,0.3710938,0.4335938,0.3847656,0.6650391c0.0869141,1.6064453-0.4355469,3.3896484,1.3876953,4.4560547
			c0.3691406,1.2646484,0.4414062,2.6816406,1.7695312,3.453125c0.1474609,1.3779297,0.5380859,2.6328125,1.7705078,3.4541016
			C94.3798828,131.5498047,94.5263672,132.6572266,94.4189453,133.7402344z M99.3623047,100.4345703
			c-0.0244141,0.4179688-1.8544922,1.0107422-2.1914062,0.6796875c-1.1142578-1.0947266-2.7666016-1.7705078-2.7324219-3.7685547
			c0.015625-0.8613281-1.1523438-1.2138672-1.3662109-1.9072266c-0.3105469-1.0078125-0.2460938-2.1367188-0.2744141-3.2177734
			c-0.0380859-1.3828125-0.0097656-2.7705078-0.0097656-4.15625c0-0.8320312,0.0068359-1.6630859-0.0019531-2.4931641
			c-0.0078125-0.7431641-0.7099609-1.2695312-1.703125-1.2841797c-0.5546875-0.0068359-1.1074219,0-1.6630859,0
			c-0.2783203,0-0.6767578-0.1220703-0.8173828,0.0195312c-1.3408203,1.3261719-2.9541016,2.4111328-2.6054688,4.7958984
			C86.2753906,91.0146484,86.0576172,93,86.0517578,94.9550781c-0.0048828,0.8320312-1.8164062,1.5039062-2.6582031,0.9716797
			c-0.2314453-0.1455078-0.5693359-0.3847656-0.5732422-0.5849609c-0.0693359-4.1689453-0.0634766-8.3398438-0.1630859-12.5087891
			c-0.0195312-0.9609375,0.5605469-1.4394531,1.0244141-2.1035156c1.3779297-1.9716797,3.25-1.6884766,5.1445312-1.2158203
			c0.6279297,0.15625,0.7919922,0.7666016,0.59375,1.4052734c0.2763672,0,0.6435547-0.1142578,0.8154297,0.0214844
			c0.6298828,0.484375,1.1943359,1.0527344,1.7841797,1.5888672c0.5888672-0.5878906,1.1210938-1.2460938,1.7763672-1.7460938
			c0.8046875-0.6132812,0.5507812-1.4462891,0.7070312-2.2197266c0.1259766-0.6171875,0.7255859-1.0039062,1.0048828-0.7646484
			c0.8369141,0.7109375,1.7177734,1.4560547,2.2773438,2.3740234c0.3681641,0.6054688-0.2167969,1.6201172,0.6669922,2.2128906
			c1.7421875,1.1728516,0.921875,2.9453125,0.9912109,4.5078125c-1.6875,1.0146484-1.7158203,2.6298828-1.6132812,4.3242188
			c0.0810547,1.3691406,0.0527344,2.7460938,0.1367188,4.1142578c0.0136719,0.2070312,0.3496094,0.4140625,0.5664062,0.5869141
			C100.1308594,97.1826172,99.4599609,98.8662109,99.3623047,100.4345703z M100.7734375,72.9306641
			c-0.1269531-0.2011719-0.421875-0.3989258-0.6494141-0.4116211c-0.8359375-0.0483398-1.6787109-0.0664062-2.5136719-0.0097656
			c-1.4306641,0.1035156-2.7480469,0.0048828-3.6494141-1.3374023c-0.1259766-0.1860352-0.4453125-0.3339844-0.6796875-0.340332
			c-1.625-0.0483398-3.3388672,0.3388672-4.4863281-1.4057617c-0.1972656-0.3007812-0.9951172-0.2524414-1.5205078-0.2851562
			c-1.8613281-0.1142578-3.9541016,0.597168-5.2441406-1.5053711c-0.8125-0.0634766-1.6308594-0.2226562-2.4355469-0.1606445
			c-0.9492188,0.0712891-1.5390625-0.3959961-2.1074219-1.0131836c-0.1894531-0.2041016-0.3652344-0.5205078-0.5957031-0.5737305
			c-2.2841797-0.5336914-5.0771484,0.8994141-6.8066406-1.7802734c-1.3945312-0.0092773-2.7949219-0.1162109-4.1757812,0.0048828
			c-1.0507812,0.0927734-1.4941406-0.6088867-2.0253906-1.1894531c-0.4248047-0.4599609-0.8271484-0.6030273-1.4716797-0.5483398
			c-1.3730469,0.1206055-2.7871094,0.253418-3.6904297-1.1958008c-0.3085938-0.4956055-0.8535156-0.6196289-1.4765625-0.465332
			c-2.3339844,0.5751953-3.4980469-1.1264648-4.8085938-2.512207c-0.0166016-0.0175781,0.2910156-0.4975586,0.5029297-0.5527344
			c1.8994141-0.4833984,3.7900391-0.8256836,5.1269531,1.1782227c0.8115234,0.0683594,1.6259766,0.2319336,2.4296875,0.1772461
			c0.9384766-0.0634766,1.5478516,0.3671875,2.1142578,0.9951172c0.1865234,0.2075195,0.3642578,0.5151367,0.5957031,0.5751953
			c2.2695312,0.5932617,5.078125-0.9042969,6.8085938,1.7797852c1.3896484,0.0146484,2.7861328,0.125,4.1679688,0.0112305
			c1.0371094-0.0859375,1.5068359,0.5825195,2.03125,1.171875c0.4189453,0.4765625,0.8183594,0.6191406,1.4628906,0.5654297
			c1.3691406-0.1113281,2.8017578-0.2866211,3.7011719,1.1777344c0.1308594,0.2099609,0.4101562,0.453125,0.6289062,0.4614258
			c1.1152344,0.0483398,2.2431641,0.1166992,3.3486328-0.0014648c1.2568359-0.1347656,2.0947266,0.390625,2.8300781,1.3017578
			c0.3505859,0.434082,0.8867188,0.4506836,1.5029297,0.4291992c0.8115234-0.0288086,1.6259766,0.097168,2.4384766,0.1591797
			c0.8876953,1.2133789,2.0478516,1.6582031,3.5683594,1.5317383c1.6240234-0.1342773,3.3740234-0.3613281,4.4287109,1.4111328
			c0.8046875,0.081543,1.6123047,0.2548828,2.4140625,0.2197266c0.9140625-0.0439453,1.5996094,0.2734375,2.1191406,0.9609375
			c0.3808594,0.5058594,0.7978516,0.7651367,1.3720703,0.7504883c0.8378906-0.0180664,1.6933594,0.1020508,2.5107422-0.0273438
			c1.5810547-0.2514648,2.5810547,0.5361328,3.5498047,1.6074219c0.4521484,0.4995117,0.8105469,0.8251953,0.6337891,1.1982422
			c-0.2832031,0.5966797-0.7763672,0.7163086-1.4287109,0.6025391c-0.5429688-0.0917969-1.1152344-0.0175781-1.671875-0.0175781
			c-0.8398438,0-1.6796875,0.0390625-2.5126953-0.0263672c-0.2128906-0.0175781-0.3925781-0.3720703-0.5986328-0.5600586
			c-0.5888672-0.543457-1.0400391-1.2431641-2.0595703-1.1191406
			C103.0673828,74.3310547,101.6738281,74.3442383,100.7734375,72.9306641z M112.9492188,101.6533203
			c-0.0849609,0.4335938-0.5722656,0.9511719-0.9970703,1.109375c-0.4638672,0.1679688-1.1308594,0.1035156-1.5869141-0.1142578
			c-0.4765625-0.2226562-0.8359375-0.7265625-1.1953125-1.1503906c-0.5107422-0.5986328-1.2851562-0.953125-1.2548828-2.0039062
			c0.0810547-3.0683594,0.0791016-6.1416016-0.0166016-9.2089844c-0.0195312-0.6132812-0.6679688-0.8701172-1.0585938-0.6640625
			c-0.2333984,0.1220703-0.5546875,0.3837891-0.5566406,0.5849609c-0.0351562,3.0722656-0.0302734,6.1425781-0.0224609,9.2128906
			c0.0029297,1.0048828-0.4882812,1.6708984-1.3007812,1.6992188c-0.8369141,0.0292969-1.6953125,0.1103516-2.5048828-0.0332031
			c-0.453125-0.0830078-1.1816406-0.5673828-1.1933594-0.890625c-0.0957031-2.7871094-0.0546875-5.5810547-0.0546875-8.3710938
			c0-2.5117188,0.0791016-5.0283203-0.0380859-7.5361328c-0.046875-1.0722656,0.6679688-1.4755859,1.2373047-2.0048828
			c0.7275391-0.6787109,0.3466797-1.5400391,0.5751953-2.2880859c0.1738281-0.5625,1.4375-1.0419922,2.1787109-0.7275391
			c0.4345703,0.1855469,0.9638672,0.6435547,1.0507812,1.0595703c0.1650391,0.8046875,0.0625,1.6650391,0.0429688,2.5029297
			c-0.0146484,0.5761719,0.2841797,0.9550781,0.7392578,1.3798828c0.9980469,0.9287109,1.7822266,2.1806641,3.4726562,1.7900391
			c0.1464844-0.03125,0.5205078,0.3359375,0.5673828,0.5615234c0.2695312,1.328125,0.5244141,2.6445312,1.7910156,3.4492188
			c0.0566406,1.3720703,0.1396484,2.7460938,0.1640625,4.1152344c0.0283203,1.6777344,0.0068359,3.3515625,0.0068359,5.0273438
			C112.9951172,99.9912109,113.1083984,100.8496094,112.9492188,101.6533203z"/>
		<path style="fill:none;" d="M121.3857422,97.9345703c-0.0019531-0.9814453,0.46875-1.5517578,1.0976562-2.0576172
			c0.5087891-0.40625,0.6425781-0.8066406,0.6357422-1.4326172c-0.0439453-3.9082031,0.0263672-7.8193359-0.0546875-11.7275391
			c-0.0195312-1.0126953,0.5410156-1.5283203,1.1503906-2.0361328c0.4980469-0.4169922,0.6982422-0.8037109,0.5849609-1.4580078
			c-0.09375-0.5410156-0.0195312-1.1142578-0.0195312-1.6728516c0-10.0493164,0-20.1025391,0-30.1538086
			c0-1.1166992,0.0859375-2.2416992-0.0244141-3.3491211c-0.0996094-0.9951172,0.4726562-1.5512695,1.0996094-2.0571289
			c0.5097656-0.409668,0.6367188-0.8066406,0.6318359-1.4360352c-0.0429688-4.4672852-0.0029297-8.934082-0.0458984-13.4013672
			c-0.0068359-0.6308594,0.1728516-1.0131836,0.5039062-1.4848633c1.265625-1.7949219,1.2392578-1.8222656,1.2041016-3.6816406
			c-1.5878906,0.1416016-3.0673828,0.0454102-4.0507812-1.5009766c-0.2695312-0.4262695-0.765625-0.7050781-1.0722656-1.1162109
			c-0.4130859-0.5561523-0.7246094-0.6958008-1.1152344-0.4204102c-0.4814453,0.340332-0.6660156,0.7651367-0.4970703,1.3535156
			c-0.2001953,0.6435547,0.0429688,1.0620117,0.5800781,1.4560547c0.4326172,0.3173828,1.0537109,0.800293,1.0556641,1.2133789
			c0.0361328,5.597168-0.0136719,11.1967773-0.078125,16.793457c-0.0019531,0.2006836-0.3652344,0.4052734-0.5703125,0.5947266
			c-0.6220703,0.5708008-1.0175781,1.1738281-1.0126953,2.1171875c0.0449219,7.2954102,0.0253906,14.5893555,0.0253906,21.8857422
			c0,0.5605469-0.2802734,0.9936523-0.7929688,1.3603516c-0.734375,0.5253906-0.90625,1.269043-0.9042969,2.1523438
			c0.0185547,10.6621094,0.0185547,21.3251953,0,31.9873047c-0.0019531,0.8007812-0.1845703,1.6005859-0.2851562,2.4023438
			c-2.3789062,1.6230469-1.3349609,4.0673828-1.3466797,6.1601562c-0.0791016,12.9072266-0.0390625,25.8125-0.0390625,38.7226562"/>
		<path style="fill:none;" d="M49.0576172,2.5722656c-0.0166016,0.8330078-0.0439453,1.6660156-0.0458984,2.4975586
			c-0.0068359,2.2387695-0.0019531,4.4790039-0.0019531,6.7172852c0,3.3574219-0.0263672,6.7172852,0.0224609,10.0742188
			c0.0068359,0.6303711-0.1767578,1.0146484-0.5009766,1.487793c-1.2626953,1.8413086-1.2109375,1.8686523-1.2109375,2.8510742
			c0.0078125,6.7177734,0.0029297,13.4345703,0.0029297,20.1503906c0,0.559082,0.0546875,1.1269531-0.0234375,1.6757812
			c-0.03125,0.2231445-0.3486328,0.4057617-0.5292969,0.612793c-0.5214844,0.6035156-1.1660156,1.0229492-1.1621094,2.0522461
			c0.0488281,13.1503906,0.0322266,26.3046875,0.0322266,39.4570312c0,0.5605469,0.0537109,1.1279297-0.0263672,1.6757812
			c-0.03125,0.2236328-0.3574219,0.4023438-0.5410156,0.609375c-0.5332031,0.5966797-1.1494141,1.0361328-1.1464844,2.0556641
			c0.0429688,16.5117188,0.03125,33.0244141,0.03125,49.5322266c0.9794922,0.9960938,2.1611328,1.8613281,2.8876953,3.015625
			c0.8847656,1.3994141,2.4941406,0.8818359,3.515625,1.7412109c0.6064453,0.5048828,0.9599609,1.296875,2.03125,1.2119141
			c1.6708984-0.1298828,3.3544922-0.0351562,5.0351562-0.0351562c0-1.9541016,0.0175781-3.9130859-0.0253906-5.8671875
			c-0.0048828-0.2050781-0.3242188-0.5-0.5576172-0.5849609c-1.6044922-0.5869141-3.2841797-0.2978516-4.9140625-0.2402344
			c-1.515625,0.0556641-2.5986328-0.3984375-3.6152344-1.5039062c-0.4970703-0.5371094-1.6767578,0.0810547-2.2128906-0.6386719
			c-0.7626953-1.0273438,0.7060547-1.1230469,0.8652344-1.7666016c0.5957031-2.4199219,0.5273438-4.8818359,0.0664062-7.2939453
			c-0.1279297-0.6835938-1.3671875-1.0380859-1.3720703-1.9267578C45.625,123.1435547,45.625,116.1542969,45.6601562,109.1650391
			c0.0068359-0.8886719,0.921875-1.2939453,1.4150391-1.9296875c0.0791016-0.1025391-0.0224609-0.40625-0.1181641-0.5732422
			c-0.8808594-1.5341797-0.9560547-1.5986328-0.2392578-2.3515625c0.4335938-0.4550781,0.6289062-0.8154297,0.6269531-1.4394531
			c-0.0283203-12.0224609-0.0214844-24.0439453-0.0214844-36.0644531c0-0.5585938-0.0419922-1.125,0.0214844-1.6762695
			c0.0283203-0.2314453,0.2617188-0.4506836,0.4316406-0.6508789c0.1796875-0.2143555,0.40625-0.3862305,0.5869141-0.5986328
			c0.8310547-0.9838867,0.8652344-1.984375,0.1064453-2.8637695c-1.3300781-1.543457-1.5800781-3.8808594-0.5136719-5.1323242
			c0.5263672-0.6176758,1.1572266-1.0908203,1.0791016-2.0844727c-0.1064453-1.390625-0.0253906-2.7944336-0.0253906-4.1918945
			c0-2.7963867,0.0703125-5.59375-0.0341797-8.3847656c-0.0449219-1.25,0.5097656-1.9926758,1.2695312-2.8613281
			c0.9970703-1.1396484,0.2285156-2.659668,0.453125-3.9907227c0.2177734-1.2753906-0.5605469-2-1.3369141-2.8173828
			c-0.5986328-0.6333008-0.5742188-1.5854492-0.0615234-2.2231445c0.6816406-0.8535156,1.4619141-1.4931641,1.4257812-2.793457
			c-0.0966797-3.6303711-0.0458984-7.2666016-0.0195312-10.9008789c0.0048828-0.5151367,0.0195312-1.262207,0.3359375-1.5053711
			c1.2607422-0.9746094,1.3994141-2.2246094,1.3613281-3.668457c-0.0400391-1.5415039,0.4404297-1.9453125,1.8730469-1.9467773
			c1.3964844-0.003418,2.8125,0.1357422,4.1884766-0.0356445c1.7138672-0.2143555,2.4394531,1.0273438,3.3994141,1.9560547
			C62.6494141,11.1967773,63.3125,12.0478516,64.625,11.9067383c1.1054688-0.1196289,2.2832031,0.1772461,3.3417969-0.0742188
			c1.3886719-0.3305664,2.0888672-1.7177734,3.0722656-2.6586914c0.4501953-0.4326172,0.8144531-0.7856445,1.4140625-0.6547852
			c1.0087891,0.2192383,1.5390625-0.4985352,2.0449219-1.1137695c0.4140625-0.5087891,0.8105469-0.7709961,1.4521484-0.5751953
			c0.1962891-0.6401367,0.0019531-1.121582-0.5917969-1.4331055c-1.2509766-0.652832-2.9169922,0.3876953-3.9042969-0.6362305
			c-1.0996094-1.1430664-2.2597656-1.4672852-3.6884766-1.2875977c-0.6279297,0.0795898-1.1855469,0.03125-1.4912109-0.4453125
			c-0.9111328-1.4169922-2.2998047-1.3652344-3.6884766-1.2304688c-0.640625,0.0634766-1.0253906-0.1333008-1.484375-0.5141602
			c-1.4472656-1.2075195-1.4785156-1.1713867-2.8583984-1.1860352c-0.2783203-0.003418-0.5722656-0.0537109-0.8359375,0.0097656"/>
		<path style="fill:none;" d="M111.7744141,1.3950195c0.7900391,0.7519531,2.1982422,0.0097656,2.8476562,1.1645508
			c0.6328125,1.1259766,1.9199219,0.7177734,2.8398438,1.1679688c0.59375,0.2905273,0.7753906,0.7851562,0.5839844,1.4199219
			c1.2988281,0,2.6142578-0.1132812,3.8955078,0.0424805c0.7539062,0.0927734,1.3417969,0.6904297,1.1542969,1.6401367
			c1.3017578,0,2.6152344-0.1132812,3.8974609,0.0439453c0.7529297,0.0927734,1.3417969,0.6889648,1.15625,1.6401367
			c1.0175781-0.2539062,1.4404297,0.5888672,1.9492188,1.1494141c0.3310547,0.3652344,0.6445312,0.5932617,1.3193359,0.2109375
			c0.0107422-0.1186523,0.0488281-0.2543945,0.1269531-0.4135742c0.1669922-0.3398438,0.6210938-0.5625,0.4775391-0.0112305
			c0.5693359-0.7832031,1.0263672-0.3271484,0.9921875-0.2661133c-0.1982422,0.3666992-0.4208984,0.8203125-0.7617188,0.9858398
			c-0.2089844,0.1025391-0.3828125,0.1381836-0.5214844,0.1264648c-0.2148438,0.7412109-0.2167969,1.1640625-0.2167969,1.5874023
			c1.34375,0.2197266,1.4638672,0.3398438,1.6855469,1.684082c0.5595703,0,1.1220703,0,1.6826172,0
			c0.0498047-1.253418-0.3769531-2.6494141,0.9980469-3.5146484c0.6328125-0.3989258,0.7304688-0.7387695,0.2675781-1.1206055
			c-0.2001953-0.1645508-0.3476562-0.4077148-0.5625-0.5439453c-0.6269531-0.3925781-0.7392578-0.753418-0.2958984-1.1171875
			c0.1914062-0.1586914,0.3945312-0.40625,0.6054688-0.4194336c0.7802734-0.050293,1.5703125-0.0214844,2.3554688-0.0214844
			c0.1923828-0.6318359,0.0205078-1.152832-0.5820312-1.4101562c-1.5791016-0.6791992-1.5800781-0.6660156-2.8291016-2.8295898
			c-0.1337891-0.2319336-0.3583984-0.4365234-0.5839844-0.5854492 M132.7919922,3.9887695
			c0.8710938,0.6401367,0.4794922,2.5776367-0.3886719,2.7553711c-0.7460938,0.1523438-1.5771484,0.3393555-2.265625-0.4145508
			c-0.5205078-0.5673828-0.9316406-1.2773438-1.9902344-1.2290039c-1.1337891,0.0517578-1.6601562-0.4956055-1.6777344-1.2539062
			c-0.0205078-0.8286133-0.0830078-1.6699219,0.0107422-2.4882812 M131.4179688,9.8745117
			c-0.0244141,0.253418,0.0917969,0.4033203,0.3134766,0.4213867c0.0712891-0.2446289,0.1660156-0.5219727,0.2910156-0.8461914
			C131.7890625,9.6430664,131.5957031,9.7758789,131.4179688,9.8745117z"/>
		<path style="fill:none;" d="M57.4072266,0.1069336C57.6708984,0.043457,57.9648438,0.09375,58.2431641,0.097168
			c1.3798828,0.0146484,1.4111328-0.0214844,2.8583984,1.1860352c0.4589844,0.3808594,0.84375,0.5776367,1.484375,0.5141602
			c1.3886719-0.1347656,2.7773438-0.1865234,3.6884766,1.2304688c0.3056641,0.4765625,0.8632812,0.5249023,1.4912109,0.4453125
			c1.4287109-0.1796875,2.5888672,0.1445312,3.6884766,1.2875977c0.9873047,1.0239258,2.6533203-0.0166016,3.9042969,0.6362305
			c0.59375,0.3115234,0.7880859,0.7929688,0.5917969,1.4331055c0.8359375,0,1.6728516-0.0014648,2.5097656,0.0019531
			c1.2382812,0.0014648,1.2695312-0.0375977,2.8466797,1.1884766c0.4638672,0.3613281,0.8408203,0.5390625,1.4785156,0.5166016
			c2.7451172-0.0957031,2.7353516-0.0126953,6.0068359,1.6357422c0.4472656,0.2270508,1.3642578-0.0878906,1.5556641,0.1948242
			c1.1318359,1.6577148,2.7548828,1.5454102,4.4287109,1.5556641c0.4472656,0.0014648,0.9814453,0.4130859,1.3212891,0.7797852
			c0.609375,0.65625,1.2919922,0.8588867,2.1660156,0.8833008c1.8525391,0.0537109,3.9472656-0.6533203,5.25,1.4443359
			c0.8066406,0.0732422,1.6181641,0.2412109,2.4189453,0.1943359c0.9248047-0.0537109,1.6025391,0.296875,2.1064453,0.9824219
			c0.5869141,0.7988281,1.4023438,0.6972656,2.2167969,0.7338867c0.7919922,0.0371094,1.5712891-0.1503906,2.3486328,0.4042969
			c1.8730469,1.3398438,1.9140625,1.3500977,2.8095703,1.2587891c1.1738281-0.1181641,2.2050781,0.0605469,2.8837891,1.1201172
			c0.359375,0.5561523,0.7929688,0.7084961,1.4443359,0.597168c0.5419922-0.0942383,1.1142578-0.0200195,1.671875-0.0200195
			c-0.1689453-0.5883789,0.015625-1.0131836,0.4970703-1.3535156c0.390625-0.2753906,0.7021484-0.1357422,1.1152344,0.4204102
			c0.3066406,0.4111328,0.8027344,0.6899414,1.0722656,1.1162109c0.9833984,1.5463867,2.4628906,1.6425781,4.0507812,1.5009766
			c0.2587891-1.0327148-0.6621094-1.3823242-1.1455078-1.9858398c-0.1601562-0.1987305-0.4931641-0.5410156-0.4765625-0.559082
			c1.1337891-1.1831055,2.3476562-2.2949219,3.4335938-3.5185547c0.5146484-0.5834961,0.7998047-0.7573242,1.1787109-0.2026367
			c0.1416016,0.2084961,0.3037109,0.4296875,0.3632812,0.6665039c0.0615234,0.2573242,0.0664062,0.5551758,0.0039062,0.8129883
			c-0.4482422,1.8808594,0.6210938,3.0390625,1.8818359,4.1513672c0.7773438,0.6875,1.1416016,0.5849609,1.4912109-0.5654297
			c0.7685547-2.5170898,1.2597656-3.1010742,3.3710938-3.8520508c0.1875-0.6220703,0.0087891-1.109375-0.5625-1.3979492
			c-1.0722656-0.5400391-2.0449219-0.4169922-2.796875,0.5639648c-0.4287109,0.559082-0.7783203,0.7617188-1.1650391,0.5200195
			c-0.5244141-0.3271484-0.6455078-0.7910156-0.5449219-1.4199219c0.0849609-0.5317383,0.0185547-1.0874023,0.0185547-1.6318359
			c-1.3447266-0.2226562-1.4648438-0.3422852-1.6855469-1.684082c-1.3603516,0.0126953-2.7148438,0.2446289-3.734375-1.1499023
			c-0.6679688-0.9121094-1.7939453-0.7211914-2.8251953,0.1333008c-1.1132812,0.9204102-1.0332031,0.8032227-1.7919922,0.2802734
			c-1.5673828-1.0844727-2.0117188-2.5351562-1.7490234-4.3168945c-0.5625,0-1.1240234,0-1.6855469,0
			c0,1.3857422,0.1074219,2.7817383-0.046875,4.1499023c-0.0712891,0.6352539-0.703125,0.8378906-1.0820312,0.5981445
			c-0.2197266-0.1411133-0.5214844-0.3876953-0.5292969-0.5932617c-0.0478516-1.3837891-0.0244141-2.769043-0.0244141-4.1547852
			c-0.2714844,0-0.6455078-0.1147461-0.796875,0.0200195c-0.8046875,0.7197266-1.625,1.4438477-2.3066406,2.2753906
			c-0.7646484,0.934082-1.7119141,1.4023438-2.7929688,1.0083008c-0.8105469-0.2944336-0.8847656-1.2172852-0.8476562-2.0551758
			c0.0361328-0.8105469-0.0107422-1.6264648,0.0126953-2.4384766c0.0234375-0.8183594-0.09375-1.5200195-0.7705078-2.1308594
			c-1.2050781-1.0864258-2.3076172-2.284668-3.4902344-3.394043c-0.1445312-0.1367188-0.5234375-0.0195312-0.7949219,2.065918
			c0,1.9907227,0.0185547,3.3881836,0.0166016,4.5175781c-0.0019531-0.8100586-0.0166016-1.6206055-0.0166016-2.4311523
			c0-1.390625,0-2.7817383-0.0341797-4.1704102c0.0341797,1.3886719,0.0341797,2.7797852,0.0341797,2.0839844"/>
		<path style="fill:none;" d="M57.4277344,149.9550781c-1.6806641,0-3.3642578-0.0947266-5.0351562,0.0351562
			c-1.0712891,0.0849609-1.4248047-0.7070312-2.03125-1.2119141c-1.0214844-0.859375-2.6308594-0.3417969-3.515625-1.7412109
			c-0.7265625-1.1542969-1.9082031-2.0195312-2.8876953-3.015625c0-16.5078125,0.0117188-33.0205078-0.03125-49.5322266
			c-0.0029297-1.0195312,0.6132812-1.4589844,1.1464844-2.0556641c0.1835938-0.2070312,0.5097656-0.3857422,0.5410156-0.609375
			c0.0800781-0.5478516,0.0263672-1.1152344,0.0263672-1.6757812c0-13.1523438,0.0166016-26.3066406-0.0322266-39.4570312
			c-0.0039062-1.0292969,0.640625-1.4487305,1.1621094-2.0522461c0.1806641-0.2070312,0.4980469-0.3896484,0.5292969-0.612793
			c0.078125-0.5488281,0.0234375-1.1166992,0.0234375-1.6757812c0-6.7158203,0.0048828-13.4326172-0.0029297-20.1503906
			c0-0.9824219-0.0517578-1.0097656,1.2109375-2.8510742c0.3242188-0.4731445,0.5078125-0.8574219,0.5009766-1.487793
			c-0.0488281-3.3569336-0.0224609-6.7167969-0.0224609-10.0742188c0-2.2382812-0.0048828-4.4785156,0.0019531-6.7172852
			c0.0019531-0.831543,0.0292969-1.6645508,0.0458984-2.4975586"/>
		<path style="fill:none;" d="M45.6279297,13.9799805c-0.0019531,0.7929688-0.0712891,1.6098633-0.28125,2.3686523
			c-0.1708984,0.6171875-0.7578125,0.777832-1.3886719,0.5844727c0,5.5537109-0.03125,11.1069336,0.0283203,16.6591797
			c0.0097656,0.9736328-0.5029297,1.4892578-1.0751953,2.0649414c-0.1933594,0.1992188-0.5195312,0.3710938-0.5625,0.5947266
			c-0.0957031,0.5351562-0.0722656,1.0922852-0.0722656,1.640625c-0.0039062,11.6606445-0.0019531,23.3222656-0.0048828,34.9829102
			c0,0.7407227-0.5078125,1.125-1.6826172,1.3081055c0,23.4570312-0.0087891,46.9111328,0.0214844,70.3671875
			c0.0019531,1.6259766-0.5507812,3.4033203,0.3613281,4.8564453"/>
		<path style="fill:none;" d="M86.0546875,1.5415039c0.0019531,1.4472656-0.4726562,1.8798828-1.9072266,1.9379883
			C82.7314453,3.5366211,81.4941406,3.4375,80.5,2.1669922c-1.0097656-1.2900391-2.1337891-2.3701172-4.1328125-2.1347656"/>
		<path style="fill:none;" d="M70.7773438,149.9472656c-0.5517578,0.0566406-1.1210938-0.0419922-1.6699219,0.0195312
			c-1.0273438,0.1123047-1.3671875-0.7880859-1.9951172-1.2607422c-0.1679688-0.1259766-0.5449219-0.2851562-0.5654297-0.2558594"/>
		<path style="fill:none;" d="M106.2587891,0.0957031c0.2714844,0,0.6503906-0.1171875,0.7949219,0.0195312
			c1.1826172,1.109375,2.2851562,2.3076172,3.4902344,3.394043c0.6767578,0.6108398,0.7939453,1.3125,0.7705078,2.1308594
			c-0.0234375,0.8120117,0.0234375,1.6279297-0.0126953,2.4384766c-0.0371094,0.8378906,0.0371094,1.7607422,0.8476562,2.0551758
			c1.0810547,0.394043,2.0283203-0.0742188,2.7929688-1.0083008c0.6816406-0.831543,1.5019531-1.5556641,2.3066406-2.2753906
			c0.1513672-0.1347656,0.5253906-0.0200195,0.796875-0.0200195c0-0.5605469,0-1.121582,0-1.6826172
			c0.1914062-0.6347656,0.0097656-1.1293945-0.5839844-1.4199219c-0.9199219-0.4501953-2.2070312-0.0419922-2.8398438-1.1679688
			c-0.6494141-1.1547852-2.0576172-0.4125977-2.8476562-1.1645508"/>
		<path style="fill:none;" d="M143.2988281,17.0195312c-0.0234375-1.0131836-0.328125-1.6079102-1.1220703-1.7426758
			c-0.7607422-0.1259766-1.5400391,0.0292969-2.1171875-0.7192383c-0.4765625-0.6181641-1.0507812-1.0996094-1.9804688-1.0131836
			c-1.0576172,0.097168-2.1289062,0.0229492-3.1962891,0.0229492c-0.5605469,0-1.1230469,0-1.6826172,0
			c0,0.5444336,0.0664062,1.1000977-0.0185547,1.6318359c-0.1005859,0.6289062,0.0205078,1.0927734,0.5449219,1.4199219
			c0.3867188,0.2416992,0.7363281,0.0390625,1.1650391-0.5200195c0.7519531-0.980957,1.7246094-1.1040039,2.796875-0.5639648
			c0.5712891,0.2885742,0.75,0.7758789,0.5625,1.3979492c0.6269531-0.1875,1.0644531,0.0200195,1.4140625,0.5629883
			c0.6640625,1.0292969,1.6513672,1.3046875,2.8173828,1.128418c0.2675781-0.0424805,0.5458984-0.0068359,0.8193359-0.0068359
			C143.3017578,18.0844727,143.3134766,17.5507812,143.2988281,17.0195312z"/>
		<path style="fill:none;" d="M130.0986328,9.6635742c-0.5087891-0.5605469-0.9316406-1.4033203-1.9492188-1.1494141
			c-1.3007812,0-2.6152344,0.1142578-3.8984375-0.0419922c-0.7529297-0.0917969-1.3417969-0.6904297-1.1552734-1.6420898
			c-0.5605469,0-1.1210938,0-1.6816406,0c-0.2626953,1.7817383,0.1816406,3.2324219,1.7490234,4.3168945
			c0.7587891,0.5229492,0.6787109,0.6401367,1.7919922-0.2802734c1.03125-0.8544922,2.1572266-1.0454102,2.8251953-0.1333008
			c1.0195312,1.3945312,2.3740234,1.1625977,3.734375,1.1499023c0-0.5625,0-1.1240234,0-1.6850586
			C130.8974609,10.3837891,130.515625,10.1230469,130.0986328,9.6635742z"/>
		<path style="fill:none;" d="M119.7285156,6.8300781c-0.5615234,0-1.1201172,0-1.6826172,0
			c0,1.3857422-0.0234375,2.7709961,0.0244141,4.1547852c0.0078125,0.2055664,0.3095703,0.4521484,0.5292969,0.5932617
			c0.3789062,0.2397461,1.0107422,0.0371094,1.0820312-0.5981445
			C119.8359375,9.6118164,119.7285156,8.2158203,119.7285156,6.8300781z"/>
		<path style="fill:none;" d="M121.9414062,5.1899414c-1.28125-0.1557617-2.5966797-0.0424805-3.8955078-0.0424805
			c0,0.5610352,0,1.1220703,0,1.6826172c0.5625,0,1.1210938,0,1.6826172,0s1.1230469,0,1.6855469,0
			c0.5605469,0,1.1210938,0,1.6816406,0C123.2832031,5.8803711,122.6953125,5.2827148,121.9414062,5.1899414z"/>
		<path style="fill:none;" d="M61.3232422,150c-1.2792969-0.1572266-2.5947266-0.0449219-3.8955078-0.0449219"/>
		<path style="fill:none;" d="M131.5146484,11.8833008c0.2207031,1.3417969,0.3408203,1.4614258,1.6855469,1.684082
			C132.9785156,12.2231445,132.8583984,12.1030273,131.5146484,11.8833008z"/>
		<path style="fill:none;" d="M148.1533203,14.5996094c-0.1484375,0.2138672-0.3486328,0.5009766-0.5644531,0.5449219
			c-0.5039062,0.1020508-1.1591797,0.2895508-1.5361328,0.0708008c-1.9257812-1.1196289-3.1201172-2.7016602-2.7617188-5.1054688
			c0.078125-0.5205078,0.0107422-1.0620117,0.0107422-1.5957031c-0.2734375,0-0.7099609,0.1108398-0.7949219-0.015625
			c-1.0419922-1.5581055-2.5283203-1.9047852-4.2558594-1.668457c-0.7851562,0-1.5751953-0.0288086-2.3554688,0.0214844
			c-0.2109375,0.0131836-0.4140625,0.2607422-0.6054688,0.4194336c-0.4433594,0.3637695-0.3310547,0.7246094,0.2958984,1.1171875
			c0.2148438,0.1362305,0.3623047,0.3793945,0.5625,0.5439453c0.4628906,0.3818359,0.3652344,0.7216797-0.2675781,1.1206055
			c-1.375,0.8652344-0.9482422,2.2612305-0.9980469,3.5146484c1.0673828,0,2.1386719,0.0742188,3.1962891-0.0229492
			c0.9296875-0.0864258,1.5039062,0.3950195,1.9804688,1.0131836c0.5771484,0.7485352,1.3564453,0.5932617,2.1171875,0.7192383
			c0.7939453,0.1347656,1.0986328,0.7294922,1.1220703,1.7426758c0.0146484,0.53125,0.0029297,1.0649414,0.0029297,1.5981445"/>
		<path style="fill:none;" d="M146.0986328,20.5874023c-0.6044922-0.2773438-1.0029297,0.2460938-1.109375,1.4389648
			c-0.0253906,0.2709961,0.0605469,0.5756836-0.0380859,0.8056641c-0.0996094,0.2353516-0.3330078,0.4682617-0.5673828,0.5742188
			C144,23.581543,143.40625,23.3266602,143.3447266,22.71875c-0.1357422-1.3530273-0.0429688-2.7329102-0.0429688-4.1010742
			c-0.2734375,0-0.5517578-0.0356445-0.8193359,0.0068359c-1.1660156,0.1762695-2.1533203-0.0991211-2.8173828-1.128418
			c-0.3496094-0.5429688-0.7871094-0.7504883-1.4140625-0.5629883c0,0.5449219-0.0087891,1.0883789,0.0019531,1.6328125
			c0.0195312,1.0600586,0.2939453,1.4555664,1.203125,1.734375c2.2128906,0.6772461,2.1992188,0.6743164,2.1708984,2.4101562
			c-0.0322266,2.175293-0.0078125,4.3525391-0.0078125,6.5273438c0,0.543457,0.1738281,1.1743164-0.0410156,1.6118164
			c-0.3349609,0.6870117-0.9902344,1.2119141-1.4111328,1.8686523c-0.7890625,1.2207031,0.0507812,2.7055664,1.5039062,2.7368164
			c0.5449219,0.0107422,1.0869141,0.0014648,1.6308594,0.0014648c0-0.2758789-0.1162109-0.6699219,0.0195312-0.8076172
			c0.9580078-0.9672852,1.9121094-1.8154297,1.7089844-3.4555664c-0.2011719-1.6274414-0.0625-3.2983398-0.0195312-4.9492188
			c0.0048828-0.2041016,0.3095703-0.4541016,0.5302734-0.5898438c1.4560547-0.9013672,1.1289062-2.3325195,1.1298828-3.668457
			C146.8583984,21.3603516,146.6855469,20.855957,146.0986328,20.5874023z"/>
		<path style="fill:none;" d="M14.234375,123.0537109c-0.7158203-0.1787109-1.5087891-0.0380859-2.2695312-0.0380859
			c-0.1845703,0.9160156,0.3798828,1.4638672,1.0986328,1.6416016c0.7158203,0.1826172,1.5087891,0.0400391,2.2695312,0.0400391
			C15.5175781,123.7832031,14.953125,123.234375,14.234375,123.0537109z"/>
		<path style="fill:none;" d="M17.015625,124.6972656c0.2226562,1.3457031,0.3417969,1.4648438,1.6835938,1.6845703
			C18.4794922,125.0390625,18.359375,124.9199219,17.015625,124.6972656z"/>
		<path style="fill:none;" d="M109.4980469,47.9829102c-0.0029297-0.199707-0.3427734-0.4296875-0.5703125-0.5869141
			c-1.0693359-0.7441406-1.0097656-1.831543-1-2.949707c0.0097656-1.0927734-0.1054688-2.1855469-0.1679688-3.277832
			c-1.2841797-0.7978516-1.1816406-2.3457031-1.8554688-3.40625c-0.8300781-1.3056641-1.9775391-2.7260742-3.9677734-2.4194336
			c-1.03125-1.7216797-2.6933594-1.6337891-4.3808594-1.5888672c-0.9091797,0.0263672-1.3466797-0.3608398-1.3496094-1.5898438
			c-0.0019531-1.0273438-0.6708984-1.4379883-1.1796875-2.0488281c-0.8056641-0.9711914-0.7587891-3.5273438,0.0683594-4.543457
			c0.3173828-0.390625,0.6230469-0.7900391,0.9365234-1.1845703c-1.1191406-0.7280273-1.53125-2.4013672-3.1982422-2.4013672
			c-1.1181641,0-2.2470703,0.0991211-3.3515625-0.0292969c-1.0507812-0.1210938-1.4931641,0.6069336-2.0332031,1.184082
			c-0.9384766,1-2.1054688,0.3105469-3.1416016,0.5332031c-0.6269531,0.1342773-1.046875-0.0942383-1.4296875-0.6274414
			c-0.3212891-0.4492188-0.7802734-0.7978516-1.1708984-1.1977539c-1.3427734-1.3876953-0.8369141-2.6035156,1.2919922-3.2485352
			c0.484375-0.1474609,1.0517578-0.4238281,1.3115234-0.8168945c0.5986328-0.9013672-0.2050781-2.5224609-1.2226562-2.5307617
			c-1.3994141-0.0112305-2.796875-0.0126953-4.1933594,0.0014648c-0.7431641,0.0068359-1.2685547,0.7446289-1.2636719,1.7446289
			c0.0097656,1.6772461-0.0751953,3.3603516,0.0332031,5.0297852c0.0673828,1.0600586-0.7197266,1.4291992-1.2578125,2.0014648
			C76.0048828,24.4575195,76,24.9331055,75.9111328,25.5195312c-0.2480469,1.6196289-1.7158203,2.0849609-2.9384766,1.0522461
			c-0.4267578-0.3583984-0.7949219-1.1171875-1.1943359-1.1201172c-1.5693359-0.0141602-3.3730469-0.7729492-4.5439453,1.0371094
			c-0.5703125,0.8793945-1.7587891,0.1821289-2.2177734,0.640625c-1.1025391,1.1015625-2.9433594,1.8510742-2.5371094,3.9501953
			c-0.5537109,0.609375-1.1064453,1.2192383-1.6611328,1.8271484c-0.0078125,3.9106445-0.0224609,7.8212891,0,11.7304688
			c0.0019531,0.2060547,0.3544922,0.3969727,0.5097656,0.6171875c1.1347656,1.6245117,1.1083984,1.6259766,1.1611328,2.8774414
			c0.0332031,0.7875977-0.1982422,1.5756836,0.5878906,2.2836914c1.6591797,1.4946289,3.2060547,3.1171875,4.7529297,4.7299805
			c0.4277344,0.4458008,0.8330078,0.5756836,1.4736328,0.5400391c1.3847656-0.078125,2.7792969-0.0224609,4.1210938-0.0224609
			c1.828125-1.8305664,3.5927734-3.6235352,5.3955078-5.3754883c0.4355469-0.4228516,0.5664062-0.8427734,0.5185547-1.4799805
			c-0.0791016-1.1132812,0.0214844-2.2368164-0.0380859-3.3515625c-0.0332031-0.6162109,0.1191406-1.0668945,0.6796875-1.4057617
			c1.0898438-0.6611328,0.9775391-1.8232422,1.2041016-2.8574219c0.0488281-0.2299805,0.3447266-0.487793,0.5820312-0.5639648
			c0.1376953-0.0454102,0.4208984,0.2119141,0.5761719,0.3881836c0.7666016,0.887207-0.2597656,3.0410156,2.0263672,2.8583984
			c-0.1884766-0.6259766-0.0029297-1.1025391,0.5673828-1.4072266c0.7402344-0.3959961,1.4921875-0.3959961,2.2324219,0
			c0.5703125,0.3046875,0.7558594,0.78125,0.5673828,1.4072266c0.6425781,0.1977539,1.3046875,0.0273438,1.3994141-0.6020508
			c0.2041016-1.3476562,0.1796875-2.730957,0.296875-4.0952148c0.0439453-0.519043,0.0449219-1.2905273,0.3613281-1.4980469
			C91.5800781,36.5097656,91,34.7475586,91.1230469,33.1464844c0.015625-0.2299805,0.2529297-0.4624023,0.4306641-0.6567383
			c0.3798828-0.4135742,0.7294922-0.2270508,1.2001953,0.3779297c0.5087891,0.65625,1.2597656,1.1459961,1.671875,1.8447266
			c0.2373047,0.4033203,0.2255859,1.2397461-0.0458984,1.6030273c-0.6650391,0.8916016-1.5253906,1.6386719-2.3417969,2.4052734
			c-0.6328125,0.5898438-1.015625,1.2207031-0.9511719,2.1430664c0.0751953,1.1166992,0.0332031,2.2416992,0.0117188,3.3632812
			c-0.0117188,0.8232422-0.6542969,1.3193359-1.6787109,1.3305664c-0.5615234,0.0068359-1.1220703,0.0019531-1.6835938,0.0019531
			c-0.1875,0.9511719,0.4003906,1.5478516,1.15625,1.6386719c1.2802734,0.1586914,2.5947266,0.0439453,3.8955078,0.0439453
			c0-1.8852539-0.0048828-3.7719727,0.0029297-5.6586914c0.0039062-0.5708008,0.9414062-1.1083984,1.8388672-1.0766602
			c1.0283203,0.0385742,1.4384766,0.4233398,1.5283203,1.3925781c0.09375,1.0371094-0.2666016,2.1181641,0.2929688,3.1103516
			c0.3076172,0.5498047,0.7744141,0.7314453,1.3886719,0.5498047c0.5615234,0,1.1220703,0,1.6826172,0
			c0-0.5546875-0.0576172-1.1152344,0.0117188-1.6616211c0.2236328-1.7504883-0.1806641-3.1948242-1.65625-4.3344727
			c-0.2607422-0.2041016-0.0742188-1.0585938-0.0048828-1.6010742c0.1083984-0.8613281,0.4169922-0.8432617,1.7470703,0.1245117
			c0.2197266,0.1601562,0.3925781,0.5527344,0.5908203,0.5561523c1.4511719,0.0244141,2.4423828,0.7583008,3.4638672,1.7358398
			c1.2109375,1.1557617,0.6201172,3.2387695,2.2998047,4.0541992c0.0957031,0.7910156,0.2441406,1.5800781,0.2714844,2.3730469
			c0.0458984,1.3828125-0.0634766,2.7734375,0.0322266,4.1513672c0.1025391,1.4555664-0.2744141,2.5556641-1.3691406,3.6254883
			c-0.7910156,0.7734375-0.2304688,2.0864258-0.3330078,3.152832c-0.0810547,0.7910156-0.5341797,1.2324219-1.6953125,1.2563477
			c-0.6298828,0.0131836-0.9833984,0.1669922-1.4394531,0.5996094c-1.6513672,1.5576172-2.3789062,1.4975586-3.9951172-0.1132812
			c-0.7832031-0.7832031-1.5039062-1.644043-2.3662109-2.3276367c-0.8261719-0.6518555-0.7041016-1.5009766-0.5732422-2.2480469
			c0.2832031-1.6376953-0.7197266-2.5141602-1.6992188-3.4819336c-0.1386719-0.1367188-0.0195312-0.5351562-0.0195312-0.8105469
			c-1.1230469,0-2.2451172,0-3.3681641,0c0,0.2802734-0.1210938,0.6855469,0.0195312,0.8168945
			c1.0195312,0.9663086,1.9091797,1.878418,1.7041016,3.5209961c-0.1953125,1.5766602-0.0761719,1.6318359,1.2373047,2.8154297
			c1.234375,1.1103516,2.2832031,2.2817383,2.3837891,4.0585938c0.0117188,0.2011719,0.4257812,0.5805664,0.5673828,0.5449219
			c1.6757812-0.4262695,2.3701172,1.0825195,3.5322266,1.6533203c0.6767578,0.3300781,1.6494141,0.0678711,2.4863281,0.0546875
			c0.2675781-0.003418,0.6630859,0.0390625,0.7773438-0.1083984c0.8818359-1.1669922,2.0517578-1.6811523,3.4775391-1.7832031
			c0.2099609-0.0175781,0.5673828-0.3745117,0.5644531-0.5688477c-0.0185547-1.1494141,0.1591797-2.1879883,1.2128906-2.8608398
			c0.5478516-0.3505859,0.6376953-0.8022461,0.5830078-1.4511719c-0.0888672-1.1098633,0.0400391-2.2382812-0.0458984-3.3486328
			c-0.0507812-0.6450195,0.0771484-1.0615234,0.6269531-1.4379883
			C110.2890625,51.328125,109.5205078,49.5615234,109.4980469,47.9829102z M77.6347656,45.8251953
			c0.0039062,0.5625-0.3154297,0.9355469-0.7597656,1.3603516c-1.6044922,1.5385742-3.1572266,3.1259766-4.7275391,4.7016602
			c-0.4052734,0.4072266-1.921875,0.5727539-2.2587891,0.2353516c-1.7705078-1.7636719-3.53125-3.5371094-5.3076172-5.2973633
			c-0.4023438-0.3999023-0.4433594-0.8793945-0.4365234-1.4946289c0.0361328-3.8881836,0.015625-7.7768555,0.0205078-11.6655273
			c0.0019531-1.0146484,1.7558594-2.890625,3.2265625-3.2143555c0.5585938-0.1230469,1.078125-0.065918,1.4648438-0.5170898
			c0.3613281-0.4213867,0.7529297-1.0615234,1.1796875-1.1020508c0.3554688-0.0327148,0.8251953,0.6269531,1.1591797,1.0488281
			c0.3867188,0.4912109,0.8349609,0.5332031,1.4550781,0.5605469c1.1386719,0.0517578,1.9726562,1.2900391,1.6113281,2.175293
			c-0.0976562,0.2348633-0.1826172,0.5673828-0.3720703,0.6645508c-1.4492188,0.7294922-0.9726562,2.4267578-1.7685547,3.4379883
			c-0.6806641,0.8686523-1.4902344,1.6635742-2.3544922,2.3500977c-0.6533203,0.5170898-0.7412109,0.8642578,0.0615234,1.1816406
			c0.4785156,0.1914062,1.1904297,0.421875,1.5322266,0.2094727c0.90625-0.5625,1.6787109-1.3486328,2.4853516-2.0668945
			c0.4140625-0.3676758,0.7265625-0.9204102,1.2001953-1.1347656c0.4628906-0.2089844,1.1347656-0.2543945,1.5947266-0.0693359
			c0.4179688,0.1655273,0.9121094,0.7211914,0.9492188,1.1411133c0.1181641,1.3779297,0.0429688,2.7753906,0.0429688,4.1625977
			C77.6328125,43.6025391,77.6279297,44.7148438,77.6347656,45.8251953z M88.1494141,34.222168
			c-0.4599609,0.3032227-0.5595703,0.8754883-0.4111328,1.4833984c0.46875,1.9125977-0.6572266,3.0634766-1.9140625,4.2114258
			c-0.9335938,0.8540039-1.1455078,0.925293-1.3720703-0.7197266c-0.1738281-1.2509766-0.9404297-1.855957-1.5292969-2.730957
			c-0.40625-0.6083984-0.4248047-1.4790039-0.6181641-2.2324219c-1.4755859-0.6904297-1.0087891-2.3759766-1.7539062-3.4345703
			c-1.2138672-1.7167969-1.2216797-1.7114258-1.2333984-2.8222656c-0.0029297-0.2773438,0-0.5541992,0-0.8330078
			c-0.1689453-0.6245117,0.0019531-1.1074219,0.5039062-1.4570312c0.3974609-0.2744141,0.7255859-0.0551758,1.2021484,0.4892578
			c0.328125,0.3774414,0.8476562,0.8056641,1.2958984,0.8198242c1.6425781,0.0537109,3.2919922-0.1811523,4.4257812,1.4960938
			c0.1962891,0.2905273,1.0292969,0.0976562,1.5332031,0.2431641c0.8720703,0.2514648,1.1171875,0.7504883,1.15625,1.8388672
			C89.4814453,31.9707031,89.5253906,33.3164062,88.1494141,34.222168z"/>
		<path style="fill:none;" d="M94.3330078,130.453125c-1.2324219-0.8212891-1.6230469-2.0761719-1.7705078-3.4541016
			c-1.328125-0.7714844-1.4003906-2.1884766-1.7695312-3.453125c-1.8232422-1.0664062-1.3007812-2.8496094-1.3876953-4.4560547
			c-0.0136719-0.2314453-0.1972656-0.5117188-0.3847656-0.6650391c-0.9033203-0.7373047-1.5019531-1.5751953-1.3095703-2.8320312
			c0.0273438-0.1826172-0.2900391-0.421875-0.453125-0.6318359c-0.4814453-0.625-1.4130859-0.9550781-1.2109375-2.0146484
			c0.2597656-1.3867188-1.1894531-1.7226562-1.6777344-2.6523438c0.4023438-1.6865234-0.8886719-2.4638672-1.8369141-3.4267578
			c-0.7285156-0.7392578-1.2050781-0.5986328-1.5185547,0.5c-0.1464844,0.5078125,0.0087891,1.1972656-0.2822266,1.5458984
			c-0.8964844,1.0634766-1.9423828,2.0029297-2.9296875,2.9892578c-0.0009766,1.4501953-0.6445312,2.5439453-1.7558594,3.46875
			c-1.0498047,0.8740234-2.2060547,1.7685547-1.7841797,3.4394531c-0.5595703,0.6054688-1.3154297,1.1259766-1.6230469,1.8398438
			c-0.2958984,0.6914062,0.0996094,1.6113281-0.7265625,2.2216797c-0.6679688,0.4892578-1.1171875,1.1269531-1.0351562,2.0820312
			c0.0957031,1.1123047,0.0097656,2.2324219,0.0244141,3.3496094c0.0136719,0.9804688,0.5068359,1.4335938,1.5566406,1.4433594
			c1.1171875,0.0097656,2.2333984,0.0068359,3.3505859,0.0019531c1.015625-0.0039062,1.8212891,0.5224609,1.8232422,1.1806641
			c0.0048828,2.5126953,0.0009766,5.0253906,0.0009766,7.5371094c0,2.7910156-0.0029297,5.5839844,0.0019531,8.3759766
			c0.0019531,0.9296875,0.5400391,1.4199219,1.5742188,1.4257812c1.3935547,0.0097656,2.8261719-0.1767578,4.1728516,0.0771484
			c0.6875,0.1337891,1.2236328,1.0478516,1.8291016,1.609375c0.7910156-0.7890625,1.9130859-1.4492188,2.2851562-2.4003906
			c0.4628906-1.1923828,0.6484375-2.6611328-0.1923828-3.9101562c-0.4384766-0.6503906-1.2880859-0.9726562-1.2705078-1.9960938
			c0.0556641-3.0683594,0.0185547-6.1396484,0.0214844-9.2099609c0.0019531-0.5800781,1.4277344-1.3037109,1.9970703-0.9980469
			c0.4599609,0.2441406,0.9492188,0.4765625,1.328125,0.8193359c0.8271484,0.7490234,1.5322266,1.6445312,2.4091797,2.3222656
			c0.3623047,0.2783203,1.0869141,0.3183594,1.5566406,0.1728516c0.4365234-0.1357422,1.0341797-0.6289062,1.0732422-1.0146484
			C94.5263672,132.6572266,94.3798828,131.5498047,94.3330078,130.453125z"/>
		<path style="fill:none;" d="M67.5283203,72.4121094c-0.0009766-0.2709961,0.0703125-0.6386719-0.0722656-0.7949219
			c-0.7490234-0.8208008-1.5498047-1.5976562-2.3642578-2.355957c-0.0429688-0.0395508-0.3964844,0.2021484-0.5664062,0.3574219
			c-1.2128906,1.1220703-2.4277344,2.1743164-2.09375,4.1679688C62.6025391,74.8125,62.75,75.9716797,62.1787109,76.9921875
			c-0.1191406,0.2138672-0.4121094,0.5146484-0.5703125,0.4833984c-0.2255859-0.0429688-0.5478516-0.3369141-0.5732422-0.5527344
			c-0.1259766-1.078125-0.0976562-2.175293-0.2597656-3.2451172c-0.1669922-1.0878906-1.6484375-1.3950195-1.6728516-2.6430664
			c-0.0371094-1.9248047-1.5693359-2.699707-2.9042969-3.5712891c-0.7412109-0.4833984-1.9599609,0.5058594-2.1386719,1.6689453
			c0,5.8295898-0.0009766,11.6577148,0.0019531,17.4868164c0,0.5791016,1.0439453,1.1220703,1.9560547,1.0458984
			c0.5537109-0.046875,1.2646484-0.2431641,1.2978516-0.7871094c0.1328125-2.2050781,0.0341797-4.4228516,0.1494141-6.6289062
			c0.0302734-0.6005859,0.6064453-0.9082031,1.0146484-0.7763672c0.234375,0.0771484,0.5761719,0.3828125,0.5673828,0.5654297
			c-0.0693359,1.1640625,0.1533203,2.1757812,1.1962891,2.8476562c0.5390625,0.3466797,0.6289062,0.7958984,0.5771484,1.4414062
			c-0.0888672,1.1015625-0.0244141,2.2158203-0.0244141,3.3261719c1.3427734,0.2216797,1.4628906,0.3417969,1.6835938,1.6845703
			c0,0.2783203-0.1074219,0.6230469,0.0195312,0.8242188c0.4853516,0.7773438,1.2724609,0.9570312,2.1279297,0.8525391
			c0.7851562-0.0927734,1.2451172-0.7216797,1.2158203-1.7714844c-0.0410156-1.3789062-0.1992188-2.7734375,1.2294922-3.671875
			c0.4912109-0.3085938,0.484375-0.8535156,0.4794922-1.4746094C67.5117188,80.203125,67.5322266,76.3076172,67.5283203,72.4121094z
			"/>
		<path style="fill:none;" d="M112.9951172,99.1523438c0-1.6757812,0.0214844-3.3496094-0.0068359-5.0273438
			c-0.0244141-1.3691406-0.1074219-2.7431641-0.1640625-4.1152344c-1.2666016-0.8046875-1.5214844-2.1210938-1.7910156-3.4492188
			c-0.046875-0.2255859-0.4208984-0.5927734-0.5673828-0.5615234c-1.6904297,0.390625-2.4746094-0.8613281-3.4726562-1.7900391
			c-0.4550781-0.4248047-0.7539062-0.8037109-0.7392578-1.3798828c0.0195312-0.8378906,0.1220703-1.6982422-0.0429688-2.5029297
			c-0.0869141-0.4160156-0.6162109-0.8740234-1.0507812-1.0595703c-0.7412109-0.3144531-2.0048828,0.1650391-2.1787109,0.7275391
			c-0.2285156,0.7480469,0.1523438,1.609375-0.5751953,2.2880859c-0.5693359,0.5292969-1.2841797,0.9326172-1.2373047,2.0048828
			c0.1171875,2.5078125,0.0380859,5.0244141,0.0380859,7.5361328c0,2.7900391-0.0410156,5.5839844,0.0546875,8.3710938
			c0.0117188,0.3232422,0.7402344,0.8076172,1.1933594,0.890625c0.8095703,0.1435547,1.6679688,0.0625,2.5048828,0.0332031
			c0.8125-0.0283203,1.3037109-0.6943359,1.3007812-1.6992188c-0.0078125-3.0703125-0.0126953-6.140625,0.0224609-9.2128906
			c0.0019531-0.2011719,0.3232422-0.4628906,0.5566406-0.5849609c0.390625-0.2060547,1.0390625,0.0507812,1.0585938,0.6640625
			c0.0957031,3.0673828,0.0976562,6.140625,0.0166016,9.2089844c-0.0302734,1.0507812,0.7441406,1.4052734,1.2548828,2.0039062
			c0.359375,0.4238281,0.71875,0.9277344,1.1953125,1.1503906c0.4560547,0.2177734,1.1230469,0.2822266,1.5869141,0.1142578
			c0.4248047-0.1582031,0.9121094-0.6757812,0.9970703-1.109375
			C113.1083984,100.8496094,112.9951172,99.9912109,112.9951172,99.1523438z"/>
		<path style="fill:none;" d="M112.0898438,74.0844727c-0.96875-1.0712891-1.96875-1.8588867-3.5498047-1.6074219
			c-0.8173828,0.1293945-1.6728516,0.0092773-2.5107422,0.0273438c-0.5742188,0.0146484-0.9912109-0.2446289-1.3720703-0.7504883
			c-0.5195312-0.6875-1.2050781-1.0048828-2.1191406-0.9609375c-0.8017578,0.0351562-1.609375-0.1381836-2.4140625-0.2197266
			c-1.0546875-1.7724609-2.8046875-1.5454102-4.4287109-1.4111328c-1.5205078,0.1264648-2.6806641-0.3183594-3.5683594-1.5317383
			c-0.8125-0.0620117-1.6269531-0.1879883-2.4384766-0.1591797c-0.6162109,0.0214844-1.1523438,0.0048828-1.5029297-0.4291992
			c-0.7353516-0.9111328-1.5732422-1.4365234-2.8300781-1.3017578c-1.1054688,0.1181641-2.2333984,0.0498047-3.3486328,0.0014648
			c-0.21875-0.0083008-0.4980469-0.2514648-0.6289062-0.4614258c-0.8994141-1.4643555-2.3320312-1.2890625-3.7011719-1.1777344
			c-0.6445312,0.0537109-1.0439453-0.0888672-1.4628906-0.5654297c-0.5244141-0.5893555-0.9941406-1.2578125-2.03125-1.171875
			c-1.3818359,0.1137695-2.7783203,0.003418-4.1679688-0.0112305c-1.7304688-2.684082-4.5390625-1.1865234-6.8085938-1.7797852
			c-0.2314453-0.0600586-0.4091797-0.3676758-0.5957031-0.5751953c-0.5664062-0.6279297-1.1757812-1.0585938-2.1142578-0.9951172
			c-0.8037109,0.0546875-1.6181641-0.1088867-2.4296875-0.1772461c-1.3369141-2.0039062-3.2275391-1.6616211-5.1269531-1.1782227
			c-0.2119141,0.0551758-0.5195312,0.5351562-0.5029297,0.5527344c1.3105469,1.3857422,2.4746094,3.0874023,4.8085938,2.512207
			c0.6230469-0.1542969,1.1679688-0.0302734,1.4765625,0.465332c0.9033203,1.4492188,2.3173828,1.3164062,3.6904297,1.1958008
			c0.6445312-0.0546875,1.046875,0.0883789,1.4716797,0.5483398c0.53125,0.5805664,0.9746094,1.2822266,2.0253906,1.1894531
			c1.3808594-0.1210938,2.78125-0.0141602,4.1757812-0.0048828c1.7294922,2.6796875,4.5224609,1.246582,6.8066406,1.7802734
			c0.2304688,0.0532227,0.40625,0.3696289,0.5957031,0.5737305c0.5683594,0.6171875,1.1582031,1.0844727,2.1074219,1.0131836
			c0.8046875-0.0620117,1.6230469,0.097168,2.4355469,0.1606445c1.2900391,2.1025391,3.3828125,1.3911133,5.2441406,1.5053711
			c0.5253906,0.0327148,1.3232422-0.015625,1.5205078,0.2851562c1.1474609,1.7446289,2.8613281,1.3574219,4.4863281,1.4057617
			c0.234375,0.0063477,0.5537109,0.1542969,0.6796875,0.340332c0.9013672,1.3422852,2.21875,1.440918,3.6494141,1.3374023
			c0.8349609-0.0566406,1.6777344-0.0385742,2.5136719,0.0097656c0.2275391,0.0126953,0.5224609,0.2104492,0.6494141,0.4116211
			c0.9003906,1.4135742,2.2939453,1.4003906,3.6787109,1.2314453c1.0195312-0.1240234,1.4707031,0.5756836,2.0595703,1.1191406
			c0.2060547,0.1879883,0.3857422,0.5424805,0.5986328,0.5600586c0.8330078,0.0654297,1.6728516,0.0263672,2.5126953,0.0263672
			c0.5566406,0,1.1289062-0.0742188,1.671875,0.0175781c0.6523438,0.1137695,1.1455078-0.0058594,1.4287109-0.6025391
			C112.9003906,74.909668,112.5419922,74.5839844,112.0898438,74.0844727z"/>
		<path style="fill:none;" d="M80.9511719,81.8818359c-0.0107422-0.4179688-0.6318359-0.8847656-1.0615234-1.2011719
			c-0.5292969-0.390625-0.5703125-0.8251953-0.6142578-1.4482422c-0.0869141-1.2626953-2.0986328-3.3325195-3.0957031-3.3579102
			c-1.1142578-0.0297852-2.2324219-0.0151367-3.3476562-0.0053711c-1.5664062,0.0112305-3.6074219,2.1152344-3.6162109,3.7197266
			c-0.0058594,1.3935547-0.0009766,2.7910156-0.0009766,4.1835938c0,1.9541016-0.0498047,3.9091797,0.0351562,5.8564453
			c0.0205078,0.4609375,0.4277344,0.9609375,0.7734375,1.3349609c0.9492188,1.0214844,1.9726562,1.9736328,2.9404297,2.9775391
			c0.4042969,0.4199219,0.8662109,0.5107422,1.4931641,0.4648438c1.3740234-0.0976562,2.7578125-0.0693359,4.1337891-0.1591797
			c0.2080078-0.0126953,0.5693359-0.3720703,0.5644531-0.5654297c-0.0361328-1.4970703,0.6630859-2.5800781,1.7958984-3.4521484
			C80.9677734,87.4472656,81.0302734,84.6621094,80.9511719,81.8818359z M76.4375,89.6738281
			c-1.3017578,1.3671875-1.3222656,1.3486328-2.3701172,0.3076172c-0.7714844-0.765625-1.6308594-1.4238281-1.5117188-2.7509766
			c0.1210938-1.390625,0.0273438-2.8007812,0.0273438-4.203125c0-0.28125-0.0146484-0.5634766,0.0009766-0.8408203
			c0.0341797-0.5595703,2.2646484-2.890625,2.671875-2.8027344c0.4375,0.0908203,2.3759766,2.7158203,2.3769531,3.2207031
			c0.0019531,0.2792969,0,0.5585938,0,0.8417969c0,0.5576172,0,1.1210938,0,1.6796875
			c0,0.8417969-0.1005859,1.6992188,0.0263672,2.5214844C77.8261719,88.7285156,76.9804688,89.1025391,76.4375,89.6738281z"/>
		<path style="fill:none;" d="M98.5332031,95.9189453c-0.2167969-0.1728516-0.5527344-0.3798828-0.5664062-0.5869141
			c-0.0839844-1.3681641-0.0556641-2.7451172-0.1367188-4.1142578c-0.1025391-1.6943359-0.0742188-3.3095703,1.6132812-4.3242188
			c-0.0693359-1.5625,0.7509766-3.3349609-0.9912109-4.5078125c-0.8837891-0.5927734-0.2988281-1.6074219-0.6669922-2.2128906
			c-0.5595703-0.9179688-1.4404297-1.6630859-2.2773438-2.3740234c-0.2792969-0.2392578-0.8789062,0.1474609-1.0048828,0.7646484
			c-0.15625,0.7734375,0.0976562,1.6064453-0.7070312,2.2197266c-0.6552734,0.5-1.1875,1.1582031-1.7763672,1.7460938
			c-0.5898438-0.5361328-1.1542969-1.1044922-1.7841797-1.5888672c-0.171875-0.1357422-0.5390625-0.0214844-0.8154297-0.0214844
			c0,1.1220703,0,2.2441406,0,3.3681641c0.5556641,0,1.1083984-0.0068359,1.6630859,0
			c0.9931641,0.0146484,1.6953125,0.5410156,1.703125,1.2841797c0.0087891,0.8300781,0.0019531,1.6611328,0.0019531,2.4931641
			c0,1.3857422-0.0283203,2.7734375,0.0097656,4.15625c0.0283203,1.0810547-0.0361328,2.2099609,0.2744141,3.2177734
			c0.2138672,0.6933594,1.3818359,1.0458984,1.3662109,1.9072266c-0.0341797,1.9980469,1.6181641,2.6738281,2.7324219,3.7685547
			c0.3369141,0.3310547,2.1669922-0.2617188,2.1914062-0.6796875
			C99.4599609,98.8662109,100.1308594,97.1826172,98.5332031,95.9189453z"/>
		<path style="fill:none;" d="M88.8261719,79.5136719c-1.8945312-0.4726562-3.7666016-0.7558594-5.1445312,1.2158203
			c-0.4638672,0.6640625-1.0439453,1.1425781-1.0244141,2.1035156c0.0996094,4.1689453,0.09375,8.3398438,0.1630859,12.5087891
			c0.0039062,0.2001953,0.3417969,0.4394531,0.5732422,0.5849609c0.8417969,0.5322266,2.6533203-0.1396484,2.6582031-0.9716797
			C86.0576172,93,86.2753906,91.0146484,85.9970703,89.1025391c-0.3486328-2.3847656,1.2646484-3.4697266,2.6054688-4.7958984
			c0.140625-0.1416016,0.5390625-0.0195312,0.8173828-0.0195312c0-1.1240234,0-2.2460938,0-3.3681641
			C89.6181641,80.2802734,89.4541016,79.6699219,88.8261719,79.5136719z"/>
		<path style="fill:none;" d="M60.2431641,82.8857422c-1.0429688-0.671875-1.265625-1.6835938-1.1962891-2.8476562
			c0.0087891-0.1826172-0.3330078-0.4882812-0.5673828-0.5654297c-0.4082031-0.1318359-0.984375,0.1757812-1.0146484,0.7763672
			c-0.1152344,2.2060547-0.0166016,4.4238281-0.1494141,6.6289062c-0.0332031,0.5439453-0.7441406,0.7402344-1.2978516,0.7871094
			c-0.9121094,0.0761719-1.9560547-0.4667969-1.9560547-1.0458984c-0.0029297-5.8291016-0.0019531-11.6572266-0.0019531-17.4868164
			c-0.6289062-0.190918-1.1611328-0.0239258-1.3964844,0.5805664c-0.1835938,0.4780273-0.2734375,1.0214844-0.2753906,1.5351562
			C52.3701172,76.7597656,52.375,82.2714844,52.3779297,87.78125c0,1.0751953,0.1103516,1.1923828,1.4169922,1.5546875
			c0.4960938,0.1386719,1.0615234,0.1503906,1.4804688,0.4072266c1.5996094,0.9755859,1.5898438,1.0107422,2.3525391,0.2382812
			c0.7734375-0.78125,1.5400391-1.5722656,2.3583984-2.3066406c0.1523438-0.1376953,0.5341797-0.0214844,0.8095703-0.0214844
			c0-1.1103516-0.0644531-2.2246094,0.0244141-3.3261719C60.8720703,83.6816406,60.7822266,83.2324219,60.2431641,82.8857422z"/>
		<path style="fill:none;" d="M99.5224609,47.2421875c0-0.5610352,0-1.1220703,0-1.6826172c-0.5605469,0-1.1210938,0-1.6826172,0
			c0.1875,0.9511719-0.4013672,1.5478516-1.1552734,1.6386719c-1.2822266,0.1586914-2.5966797,0.0439453-3.8964844,0.0439453
			c-1.3007812,0-2.6152344,0.1147461-3.8955078-0.0439453c-0.7558594-0.0908203-1.34375-0.6875-1.15625-1.6386719
			c0-0.5615234,0-1.1235352,0-1.684082c0.1884766-0.6259766,0.0029297-1.1025391-0.5673828-1.4072266
			c-0.7402344-0.3959961-1.4921875-0.3959961-2.2324219,0c-0.5703125,0.3046875-0.7558594,0.78125-0.5673828,1.4072266
			c0,0.5605469,0,1.1225586,0,1.684082c1.4228516-0.0986328,1.6738281,0.7939453,1.6933594,1.9428711
			c0.015625,0.8901367,0.5283203,1.3393555,1.4121094,1.4335938c0.4824219,0.0537109,0.984375,0.1420898,1.4238281,0.3369141
			c0.5458984,0.2382812,0.6933594,0.7441406,0.5214844,1.3374023c1.1230469,0,2.2451172,0,3.3681641,0
			c-0.1923828-0.6323242-0.03125-1.21875,0.5849609-1.3891602c0.7597656-0.2109375,1.5751953-0.2172852,2.3691406-0.2919922
			c1.0673828-0.1005859,2.1542969-0.0893555,3.1972656-0.3012695
			C99.5556641,48.5009766,99.7148438,47.8754883,99.5224609,47.2421875z"/>
		<path style="fill:none;" d="M88.8984375,49.2729492c-0.4394531-0.1948242-0.9414062-0.2832031-1.4238281-0.3369141
			c-0.8837891-0.0942383-1.3964844-0.543457-1.4121094-1.4335938c-0.0195312-1.1489258-0.2705078-2.0415039-1.6933594-1.9428711
			c0,1.074707,0.0498047,2.152832-0.0195312,3.2236328c-0.0400391,0.6049805-0.0068359,1.1157227,0.4677734,1.4223633
			c1.3408203,0.8632812,1.2851562,2.1713867,1.2509766,3.5268555c-0.0263672,1.0839844,0.5292969,2.0385742,0.9160156,1.8149414
			c0.8056641-0.4667969,0.7294922-1.2978516,0.7646484-2.0952148c0.0361328-0.7685547,0.0957031-1.5581055,0.3125-2.2871094
			c0.1728516-0.5874023,0.7451172-0.7363281,1.3583984-0.5546875
			C89.5917969,50.0170898,89.4443359,49.5112305,88.8984375,49.2729492z"/>
		<path style="fill:none;" d="M60.7958984,87.6533203c0.2197266,1.34375,0.3388672,1.4648438,1.6835938,1.6845703
			C62.2587891,87.9951172,62.1386719,87.875,60.7958984,87.6533203z"/>
		<path style="fill:none;" d="M141.5683594,38.8291016c0.0097656,0.1186523,0.0244141,0.2446289,0.0507812,0.3876953
			c0-0.0620117,0-0.222168,0-0.394043C141.6005859,38.8276367,141.5859375,38.8256836,141.5683594,38.8291016z"/>
		<path style="fill:none;" d="M141.6191406,38.8227539c-0.9726562,0.2397461-1.3476562-0.5898438-1.9130859-1.074707
			c-0.1982422-0.168457-0.3710938-0.3681641-0.5576172-0.5527344c-0.2988281,0.3632812-0.7705078,0.6860352-0.8662109,1.0957031
			c-0.3515625,1.4926758,0.6933594,2.5483398,2.1621094,2.1865234c0.4365234-0.1069336,0.7861328-0.5683594,1.1757812-0.8666992
			C141.6191406,39.3461914,141.6191406,39.0854492,141.6191406,38.8227539z"/>
		<path style="fill:none;" d="M143.3017578,45.5595703c0.2216797,1.3422852,0.3417969,1.4633789,1.6855469,1.6826172
			C144.765625,45.8999023,144.6464844,45.777832,143.3017578,45.5595703z"/>
		<path style="fill:none;" d="M142.7451172,42.4833984c-0.5869141-0.296875-0.96875,0.1811523-1.1259766,1.3920898
			c0.5605469,0,1.1230469,0,1.6826172,0C143.4873047,43.2558594,143.3115234,42.7714844,142.7451172,42.4833984z"/>
		<path style="fill:none;" d="M126.9931641,6.8740234c-1.2822266-0.1572266-2.5957031-0.0439453-3.8974609-0.0439453
			c-0.1865234,0.9516602,0.4023438,1.550293,1.1552734,1.6420898c1.2832031,0.15625,2.5976562,0.0419922,3.8984375,0.0419922
			C128.3349609,7.5629883,127.7460938,6.9667969,126.9931641,6.8740234z"/>
		<path style="fill:none;" d="M132.5302734,8.6987305c-0.3642578,0.199707-0.8183594,0.4223633-0.9853516,0.762207
			c-0.3447266,0.7050781,0.0029297,1.0537109,0.7080078,0.7084961c0.3408203-0.1655273,0.5634766-0.6191406,0.7617188-0.9858398
			C133.0488281,9.1225586,132.5917969,8.6665039,132.5302734,8.6987305z"/>
		<path style="fill:none;" d="M40.9716797,149.4072266c-0.9121094-1.453125-0.359375-3.2304688-0.3613281-4.8564453
			c-0.0302734-23.4560547-0.0214844-46.9101562-0.0214844-70.3671875c1.1748047-0.1831055,1.6826172-0.5673828,1.6826172-1.3081055
			c0.0029297-11.6606445,0.0009766-23.3222656,0.0048828-34.9829102c0-0.5483398-0.0234375-1.1054688,0.0722656-1.640625
			c0.0429688-0.2236328,0.3691406-0.3955078,0.5625-0.5947266c0.5722656-0.5756836,1.0849609-1.0913086,1.0751953-2.0649414
			c-0.0595703-5.5522461-0.0283203-11.1054688-0.0283203-16.6591797c0.6308594,0.1933594,1.2177734,0.0327148,1.3886719-0.5844727
			c0.2099609-0.7587891,0.2792969-1.5756836,0.28125-2.3686523"/>
		<path style="fill:none;" d="M1.4287109,129.3310547c0.4521484-0.3476562,0.4667969-0.8662109,0.4541016-1.4882812
			c-0.0507812-2.2255859-0.0244141-4.4511719-0.0195312-6.6796875c0.0029297-1.0839844,0.3691406-1.46875,1.4833984-1.5107422
			c0.8330078-0.0322266,1.671875,0.0253906,2.5039062-0.0244141c0.2265625-0.0146484,0.4570312-0.2470703,0.6513672-0.4199219
			c0.4326172-0.3789062,0.2919922-0.7685547-0.3603516-1.1806641c-0.5878906-0.3730469-0.8212891-0.7998047-0.6337891-1.1738281
			c0.2939453-0.5839844,0.7900391-0.6220703,1.4277344-0.6054688c1.078125,0.0224609,1.6572266-0.515625,1.6591797-1.3056641
			c0.0068359-2.5058594-0.0478516-5.0126953,0.0166016-7.5166016c0.0742188-3.0283203-0.3193359-6.0732422,0.2705078-9.0771484
			c0.1230469-0.6240234,0.7617188-0.7871094,1.3984375-0.5917969c0-2.8066406,0-5.6113281,0-8.4189453
			c0-5.5322266-0.0263672-11.0644531,0.0263672-16.5966797c0.0097656-0.9433594-0.421875-1.512207-1.0195312-2.0800781
			c-0.2011719-0.1894531-0.5537109-0.3808594-0.5634766-0.5849609C8.6445312,68.4306641,8.5605469,66.78125,8.6445312,65.140625
			c0.0214844-0.4277344,0.6230469-0.8334961,0.9746094-1.2353516c0.6416016-0.7392578,0.4921875-1.4282227-0.5410156-1.4438477
			c-1.2763672-0.0229492-2.0009766-0.6665039-2.7314453-1.4785156c-0.5283203-0.5854492-1.2226562-1.0004883-1.1484375-2.027832
			c0.1191406-1.6523438,0.03125-3.3183594,0.03125-4.9760742c0-1.1240234,0-2.2451172,0-3.3686523
			c0-2.8076172,0-5.6123047,0-8.4189453c0.5615234,0,1.1220703,0,1.6845703,0
			c1.3369141,0.0014648,2.7773438-0.3325195,3.6582031,1.1342773C10.9003906,43.8720703,11.3623047,43.9980469,12,43.8930664
			c0.5371094-0.0878906,1.0976562-0.0175781,1.6484375-0.0175781c0.2763672,0,0.6572266-0.1186523,0.8085938,0.019043
			c0.8173828,0.7329102,1.6513672,1.472168,2.3398438,2.3217773c0.7890625,0.9775391,1.7587891,1.1083984,2.8935547,1.0400391
			c1.0371094-0.0625,1.0966797-0.0673828,2.7607422,1.2661133C23.3320312,49.2280273,24.6230469,48.5,25.3291016,49.625
			c0.4345703,0.6914062,1.1230469,1.1323242,2.0556641,0.996582c0.5498047-0.0810547,0.9667969,0.25,1.3457031,0.7407227
			c0.5126953,0.6757812,1.1962891,1.1303711,2.0839844,0.921875c1.9228516-0.4482422,3.0078125,0.7509766,4.171875,1.940918
			c0.4384766,0.4472656,0.7421875,0.8071289,0.5507812,1.4379883c0,2.2431641,0,4.4882812,0,6.7348633
			c0,5.0507812,0,10.1015625,0,15.1518555c0,0.7617188,0.1416016,1.5566406-0.0380859,2.2714844
			c-0.1816406,0.7177734-0.7285156,1.2822266-1.6455078,1.0976562c0,9.7851562,0,19.5732422,0,29.3583984
			c0,0.5576172,0.0498047,1.125-0.0224609,1.6748047c-0.0283203,0.2255859-0.3408203,0.40625-0.484375,0.6308594
			c-1.1767578,1.8232422-1.1748047,1.8251953-1.1748047,2.8681641"/>
		<path style="fill:none;" d="M77.5898438,38.3300781c-0.0371094-0.4199219-0.53125-0.9755859-0.9492188-1.1411133
			c-0.4599609-0.1850586-1.1318359-0.1396484-1.5947266,0.0693359c-0.4736328,0.2143555-0.7861328,0.7670898-1.2001953,1.1347656
			c-0.8066406,0.7182617-1.5791016,1.5043945-2.4853516,2.0668945c-0.3417969,0.2124023-1.0537109-0.0180664-1.5322266-0.2094727
			c-0.8027344-0.3173828-0.7148438-0.6645508-0.0615234-1.1816406c0.8642578-0.6865234,1.6738281-1.4814453,2.3544922-2.3500977
			c0.7958984-1.0112305,0.3193359-2.7084961,1.7685547-3.4379883c0.1894531-0.097168,0.2744141-0.4296875,0.3720703-0.6645508
			c0.3613281-0.8852539-0.4726562-2.1235352-1.6113281-2.175293c-0.6201172-0.0273438-1.0683594-0.0693359-1.4550781-0.5605469
			c-0.3339844-0.421875-0.8037109-1.081543-1.1591797-1.0488281c-0.4267578,0.0405273-0.8183594,0.6806641-1.1796875,1.1020508
			c-0.3867188,0.4511719-0.90625,0.394043-1.4648438,0.5170898c-1.4707031,0.3237305-3.2246094,2.199707-3.2265625,3.2143555
			c-0.0048828,3.8886719,0.015625,7.7773438-0.0205078,11.6655273c-0.0068359,0.6152344,0.0341797,1.0947266,0.4365234,1.4946289
			c1.7763672,1.7602539,3.5371094,3.5336914,5.3076172,5.2973633c0.3369141,0.3374023,1.8535156,0.171875,2.2587891-0.2353516
			c1.5703125-1.5756836,3.1230469-3.1630859,4.7275391-4.7016602c0.4443359-0.4248047,0.7636719-0.7978516,0.7597656-1.3603516
			c-0.0068359-1.1103516-0.0019531-2.2226562-0.0019531-3.3325195
			C77.6328125,41.1054688,77.7080078,39.7080078,77.5898438,38.3300781z"/>
		<path style="fill:none;" d="M106.2783203,50.9575195c-0.0957031-1.3779297,0.0136719-2.7685547-0.0322266-4.1513672
			c-0.0273438-0.7929688-0.1757812-1.5820312-0.2714844-2.3730469c-1.6796875-0.8154297-1.0888672-2.8984375-2.2998047-4.0541992
			c-1.0214844-0.9775391-2.0126953-1.7114258-3.4638672-1.7358398c-0.1982422-0.003418-0.3710938-0.3959961-0.5908203-0.5561523
			c-1.3300781-0.9677734-1.6386719-0.9858398-1.7470703-0.1245117c-0.0693359,0.5424805-0.2558594,1.3969727,0.0048828,1.6010742
			c1.4755859,1.1396484,1.8798828,2.5839844,1.65625,4.3344727c-0.0693359,0.5463867-0.0117188,1.1069336-0.0117188,1.6616211
			c0,0.5605469,0,1.121582,0,1.6826172c0.6357422-0.1948242,1.1279297-0.0063477,1.4208984,0.5830078
			c0.3720703,0.7543945,0.4208984,1.5253906-0.0605469,2.2514648c-0.1425781,0.2158203-0.3974609,0.5078125-0.6044922,0.5112305
			c-2.4960938,0.0351562-4.9941406,0.0224609-7.4902344,0.0224609c0,0.2753906-0.1191406,0.6738281,0.0195312,0.8105469
			c0.9794922,0.9677734,1.9824219,1.8442383,1.6992188,3.4819336c-0.1308594,0.7470703-0.2529297,1.5961914,0.5732422,2.2480469
			c0.8623047,0.6835938,1.5830078,1.5444336,2.3662109,2.3276367c1.6162109,1.6108398,2.34375,1.6708984,3.9951172,0.1132812
			c0.4560547-0.4326172,0.8095703-0.5864258,1.4394531-0.5996094c1.1611328-0.0239258,1.6142578-0.465332,1.6953125-1.2563477
			c0.1025391-1.0664062-0.4580078-2.3793945,0.3330078-3.152832
			C106.0039062,53.5131836,106.3808594,52.4130859,106.2783203,50.9575195z"/>
		<path style="fill:none;" d="M89.4345703,30.5742188c-0.0390625-1.0883789-0.2841797-1.5874023-1.15625-1.8388672
			c-0.5039062-0.1455078-1.3369141,0.0473633-1.5332031-0.2431641c-1.1337891-1.6772461-2.7832031-1.4423828-4.4257812-1.4960938
			c-0.4482422-0.0141602-0.9677734-0.4423828-1.2958984-0.8198242c-0.4765625-0.5444336-0.8046875-0.7636719-1.2021484-0.4892578
			c-0.5019531,0.3496094-0.6728516,0.8325195-0.5039062,1.4570312c0,0.2788086-0.0029297,0.5556641,0,0.8330078
			c0.0117188,1.1108398,0.0195312,1.1054688,1.2333984,2.8222656c0.7451172,1.0585938,0.2783203,2.7441406,1.7539062,3.4345703
			c0.1933594,0.753418,0.2119141,1.6240234,0.6181641,2.2324219c0.5888672,0.875,1.3554688,1.4799805,1.5292969,2.730957
			c0.2265625,1.6450195,0.4384766,1.5737305,1.3720703,0.7197266c1.2568359-1.1479492,2.3828125-2.2988281,1.9140625-4.2114258
			c-0.1484375-0.6079102-0.0488281-1.1801758,0.4111328-1.4833984
			C89.5253906,33.3164062,89.4814453,31.9707031,89.4345703,30.5742188z"/>
		<path style="fill:none;" d="M94.4257812,34.7124023c-0.4121094-0.6987305-1.1630859-1.1884766-1.671875-1.8447266
			c-0.4707031-0.6049805-0.8203125-0.7915039-1.2001953-0.3779297c-0.1777344,0.1943359-0.4150391,0.4267578-0.4306641,0.6567383
			C91,34.7475586,91.5800781,36.5097656,89.7939453,37.6801758c-0.3164062,0.2075195-0.3173828,0.9790039-0.3613281,1.4980469
			c-0.1171875,1.3642578-0.0927734,2.7475586-0.296875,4.0952148c-0.0947266,0.6293945-0.7568359,0.7998047-1.3994141,0.6020508
			c0,0.5605469,0,1.1225586,0,1.684082c0.5615234,0,1.1220703,0.0048828,1.6835938-0.0019531
			c1.0244141-0.0112305,1.6669922-0.5073242,1.6787109-1.3305664c0.0214844-1.121582,0.0634766-2.246582-0.0117188-3.3632812
			c-0.0644531-0.9223633,0.3183594-1.5532227,0.9511719-2.1430664c0.8164062-0.7666016,1.6767578-1.5136719,2.3417969-2.4052734
			C94.6513672,35.9521484,94.6630859,35.1157227,94.4257812,34.7124023z"/>
		<path style="fill:none;" d="M97.8398438,45.5595703c-0.6142578,0.1816406-1.0810547,0-1.3886719-0.5498047
			c-0.5595703-0.9921875-0.1992188-2.0732422-0.2929688-3.1103516c-0.0898438-0.9692383-0.5-1.3540039-1.5283203-1.3925781
			c-0.8974609-0.0317383-1.8349609,0.5058594-1.8388672,1.0766602c-0.0078125,1.8867188-0.0029297,3.7734375-0.0029297,5.6586914
			c1.2998047,0,2.6142578,0.1147461,3.8964844-0.0439453C97.4384766,47.1074219,98.0273438,46.5107422,97.8398438,45.5595703z"/>
		<path style="fill:none;" d="M77.6591797,87.6474609c-0.1269531-0.8222656-0.0263672-1.6796875-0.0263672-2.5214844
			c0-0.5585938,0-1.1220703,0-1.6796875c0-0.2832031,0.0019531-0.5625,0-0.8417969
			c-0.0009766-0.5048828-1.9394531-3.1298828-2.3769531-3.2207031c-0.4072266-0.0878906-2.6376953,2.2431641-2.671875,2.8027344
			c-0.015625,0.2773438-0.0009766,0.5595703-0.0009766,0.8408203c0,1.4023438,0.09375,2.8125-0.0273438,4.203125
			c-0.1191406,1.3271484,0.7402344,1.9853516,1.5117188,2.7509766c1.0478516,1.0410156,1.0683594,1.0595703,2.3701172-0.3076172
			C76.9804688,89.1025391,77.8261719,88.7285156,77.6591797,87.6474609z"/>
		<path style="fill:none;" d="M100.9433594,47.8251953c-0.2929688-0.5893555-0.7851562-0.777832-1.4208984-0.5830078
			c0.1923828,0.6333008,0.0332031,1.2587891-0.5830078,1.3857422c-1.0429688,0.2119141-2.1298828,0.2006836-3.1972656,0.3012695
			c-0.7939453,0.074707-1.609375,0.0810547-2.3691406,0.2919922c-0.6162109,0.1704102-0.7773438,0.7568359-0.5849609,1.3891602
			c2.4960938,0,4.9941406,0.0126953,7.4902344-0.0224609c0.2070312-0.003418,0.4619141-0.2954102,0.6044922-0.5112305
			C101.3642578,49.3505859,101.3154297,48.5795898,100.9433594,47.8251953z"/>
		<path style="fill:none;" d="M149.8544922,20.9599609c-0.6074219-0.605957-0.6503906-0.6479492-1.7402344,0.4672852
			c-0.4443359,0.4536133-0.8095703,0.7519531-1.4433594,0.5585938c-0.0009766,1.3359375,0.3261719,2.7670898-1.1298828,3.668457
			c-0.2207031,0.1357422-0.5253906,0.3857422-0.5302734,0.5898438c-0.0429688,1.6508789-0.1816406,3.3217773,0.0195312,4.9492188
			c0.203125,1.6401367-0.7509766,2.4882812-1.7089844,3.4555664c-0.1357422,0.1376953-0.0195312,0.5317383-0.0195312,0.8076172
			c-0.5439453,0-1.0859375,0.0092773-1.6308594-0.0014648c-1.453125-0.03125-2.2929688-1.5161133-1.5039062-2.7368164
			c0.4208984-0.6567383,1.0761719-1.1816406,1.4111328-1.8686523c0.2148438-0.4375,0.0410156-1.0683594,0.0410156-1.6118164
			c0-2.1748047-0.0244141-4.3520508,0.0078125-6.5273438c0.0283203-1.7358398,0.0419922-1.7329102-2.1708984-2.4101562
			c-0.9091797-0.2788086-1.1835938-0.6743164-1.203125-1.734375c-0.0107422-0.5444336-0.0019531-1.0878906-0.0019531-1.6328125
			c-2.1113281,0.7509766-2.6025391,1.3349609-3.3710938,3.8520508c-0.3496094,1.1503906-0.7138672,1.2529297-1.4912109,0.5654297
			c-1.2607422-1.1123047-2.3300781-2.2705078-1.8818359-4.1513672c0.0625-0.2578125,0.0576172-0.5556641-0.0039062-0.8129883
			c-0.0595703-0.2368164-0.2216797-0.4580078-0.3632812-0.6665039c-0.3789062-0.5546875-0.6640625-0.3808594-1.1787109,0.2026367
			c-1.0859375,1.2236328-2.2998047,2.3354492-3.4335938,3.5185547C126.5107422,19.4589844,126.84375,19.8012695,127.0039062,20
			c0.4833984,0.6035156,1.4042969,0.953125,1.1455078,1.9858398c0.0351562,1.859375,0.0615234,1.8867188-1.2041016,3.6816406
			c-0.3310547,0.4716797-0.5107422,0.8540039-0.5039062,1.4848633c0.0429688,4.4672852,0.0029297,8.934082,0.0458984,13.4013672
			c0.0048828,0.6293945-0.1220703,1.0263672-0.6318359,1.4360352c-0.6269531,0.5058594-1.1992188,1.0620117-1.0996094,2.0571289
			c0.1103516,1.1074219,0.0244141,2.2324219,0.0244141,3.3491211c0,10.0512695,0,20.1044922,0,30.1538086
			c0,0.5585938-0.0742188,1.1318359,0.0195312,1.6728516c0.1132812,0.6542969-0.0869141,1.0410156-0.5849609,1.4580078
			c-0.609375,0.5078125-1.1699219,1.0234375-1.1503906,2.0361328c0.0810547,3.9082031,0.0107422,7.8193359,0.0546875,11.7275391
			c0.0068359,0.6259766-0.1269531,1.0263672-0.6357422,1.4326172c-0.6289062,0.5058594-1.0996094,1.0761719-1.0976562,2.0576172"/>
		<path style="fill:none;" d="M140.4443359,40.4775391c-1.46875,0.3618164-2.5136719-0.6938477-2.1621094-2.1865234
			c0.0957031-0.409668,0.5673828-0.7324219,0.8662109-1.0957031c0.1865234,0.1845703,0.359375,0.3842773,0.5576172,0.5527344
			c0.5556641,0.4746094,0.9306641,1.2788086,1.8623047,1.0810547c-0.0078125-0.1176758,0.0009766-0.2104492,0.0078125-0.3095703
			c0.0048828,0.0976562,0.0087891,0.1933594,0.0429688,0.3032227c0.2744141,0,0.7167969-0.1098633,0.8017578,0.0180664
			c-0.0849609-0.1279297-0.5273438-0.0180664-0.8007812,0.3759766
			C141.2304688,39.9091797,140.8808594,40.3706055,140.4443359,40.4775391z"/>
		<path style="fill:none;" d="M142.7451172,42.4833984c0.5664062,0.2880859,0.7421875,0.7724609,0.5566406,1.3920898
			c-0.5595703,0-1.1220703,0-1.6826172,0C141.7763672,42.6645508,142.1582031,42.1865234,142.7451172,42.4833984z"/>
		<path style="fill:none;" d="M143.3017578,45.5595703c1.3447266,0.2182617,1.4638672,0.340332,1.6855469,1.6826172
			C143.6435547,47.0229492,143.5234375,46.9018555,143.3017578,45.5595703z"/>
	</g>
</g>
</svg>
