<?xml version="1.0" encoding="utf-8"?>
<!-- Generator: Adobe Illustrator 16.0.0, SVG Export Plug-In . SVG Version: 6.00 Build 0)  -->
<!DOCTYPE svg PUBLIC "-//W3C//DTD SVG 1.1//EN" "http://www.w3.org/Graphics/SVG/1.1/DTD/svg11.dtd">
<svg version="1.1" id="Layer_1" xmlns="http://www.w3.org/2000/svg" xmlns:xlink="http://www.w3.org/1999/xlink" x="0px" y="0px"
	 width="150px" height="150px" viewBox="0 0 150 150" style="enable-background:new 0 0 150 150;" xml:space="preserve">
<g id="art">
	<g>
		<g>
			<g>
				<path d="M53.65625,40.9335938H35.6523438V60.215332h12.9960938v9.9072266H35.6523438v31.8520508H25V31.0258789h28.65625
					V40.9335938z"/>
				<path d="M61.9638672,86.4228516l-2.4501953,15.5517578H48.9677734l11.6113281-70.9487305h13.8486328l12.3564453,70.9487305
					H75.9189453l-2.5576172-15.5517578H61.9638672z M67.5029297,48.0717773l-4.0478516,28.3374023h8.3095703L67.5029297,48.0717773z
					"/>
				<path d="M124.5488281,107.3007812c-6.4990234-0.1054688-9.2666016-1.4912109-11.9306641-5.7529297
					c-2.7695312,1.1728516-4.0488281,1.4912109-7.03125,1.4912109c-5.0058594,0-9.6943359-2.0224609-12.4638672-5.5390625
					c-3.4091797-4.3671875-4.2607422-7.9892578-4.2607422-18.6416016v-24.715332
					c0-10.652832,0.8515625-14.4882812,4.2607422-18.5351562c2.9824219-3.6235352,7.4580078-5.6464844,12.4638672-5.6464844
					c5.0078125,0,9.6953125,2.1303711,12.4628906,5.6464844c3.4091797,4.2597656,4.2626953,7.7753906,4.2626953,18.5351562
					v24.715332c0,8.8408203-0.5332031,12.3574219-2.4501953,15.765625c1.2783203,1.4912109,2.2373047,1.9169922,4.6865234,2.2373047
					V107.3007812z M99.5146484,77.6855469c0,12.8896484,1.0664062,15.4472656,6.0722656,15.4472656
					c5.0078125,0,6.0712891-2.5576172,6.0712891-15.3398438V55.2075195c0-12.7817383-1.0634766-15.3398438-6.0712891-15.3398438
					c-4.2597656,0-5.859375,2.7709961-5.9648438,10.3339844c-0.1074219,2.9819336-0.1074219,4.6875-0.1074219,5.0058594V77.6855469z
					"/>
			</g>
			<g>
				<path d="M28.1650391,112.8378906h-1.9541016v2.0927734h1.4091797v1.0732422h-1.4091797v3.4570312h-1.15625v-7.6982422h3.1103516
					V112.8378906z"/>
				<path d="M29.9003906,119.4609375h-1.1552734v-7.6982422h1.6171875c1.3300781,0,1.9306641,0.6943359,1.9306641,2.2177734
					c0,1.0068359-0.2080078,1.5273438-0.7744141,1.9541016l0.8896484,3.5263672h-1.2255859l-0.7392578-3.2138672h-0.5429688
					V119.4609375z M30.2705078,115.1728516c0.6464844,0,0.8652344-0.2890625,0.8652344-1.1689453
					c0-0.8769531-0.21875-1.1660156-0.8652344-1.1660156h-0.3701172v2.3349609H30.2705078z"/>
				<path d="M36.171875,112.8378906h-1.9882812v2.0927734h1.4228516v1.0732422h-1.4228516v2.3701172h1.9882812v1.0869141h-3.1435547
					v-7.6982422h3.1435547V112.8378906z"/>
				<path d="M40.5419922,120.0380859c-0.7041016-0.0117188-1.0058594-0.1621094-1.2929688-0.6230469
					c-0.3017578,0.1259766-0.4404297,0.1601562-0.7636719,0.1601562c-0.5429688,0-1.0507812-0.2197266-1.3535156-0.6015625
					c-0.3691406-0.4726562-0.4619141-0.8652344-0.4619141-2.0214844v-2.6826172
					c0-1.1542969,0.0927734-1.5703125,0.4619141-2.0097656c0.3242188-0.3935547,0.8105469-0.6113281,1.3535156-0.6113281
					s1.0507812,0.2314453,1.3525391,0.6113281c0.3701172,0.4628906,0.4619141,0.84375,0.4619141,2.0097656v2.6826172
					c0,0.9589844-0.0576172,1.3408203-0.265625,1.7099609c0.1386719,0.1621094,0.2421875,0.2080078,0.5078125,0.2431641V120.0380859
					z M37.8271484,116.8261719c0,1.3964844,0.1152344,1.6748047,0.6582031,1.6748047s0.6582031-0.2783203,0.6582031-1.6650391
					v-2.4501953c0-1.3867188-0.1152344-1.6630859-0.6582031-1.6630859c-0.4628906,0-0.6357422,0.2998047-0.6464844,1.1201172
					c-0.0117188,0.3232422-0.0117188,0.5078125-0.0117188,0.5429688V116.8261719z"/>
				<path d="M44.5947266,111.7626953v5.1894531c0,1.1669922-0.0917969,1.5712891-0.4619141,2.0214844
					c-0.3232422,0.3818359-0.8085938,0.6015625-1.3525391,0.6015625c-0.5429688,0-1.0517578-0.2197266-1.3515625-0.6015625
					c-0.3691406-0.4726562-0.4521484-0.8652344-0.4521484-2.0214844v-5.1894531h1.15625v5.0732422
					c0,1.3867188,0.1044922,1.6650391,0.6474609,1.6650391c0.5439453,0,0.6601562-0.2783203,0.6601562-1.6650391v-5.0732422
					H44.5947266z"/>
				<path d="M48.5146484,112.8378906h-1.9863281v2.0927734h1.421875v1.0732422h-1.421875v2.3701172h1.9863281v1.0869141h-3.1425781
					v-7.6982422h3.1425781V112.8378906z"/>
				<path d="M51.8759766,119.4609375l-1.6650391-4.6347656v4.6347656h-1.0751953v-7.6982422h1.1679688l1.5722656,4.4492188
					v-4.4492188h1.0742188v7.6982422H51.8759766z"/>
				<path d="M55.9111328,119.4609375h-1.15625v-6.6230469h-1.2246094v-1.0751953h3.6289062v1.0751953h-1.2480469V119.4609375z"/>
				<path d="M60.8203125,119.4609375h-3.0732422v-7.6982422h1.1542969v6.6220703h1.9189453V119.4609375z"/>
				<path d="M63.1142578,119.4609375h-1.1552734v-3.1103516l-1.4443359-4.5878906h1.2011719l0.8203125,3.0292969
					l0.7988281-3.0292969h1.1660156l-1.3867188,4.5878906V119.4609375z"/>
				<path d="M68.2119141,117.7724609l-0.265625,1.6884766h-1.1435547l1.2587891-7.6982422h1.5039062l1.3398438,7.6982422h-1.1787109
					l-0.2763672-1.6884766H68.2119141z M68.8125,113.6123047l-0.4365234,3.0742188h0.9003906L68.8125,113.6123047z"/>
				<path d="M73.7792969,113.6582031c-0.0810547-0.6933594-0.2548828-0.9355469-0.6816406-0.9355469
					c-0.3925781,0-0.6474609,0.2998047-0.6474609,0.7626953c0,0.5302734,0.1953125,0.84375,1.0283203,1.59375
					c0.6591797,0.6015625,0.9140625,0.8789062,1.1455078,1.2255859c0.2304688,0.3691406,0.3574219,0.8193359,0.3574219,1.3066406
					c0,1.1669922-0.7529297,1.9638672-1.8378906,1.9638672c-1.1210938,0-1.8837891-0.8085938-1.9072266-2.0800781
					l1.0976562-0.1855469c0.0341797,0.7988281,0.3017578,1.1914062,0.8095703,1.1914062
					c0.4394531,0,0.7167969-0.3242188,0.7167969-0.8320312c0-0.5546875-0.1738281-0.796875-1.2011719-1.7460938
					c-0.5107422-0.4726562-0.7753906-0.7734375-0.984375-1.1201172c-0.2304688-0.3935547-0.3457031-0.7988281-0.3457031-1.2490234
					c0-1.1425781,0.7275391-1.9052734,1.8144531-1.9052734c1.0283203,0,1.6074219,0.6113281,1.7460938,1.8369141
					L73.7792969,113.6582031z"/>
				<path d="M76.7568359,111.7626953v3.0742188l1.3535156-3.0742188h1.2128906l-1.3300781,2.6806641l1.5029297,5.0175781h-1.2236328
					l-0.984375-3.5722656l-0.53125,1.0634766v2.5087891h-1.1542969v-7.6982422H76.7568359z"/>
				<path d="M83.2197266,112.8378906h-1.9863281v2.0927734h1.421875v1.0732422h-1.421875v2.3701172h1.9863281v1.0869141h-3.1425781
					v-7.6982422h3.1425781V112.8378906z"/>
				<path d="M83.8408203,111.7626953h1.6416016c1.3173828,0,1.9414062,0.6943359,1.9414062,2.171875v3.3417969
					c0,1.4902344-0.6240234,2.1845703-1.9414062,2.1845703h-1.6416016V111.7626953z M85.3544922,118.3847656
					c0.6816406,0,0.9130859-0.3349609,0.9130859-1.3066406v-2.9238281c0-0.9814453-0.2314453-1.3164062-0.9130859-1.3164062
					h-0.3583984v5.546875H85.3544922z"/>
				<path d="M93.9072266,120.0380859c-0.703125-0.0117188-1.0039062-0.1621094-1.2939453-0.6230469
					c-0.2988281,0.1259766-0.4375,0.1601562-0.7607422,0.1601562c-0.5449219,0-1.0527344-0.2197266-1.3535156-0.6015625
					c-0.3691406-0.4726562-0.4619141-0.8652344-0.4619141-2.0214844v-2.6826172
					c0-1.1542969,0.0927734-1.5703125,0.4619141-2.0097656c0.3232422-0.3935547,0.8085938-0.6113281,1.3535156-0.6113281
					c0.5419922,0,1.0507812,0.2314453,1.3515625,0.6113281c0.3691406,0.4628906,0.4609375,0.84375,0.4609375,2.0097656v2.6826172
					c0,0.9589844-0.0566406,1.3408203-0.2646484,1.7099609c0.1386719,0.1621094,0.2421875,0.2080078,0.5068359,0.2431641
					V120.0380859z M91.1923828,116.8261719c0,1.3964844,0.1152344,1.6748047,0.6601562,1.6748047
					c0.5419922,0,0.65625-0.2783203,0.65625-1.6650391v-2.4501953c0-1.3867188-0.1142578-1.6630859-0.65625-1.6630859
					c-0.4638672,0-0.6367188,0.2998047-0.6484375,1.1201172c-0.0117188,0.3232422-0.0117188,0.5078125-0.0117188,0.5429688
					V116.8261719z"/>
				<path d="M97.9609375,111.7626953v5.1894531c0,1.1669922-0.0927734,1.5712891-0.4619141,2.0214844
					c-0.3242188,0.3818359-0.8085938,0.6015625-1.3515625,0.6015625s-1.0527344-0.2197266-1.3535156-0.6015625
					c-0.3691406-0.4726562-0.4501953-0.8652344-0.4501953-2.0214844v-5.1894531h1.1552734v5.0732422
					c0,1.3867188,0.1054688,1.6650391,0.6484375,1.6650391s0.6582031-0.2783203,0.6582031-1.6650391v-5.0732422H97.9609375z"/>
				<path d="M101.8828125,112.8378906h-1.9892578v2.0927734h1.421875v1.0732422h-1.421875v2.3701172h1.9892578v1.0869141h-3.1435547
					v-7.6982422h3.1435547V112.8378906z"/>
				<path d="M104.8837891,113.6582031c-0.0810547-0.6933594-0.2539062-0.9355469-0.6816406-0.9355469
					c-0.3945312,0-0.6464844,0.2998047-0.6464844,0.7626953c0,0.5302734,0.1953125,0.84375,1.0273438,1.59375
					c0.6582031,0.6015625,0.9140625,0.8789062,1.1455078,1.2255859c0.2314453,0.3691406,0.3583984,0.8193359,0.3583984,1.3066406
					c0,1.1669922-0.7529297,1.9638672-1.8378906,1.9638672c-1.1230469,0-1.8847656-0.8085938-1.9082031-2.0800781
					l1.0976562-0.1855469c0.0351562,0.7988281,0.3017578,1.1914062,0.8105469,1.1914062
					c0.4384766,0,0.7148438-0.3242188,0.7148438-0.8320312c0-0.5546875-0.171875-0.796875-1.2021484-1.7460938
					c-0.5078125-0.4726562-0.7734375-0.7734375-0.9814453-1.1201172c-0.2304688-0.3935547-0.3466797-0.7988281-0.3466797-1.2490234
					c0-1.1425781,0.7275391-1.9052734,1.8154297-1.9052734c1.0273438,0,1.6054688,0.6113281,1.7451172,1.8369141
					L104.8837891,113.6582031z"/>
				<path d="M108.8447266,119.4609375h-1.1542969v-6.6230469h-1.2265625v-1.0751953h3.6298828v1.0751953h-1.2490234V119.4609375z"/>
				<path d="M111.8349609,119.4609375h-1.1542969v-7.6982422h1.1542969V119.4609375z"/>
				<path d="M116.1396484,116.9521484c0,1.1669922-0.0917969,1.5712891-0.4619141,2.0214844
					c-0.3242188,0.3818359-0.8095703,0.6015625-1.3525391,0.6015625c-0.5439453,0-1.0507812-0.2197266-1.3515625-0.6015625
					c-0.3691406-0.4726562-0.4638672-0.8652344-0.4638672-2.0214844v-2.6826172
					c0-1.1542969,0.0947266-1.5703125,0.4638672-2.0097656c0.3222656-0.3935547,0.8076172-0.6113281,1.3515625-0.6113281
					c0.5429688,0,1.0517578,0.2314453,1.3525391,0.6113281c0.3701172,0.4628906,0.4619141,0.84375,0.4619141,2.0097656V116.9521484z
					 M113.6669922,116.8261719c0,1.3964844,0.1142578,1.6748047,0.6582031,1.6748047
					c0.5429688,0,0.6601562-0.2783203,0.6601562-1.6650391v-2.4501953c0-1.3867188-0.1171875-1.6630859-0.6601562-1.6630859
					c-0.4628906,0-0.6357422,0.2998047-0.6464844,1.1201172c-0.0117188,0.3232422-0.0117188,0.5078125-0.0117188,0.5429688
					V116.8261719z"/>
				<path d="M119.5615234,119.4609375l-1.6640625-4.6347656v4.6347656h-1.0761719v-7.6982422h1.1679688l1.5722656,4.4492188
					v-4.4492188h1.0742188v7.6982422H119.5615234z"/>
				<path d="M123.7978516,113.6582031c-0.0800781-0.6933594-0.2529297-0.9355469-0.6816406-0.9355469
					c-0.3916016,0-0.6484375,0.2998047-0.6484375,0.7626953c0,0.5302734,0.1972656,0.84375,1.03125,1.59375
					c0.6582031,0.6015625,0.9121094,0.8789062,1.1425781,1.2255859C124.8730469,116.6738281,125,117.1240234,125,117.6113281
					c0,1.1669922-0.7509766,1.9638672-1.8378906,1.9638672c-1.1201172,0-1.8828125-0.8085938-1.9052734-2.0800781
					l1.0966797-0.1855469c0.0341797,0.7988281,0.2998047,1.1914062,0.8085938,1.1914062
					c0.4404297,0,0.7177734-0.3242188,0.7177734-0.8320312c0-0.5546875-0.1738281-0.796875-1.2011719-1.7460938
					c-0.5097656-0.4726562-0.7753906-0.7734375-0.9833984-1.1201172c-0.2314453-0.3935547-0.3466797-0.7988281-0.3466797-1.2490234
					c0-1.1425781,0.7275391-1.9052734,1.8134766-1.9052734c1.0292969,0,1.6064453,0.6113281,1.7451172,1.8369141
					L123.7978516,113.6582031z"/>
			</g>
		</g>
	</g>
</g>
</svg>
