<?xml version="1.0" encoding="utf-8"?>
<!-- Generator: Adobe Illustrator 16.0.0, SVG Export Plug-In . SVG Version: 6.00 Build 0)  -->
<!DOCTYPE svg PUBLIC "-//W3C//DTD SVG 1.1//EN" "http://www.w3.org/Graphics/SVG/1.1/DTD/svg11.dtd">
<svg version="1.1" id="Layer_1" xmlns="http://www.w3.org/2000/svg" xmlns:xlink="http://www.w3.org/1999/xlink" x="0px" y="0px"
	 width="150px" height="150px" viewBox="0 0 150 150" style="enable-background:new 0 0 150 150;" xml:space="preserve">
<g id="art">
	<g>
		<polygon points="121.2539062,36.6269531 119.6455078,92.1616211 125,63.7866211 		"/>
		<path d="M36.9970703,118.3354492c-0.0371094-1.9072266-0.1640625-3.5791016,1.3046875-5.1953125
			c0.890625-1.0019531,1.9355469-1.5,3.1660156-1.8984375c0.9775391-0.3164062,2.6962891-0.96875,3.7509766-0.1035156
			c0.8994141,0.7988281,1.0205078,2.4550781,1.0341797,3.46875c0.0019531,0.1259766,0.0039062,0.25,0.0048828,0.3759766
			c2.0009766-0.6835938,4.0029297-1.3662109,6.0029297-2.0478516c0.0097656,0.9580078,0.0205078,1.9179688,0.0292969,2.8769531
			c-5.0791016,1.7832031-10.1582031,3.5654297-15.2382812,5.3496094
			C37.0341797,120.2202148,37.015625,119.2788086,36.9970703,118.3354492z M44.265625,115.2836914
			c-0.0205078-1.3623047-0.265625-1.9033203-1.6982422-1.4609375c-0.3046875,0.0791016-0.6074219,0.1591797-0.9111328,0.2392578
			c-0.3056641,0.1230469-0.6123047,0.2460938-0.9169922,0.3701172c-1.34375,0.4794922-1.7167969,1.2607422-1.6923828,2.625
			c0.0029297,0.1376953,0.0048828,0.2763672,0.0078125,0.4150391c1.7382812-0.59375,3.4765625-1.1855469,5.2158203-1.7792969
			C44.2695312,115.5561523,44.2685547,115.4194336,44.265625,115.2836914z"/>
		<path d="M52.1826172,105.2368164l0.0273438,2.7783203l-15.3740234,2.015625l-0.0751953-3.9042969l15.3535156-7.3496094
			l0.0292969,2.8320312l-3.3203125,1.5390625l0.03125,2.6328125L52.1826172,105.2368164z M44.6679688,105.0493164
			c-1.71875,0.7578125-3.4443359,1.5-5.1728516,2.234375c0,0.03125,0,0.0634766,0.0009766,0.0966797
			c0.8681641-0.1484375,1.7412109-0.28125,2.6083984-0.4511719c0.859375-0.1660156,1.7128906-0.3613281,2.5830078-0.4814453
			c0.7421875-0.125,1.4833984-0.25,2.2236328-0.375c-0.0087891-0.671875-0.0175781-1.3447266-0.0273438-2.0185547
			C46.1455078,104.3862305,45.40625,104.7182617,44.6679688,105.0493164z"/>
		<path d="M36.6220703,99.034668c-0.0371094-1.9257812-0.1455078-3.5898438,1.3945312-5.1738281
			c0.8652344-0.9003906,1.8398438-1.3398438,3.0136719-1.6445312c1.4199219-0.3701172,2.5439453-0.4765625,3.8056641,0.53125
			c2.390625-1.3183594,4.7822266-2.6367188,7.1748047-3.9560547c0.0097656,1.0498047,0.0214844,2.0986328,0.0322266,3.1484375
			c-2.1416016,1.1552734-4.2851562,2.3095703-6.4257812,3.4658203c0.0546875,0.34375,0.078125,0.6875,0.0830078,1.0371094
			c2.1230469-0.5917969,4.2480469-1.1826172,6.3701172-1.7734375c0.0107422,0.96875,0.0205078,1.9384766,0.03125,2.9082031
			c-5.140625,1.4824219-10.28125,2.9638672-15.421875,4.4453125C36.6601562,101.0258789,36.640625,100.0307617,36.6220703,99.034668
			z M43.5390625,96.6235352c-0.0205078-1.3134766-0.2822266-1.9912109-1.7255859-1.6396484
			c-0.3554688,0.0966797-0.7119141,0.1914062-1.0664062,0.2890625c-0.0244141,0.0058594-0.0488281,0.0117188-0.0722656,0.0185547
			c-1.6035156,0.4326172-2.0058594,1.0283203-1.9746094,2.671875c0.0029297,0.140625,0.0039062,0.2841797,0.0078125,0.4248047
			c1.6123047-0.4482422,3.2246094-0.8984375,4.8359375-1.3466797
			C43.5429688,96.9018555,43.5419922,96.7631836,43.5390625,96.6235352z"/>
		<path d="M51.9716797,85.0151367L52,87.8618164l-15.5771484,0.9306641l-0.0761719-4.0039062l15.5566406-6.3862305
			l0.0292969,2.8999023l-3.3632812,1.3291016l0.0322266,2.6962891L51.9716797,85.0151367z M44.3623047,84.2709961
			c-1.7451172,0.6494141-3.4921875,1.28125-5.2451172,1.9033203c0.0029297,0.0341797,0.0029297,0.0664062,0.0029297,0.0986328
			C40,86.1870117,40.8828125,86.1147461,41.7626953,86.0053711c0.8730469-0.1074219,1.7402344-0.2441406,2.6201172-0.3027344
			c0.75-0.0742188,1.5-0.1464844,2.2509766-0.2197266c-0.0087891-0.6884766-0.0175781-1.3779297-0.0273438-2.0664062
			C45.8564453,83.7006836,45.109375,83.9868164,44.3623047,84.2709961z"/>
		<polygon points="36.2626953,80.5834961 36.203125,77.4516602 49.9267578,74.5976562 49.8798828,70.3588867 51.8154297,69.984375 
			51.890625,77.1733398 		"/>
		<polygon points="36.0908203,71.71875 36.0302734,68.5561523 49.8310547,66.0864258 49.78125,61.8061523 51.7265625,61.4863281 
			51.8017578,68.7460938 		"/>
		<polygon points="35.7685547,55.046875 37.9140625,54.7578125 37.9951172,59.2485352 42.546875,58.5668945 42.4970703,55.4609375 
			44.5732422,55.171875 44.6171875,58.2573242 49.7080078,57.4956055 49.65625,52.9077148 51.6357422,52.6420898 
			51.7138672,60.2358398 35.9179688,62.7641602 		"/>
		<polygon points="35.734375,53.3461914 35.671875,50.1157227 49.6279297,48.4570312 49.5771484,44.0898438 51.5439453,43.8847656 
			51.6210938,51.2910156 		"/>
		<polygon points="72.8681641,51.3295898 61.046875,52.9804688 61.1435547,72.2719727 69.6054688,70.5117188 69.6064453,79.9790039 
			61.1923828,82.019043 61.2978516,103.1264648 72.7861328,99.4799805 72.7705078,108.6225586 54.25,115.1245117 
			53.5908203,43.671875 72.8857422,41.6650391 		"/>
		<polygon points="95.0576172,100.7993164 89.2890625,102.8237305 85.0048828,84.2329102 80.4492188,105.9272461 
			74.1015625,108.1557617 81.9951172,72.8071289 74.59375,41.4868164 81.2890625,40.7910156 85.3388672,59.6782227 
			89.3632812,39.9511719 95.2958984,39.3339844 88.2705078,71.3852539 		"/>
		<polygon points="101.9960938,98.362793 96.8154297,100.1821289 97.7763672,39.0751953 103.1201172,38.5200195 		"/>
		<polygon points="113.4033203,94.3588867 108.703125,96.0073242 109.8320312,46.1665039 104.5078125,46.9101562 
			104.6757812,38.3579102 119.8466797,36.7797852 119.6201172,44.7993164 114.6435547,45.4946289 		"/>
		<polygon points="33.4140625,45.7617188 34.984375,121.8774414 25,86.7768555 		"/>
	</g>
</g>
</svg>
